<svg xmlns="http://www.w3.org/2000/svg" width="152" height="304" fill="none" viewBox="0 0 152 304"><g clip-path="url(#clip0_834_10490)"><rect width="152" height="304" fill="#212130" rx="6"/><path fill="#EA9D7D" d="M66.8102 129.611L54.8846 168.602L51.3865 177.673C51.3865 177.673 56.4747 184.198 68.5592 186.745C76.8276 188.495 82.3929 188.654 86.05 188.336C89.0711 188.018 92.7283 187.381 90.8202 181.811C88.1171 173.535 89.0712 168.284 89.0712 168.284L93.3643 144.889L66.8102 129.611Z"/><path fill="url(#paint0_linear_834_10490)" d="M65.0616 150.618C68.9399 156.092 74.0629 160.565 80.0082 163.668C85.5734 166.374 89.5486 167.01 89.5486 167.01L93.2058 147.594L67.1286 129.611L65.6976 132.316L64.5845 136.772C64.1075 136.772 61.4044 145.048 65.0616 150.618Z"/><path fill="#CF7653" d="M52.3413 177.833H52.1823C51.8643 177.673 51.7053 177.355 51.7053 177.037L59.1786 154.12C60.6097 149.345 64.9028 133.271 64.9028 133.271C65.0618 132.953 65.3798 132.794 65.6978 132.794C66.0159 132.953 66.1749 133.271 66.1749 133.59L60.4507 154.438C59.1786 158.735 52.9774 177.196 52.9774 177.196C52.9774 177.673 52.6593 177.833 52.3413 177.833Z"/><path fill="#A84D3B" d="M71.2629 138.841L71.581 139.637L72.217 138.841H71.2629Z"/><path fill="#A84D3B" d="M71.2633 137.727L70.9453 139.159L72.5354 139L71.2633 137.727ZM79.8497 143.933V145.684L81.5988 144.888L79.8497 143.933ZM75.5565 141.228L75.2385 142.819L77.1466 142.342L75.5565 141.228ZM73.1714 139.477L72.8534 141.069L74.7615 140.591L73.1714 139.477Z"/><path fill="#A84D3B" d="M70.3087 136.294L69.5137 137.886H71.4217L70.3087 136.294ZM82.0752 147.594L81.4392 146.639L80.8031 147.912L82.0752 147.594ZM80.0081 145.843L79.0541 144.729L78.5771 146.002L80.0081 145.843ZM86.5274 149.344L85.4144 148.071L84.9373 149.504L86.5274 149.344ZM91.1386 150.936L90.1846 149.822L89.7075 151.095L91.1386 150.936ZM82.8702 145.366L81.7572 144.888V146.162L82.8702 145.366ZM85.0963 150.299L84.3013 149.344L83.6653 150.618L85.0963 150.299ZM78.8951 143.774L77.782 143.297V144.57L78.8951 143.774Z"/><path fill="#A84D3B" d="M87.1643 147.117L85.7332 146.48V148.549L87.1643 147.117ZM90.3444 147.753L89.0724 147.435L89.3904 149.027L90.3444 147.753ZM92.2525 150.3L91.1395 150.141L91.6165 151.414L92.2525 150.3ZM87.9593 149.822L87.3233 148.867L86.5283 149.981L87.9593 149.822ZM91.7755 153.483L91.9345 152.369L90.6625 152.846L91.7755 153.483ZM91.2985 155.711L91.6165 154.597L90.3444 154.915L91.2985 155.711ZM88.5954 155.711L87.9593 156.188L88.9134 156.666L88.5954 155.711ZM89.2314 149.504L88.5954 149.981L89.3904 150.459L89.2314 149.504ZM92.7295 148.39L91.9345 148.231L92.0935 149.186L92.7295 148.39ZM89.8674 157.461L89.2314 158.098L90.0264 158.416L89.8674 157.461ZM73.9668 140.91L73.3307 141.388L74.2848 141.865L73.9668 140.91ZM68.7195 133.589L68.0835 134.226L68.8785 134.544L68.7195 133.589ZM84.7792 148.708L84.3022 148.231L83.9842 149.027L84.7792 148.708ZM80.168 147.435L80.486 146.639L79.691 146.799L80.168 147.435ZM82.5531 148.867L82.7121 148.231H81.9171L82.5531 148.867ZM85.8923 151.891L86.2103 152.687L86.8463 152.05L85.8923 151.891ZM90.5034 148.867L89.8674 149.186L90.6625 149.663L90.5034 148.867Z"/><path fill="#A84D3B" d="M90.8204 147.913L89.8664 148.549L90.9794 149.186L90.8204 147.913ZM88.7533 148.708L88.1173 149.027L88.9123 149.504L88.7533 148.708ZM89.3893 160.008L88.7533 160.326L89.5483 160.804L89.3893 160.008ZM87.7993 158.098L87.9583 158.735L88.5943 158.257L87.7993 158.098ZM87.6402 154.279L87.7993 154.915L88.4353 154.438L87.6402 154.279ZM90.6614 155.87L90.1844 155.393L89.8664 156.188L90.6614 155.87ZM68.5594 148.39L68.8774 148.708L69.1955 148.072L68.5594 148.39ZM71.4216 146.321L71.1035 146.639L71.7396 146.799L71.4216 146.321ZM74.7607 152.05L74.2837 151.891V152.369L74.7607 152.05ZM73.1706 149.345L72.8526 149.822H73.4886L73.1706 149.345ZM83.9831 154.438V155.233L84.9371 154.915L83.9831 154.438ZM82.552 147.117V147.913L83.5061 147.594L82.552 147.117ZM82.711 145.525V146.48L83.5061 146.003L82.711 145.525ZM70.3085 140.751V141.547L71.2625 141.229L70.3085 140.751ZM89.3893 152.369L88.7533 152.528L89.2303 153.165L89.3893 152.369ZM87.0042 158.894L86.6862 158.257L86.2092 158.894H87.0042ZM87.6402 150.618L87.9583 151.414L88.5943 150.618H87.6402ZM90.0253 151.573L90.5024 152.369L91.1384 151.573H90.0253ZM91.7744 148.708L91.2974 149.186L92.0924 149.504L91.7744 148.708ZM90.8204 153.642L90.1844 153.324V154.119L90.8204 153.642ZM72.8526 139.637L71.8986 140.274L73.0116 140.91L72.8526 139.637ZM69.6725 140.751L69.1955 140.433L69.0365 141.069L69.6725 140.751ZM66.4923 139.16L66.0153 138.841L65.8563 139.478L66.4923 139.16ZM65.5383 144.093L65.6973 143.616H65.0613L65.5383 144.093Z"/><path fill="#A84D3B" d="M71.7399 140.591L72.0579 141.228L72.5349 140.591H71.7399ZM69.8318 139L70.1498 140.114L71.1039 139.159L69.8318 139ZM69.3548 134.703L68.8778 135.658L70.1498 135.817L69.3548 134.703ZM74.284 142.501L73.807 142.82L74.443 143.138L74.284 142.501ZM75.3971 141.865L74.92 142.183L75.5561 142.501L75.3971 141.865ZM76.6691 142.501L76.1921 142.82L76.8281 143.138L76.6691 142.501ZM74.443 146.639L73.966 146.321L73.807 146.957L74.443 146.639ZM64.9026 141.228L65.2206 141.865L65.6976 141.228H64.9026ZM68.4008 137.568L68.0827 138.045L68.5598 138.204L68.4008 137.568ZM68.2417 143.615L67.7647 143.297V143.934L68.2417 143.615ZM68.8778 136.931L69.1958 137.568L69.6728 136.931H68.8778ZM70.3088 137.886L70.6269 138.523L71.1039 137.886H70.3088ZM66.6517 136.135L66.3337 136.613L66.8107 136.931L66.6517 136.135ZM67.2877 134.544L66.8107 134.226L66.6517 135.021L67.2877 134.544ZM75.7151 143.297V144.093L76.3511 143.774L75.7151 143.297ZM78.5772 144.729L78.1002 144.888L78.4182 145.366L78.5772 144.729ZM77.3051 143.456L76.8281 143.615L77.1461 144.093L77.3051 143.456ZM87.9586 148.231L87.4816 148.39L87.7996 148.867L87.9586 148.231ZM85.7325 147.116L85.0965 147.276L85.5735 147.753L85.7325 147.116ZM78.2592 148.39L77.9412 147.753L77.4642 148.39H78.2592ZM87.1636 156.188L86.8456 155.71L86.3685 156.188H87.1636ZM77.3051 146.639L76.9871 146.162L76.6691 146.639H77.3051ZM81.4393 145.843V146.48L82.2344 146.162L81.4393 145.843ZM84.1424 146.321V147.116L84.7785 146.798L84.1424 146.321ZM86.8456 147.753L86.3685 147.912L86.6866 148.549L86.8456 147.753ZM84.7785 151.095L84.4605 150.618L84.1424 151.095H84.7785ZM77.7822 150.936V151.573L78.5772 151.254L77.7822 150.936ZM80.9623 149.185L80.3263 149.345L80.8033 149.822L80.9623 149.185ZM86.3685 150.459L86.0505 149.981L85.7325 150.459H86.3685Z"/><path fill="#EA9D7D" d="M105.449 91.4161C105.449 91.4161 110.061 98.896 110.856 102.397C111.493 104.947 111.813 107.567 111.81 110.195C111.81 116.88 111.333 126.269 110.538 131.521C108.947 140.592 104.654 146.003 99.5661 147.595C94.4778 149.186 85.2555 145.844 79.0542 142.661C73.807 139.956 70.7858 137.091 69.9908 133.749C69.1958 130.248 67.6057 125.792 67.6057 125.792L67.9237 115.447L80.1672 89.3472L105.449 91.4161Z"/><path fill="url(#paint1_linear_834_10490)" d="M73.9657 120.222C73.9657 120.222 83.1881 109.877 89.0713 107.649C100.361 103.034 111.332 103.511 111.332 103.511L109.583 97.941L77.4638 93.644L70.4675 113.697L73.9657 120.222Z"/><path fill="#EA9D7D" d="M64.2662 133.112C68.9205 133.112 72.6936 129.051 72.6936 124.041C72.6936 119.031 68.9205 114.97 64.2662 114.97C59.6119 114.97 55.8389 119.031 55.8389 124.041C55.8389 129.051 59.6119 133.112 64.2662 133.112Z"/><path fill="#B76349" d="M64.2661 133.749C59.1779 133.749 55.0437 129.293 55.0437 124.041C55.0437 118.63 59.1779 114.333 64.2661 114.333C69.3543 114.333 73.4885 118.789 73.4885 124.041C73.4885 129.293 69.3543 133.749 64.2661 133.749ZM64.2661 115.606C59.9729 115.606 56.4748 119.426 56.4748 124.041C56.4748 128.656 59.9729 132.476 64.2661 132.476C68.5593 132.476 72.0574 128.656 72.0574 124.041C72.0574 119.267 68.5593 115.606 64.2661 115.606Z"/><path fill="url(#paint2_linear_834_10490)" d="M64.5837 128.02C66.6914 128.02 68.3999 126.239 68.3999 124.041C68.3999 121.844 66.6914 120.062 64.5837 120.062C62.4761 120.062 60.7676 121.844 60.7676 124.041C60.7676 126.239 62.4761 128.02 64.5837 128.02Z"/><path fill="#EA9D7D" d="M73.4885 118.312L70.7854 120.699L69.6724 129.611L70.1494 132.157C70.1494 132.157 73.9655 130.088 74.2835 125.951C74.6016 121.813 73.4885 118.312 73.4885 118.312Z"/><path fill="#B76349" d="M94.318 148.231C92.569 148.231 91.1379 147.913 87.9578 147.117C82.0853 145.39 76.6592 142.403 72.0571 138.364C68.5589 134.863 68.8769 131.521 68.8769 131.362C68.8769 131.043 68.8769 130.566 69.1949 130.566C69.513 130.566 69.672 130.884 69.831 131.202C69.99 131.839 69.99 134.545 72.8521 137.409C77.2776 141.283 82.4835 144.16 88.1168 145.844C93.046 146.958 94 147.276 97.6572 146.958C101.155 146.64 103.222 145.207 103.222 145.207C103.699 144.889 104.176 144.73 103.858 145.207C103.54 145.526 100.996 147.595 97.8162 148.072C96.3851 148.231 95.4311 148.231 94.318 148.231Z"/><path fill="#F4B9A6" d="M94.9543 124.2L96.0674 123.246L94.6363 122.768L94.9543 124.2ZM80.9617 123.564L80.6437 122.768L79.8486 123.564H80.9617ZM99.4065 125.155L100.997 126.11L101.156 124.2L99.4065 125.155ZM95.2723 117.039L97.3394 118.312L97.6574 115.766L95.2723 117.039Z"/><path fill="#F4B9A6" d="M95.2725 115.766L97.3395 114.493L95.2725 112.901V115.766ZM100.043 129.93L102.11 128.657L100.043 127.224V129.93ZM102.11 127.383L102.905 125.155H100.202L102.11 127.383ZM94.4774 122.768L93.2054 123.087L94.0004 124.201L94.4774 122.768ZM95.4315 121.018L94.0004 121.336L94.9544 122.45L95.4315 121.018ZM95.1134 127.861L95.5905 129.134L96.7035 128.02L95.1134 127.861ZM95.7495 130.248L96.8625 130.885L97.1805 129.612L95.7495 130.248ZM102.269 134.068L100.997 134.545L101.951 135.659L102.269 134.068ZM97.0215 106.854L96.5445 107.968L97.9756 107.808L97.0215 106.854ZM98.2936 114.811L97.1805 114.652L97.6576 115.766L98.2936 114.811ZM99.4066 110.832L98.2936 110.673L98.6116 111.787L99.4066 110.832ZM90.1842 113.06L90.0252 114.493L91.4563 113.856L90.1842 113.06ZM93.2054 110.832L92.0923 111.628L93.3644 112.424L93.2054 110.832ZM87.9581 112.742H87.1631L87.6401 113.538L87.9581 112.742ZM100.043 134.227L98.9296 134.545L99.7247 135.341L100.043 134.227ZM98.7706 133.431L97.6576 133.749L98.4526 134.704L98.7706 133.431ZM89.2302 126.429L88.1171 126.588L88.7532 127.702L89.2302 126.429ZM91.9333 128.498L90.8203 128.816L91.4563 129.771L91.9333 128.498ZM88.2762 122.927L88.1171 123.882L89.3892 123.564L88.2762 122.927ZM94.0004 121.654L93.5234 120.699L92.7283 121.654H94.0004ZM105.608 130.885L106.244 130.248L105.131 130.089L105.608 130.885ZM101.156 127.702L101.792 127.861V127.065L101.156 127.702ZM108.311 120.381V121.018L108.947 120.699L108.311 120.381ZM104.972 123.882L105.767 124.041L105.449 123.246L104.972 123.882Z"/><path fill="#F4B9A6" d="M108.628 121.495L108.787 120.859L107.992 121.018L108.628 121.495ZM85.4131 115.448L84.936 116.244H85.8901L85.4131 115.448ZM95.7485 110.355L97.1796 110.037L96.0665 108.923L95.7485 110.355ZM97.1796 126.747L100.042 125.952L97.6566 123.564L97.1796 126.747ZM94.9535 115.925L93.8404 115.766L93.9994 116.88L94.9535 115.925ZM86.6851 123.564V122.61L85.4131 123.087L86.6851 123.564ZM93.0454 112.742L93.2044 114.175L94.4765 113.22L93.0454 112.742ZM91.2963 115.13L91.4553 116.403L92.7274 115.766L91.2963 115.13ZM92.7274 114.175L92.8864 115.607L94.1585 114.811L92.7274 114.175ZM104.653 112.742L105.766 113.22V111.947L104.653 112.742ZM95.1125 119.586L94.4765 118.79L93.6814 119.904L95.1125 119.586ZM100.519 132.795L99.4057 133.113L100.201 134.068L100.519 132.795ZM95.5895 125.952L95.2715 126.747H96.3845L95.5895 125.952ZM96.7026 131.522L96.2255 130.726L95.7485 131.681L96.7026 131.522ZM98.2926 132.317L98.9287 131.681L97.9746 131.363L98.2926 132.317ZM98.7696 130.249L99.5647 129.612L98.4516 129.135L98.7696 130.249Z"/><path fill="#F4B9A6" d="M98.6116 129.134L99.5656 128.338L98.2935 127.861L98.6116 129.134ZM97.9755 124.2L98.7706 123.564L97.6575 123.086L97.9755 124.2ZM95.7494 124.678L96.5445 125.155L96.8625 124.359L95.7494 124.678ZM105.29 132.158L104.336 132.317L104.972 133.113L105.29 132.158ZM100.202 123.245L99.8836 124.041L100.997 123.882L100.202 123.245ZM102.746 132.953L102.11 132.158L101.633 133.113L102.746 132.953ZM97.1805 136.136L97.3395 137.25L98.2935 136.455L97.1805 136.136ZM94.3184 131.044L93.5233 131.362L94.3184 131.999V131.044ZM84.46 120.381L83.8239 119.585L83.3469 120.699L84.46 120.381ZM95.1134 133.272L95.7494 133.59L95.9084 132.635L95.1134 133.272ZM92.2513 131.68L92.8873 131.999L93.0463 130.884L92.2513 131.68ZM87.1631 132.794L86.8451 133.749L87.9581 133.59L87.1631 132.794ZM90.6612 136.295H89.7072L90.0252 137.25L90.6612 136.295ZM87.3221 137.569L86.5271 137.41L86.6861 138.364L87.3221 137.569ZM96.3855 122.609L98.2935 122.131L96.7035 120.54L96.3855 122.609ZM94.9544 118.153L95.4314 118.948L96.0675 118.153H94.9544ZM95.1134 119.903L96.0675 121.336L97.3395 119.585L95.1134 119.903ZM100.52 116.72L99.2476 117.834L101.156 118.471L100.52 116.72ZM88.7531 119.903V118.948L87.7991 119.426L88.7531 119.903ZM98.7706 119.108L98.1345 119.744L99.0886 120.063L98.7706 119.108ZM95.1134 113.537L96.2265 113.378L95.4314 112.423L95.1134 113.537ZM102.269 116.084L103.382 115.766L102.428 114.811L102.269 116.084ZM94.4774 116.084L95.7494 115.766L94.7954 114.97L94.4774 116.084ZM102.428 110.832L103.541 110.514L102.746 109.559L102.428 110.832ZM98.6116 108.286L97.8165 108.922L98.9296 109.241L98.6116 108.286ZM89.8662 111.628V110.673L88.9122 111.15L89.8662 111.628ZM91.1382 125.633L90.9792 126.906L92.4103 126.428L91.1382 125.633ZM89.3892 125.155L88.2761 125.314L88.9122 126.269L89.3892 125.155ZM91.7743 129.93L91.6153 131.203L92.8873 130.725L91.7743 129.93ZM93.3643 125.314V126.588L94.7954 125.792L93.3643 125.314ZM92.2513 127.702L92.4103 128.975L93.6824 128.179L92.2513 127.702ZM90.8202 124.2V123.245L89.8662 123.723L90.8202 124.2Z"/><path fill="#F4B9A6" d="M104.972 116.562L106.085 116.243L105.131 115.289L104.972 116.562ZM100.837 112.901L101.314 113.538L101.95 112.742L100.837 112.901ZM109.106 125.633L110.06 125.156L109.265 124.519L109.106 125.633ZM91.933 111.469V110.514L90.979 110.992L91.933 111.469ZM98.6113 113.379V114.493L99.8834 114.175L98.6113 113.379ZM97.3393 111.31L97.1803 112.424L98.4523 111.946L97.3393 111.31ZM98.1343 121.973L100.042 123.246L100.678 120.859L98.1343 121.973ZM102.746 121.973L104.813 121.336L103.382 119.426L102.746 121.973ZM97.6573 123.087L98.2933 123.246L98.1343 122.45L97.6573 123.087ZM96.7032 118.631L96.3852 119.426H97.4983L96.7032 118.631ZM98.6113 116.243L97.4983 116.403L98.1343 117.357L98.6113 116.243ZM102.109 116.721L100.996 116.88L101.632 117.835L102.109 116.721Z"/><path fill="#F4B9A6" d="M97.8159 118.312L100.201 117.039L97.6569 115.448L97.8159 118.312ZM101.314 109.241L101.95 107.968H100.36L101.314 109.241ZM99.565 127.384L100.042 126.27H98.611L99.565 127.384ZM97.4979 121.336L99.565 120.222L97.3389 118.79L97.4979 121.336ZM98.77 111.946L99.565 112.583L99.883 111.628L98.77 111.946ZM101.314 113.697L100.201 115.448L102.586 115.607L101.314 113.697ZM102.904 111.469L102.427 112.106L103.54 112.265L102.904 111.469ZM104.017 118.312L104.653 118.949L104.971 117.994L104.017 118.312ZM100.996 110.514L100.519 111.151L101.632 111.31L100.996 110.514ZM86.8445 119.904L85.7314 120.222L86.6855 121.177L86.8445 119.904ZM88.4345 115.129L87.9575 116.084H89.2296L88.4345 115.129ZM90.8196 115.129L90.6607 114.174L89.8656 114.97L90.8196 115.129ZM89.5476 120.222L89.3886 119.267L88.4345 120.063L89.5476 120.222Z"/><path fill="#A84D3B" d="M94 100.805L93.841 101.601H94.477L94 100.805ZM94.318 102.874L93.841 102.238L93.682 103.034L94.318 102.874ZM100.519 101.76L100.042 101.283L99.7242 101.92L100.519 101.76ZM105.925 100.328L106.403 100.805L106.721 100.01L105.925 100.328ZM108.788 99.5323L109.265 100.01L109.424 99.214L108.788 99.5323ZM107.834 100.487L108.47 100.328L107.993 99.6915L107.834 100.487ZM95.908 101.76L95.431 101.283L95.113 101.92L95.908 101.76ZM103.381 101.283L102.745 100.805L102.586 101.601L103.381 101.283ZM93.0459 102.079L92.5689 101.442L92.2509 102.238L93.0459 102.079ZM78.2583 95.2354V96.986L79.8484 96.0311L78.2583 95.2354ZM88.1167 99.5323L87.7987 100.328L88.7527 100.169L88.1167 99.5323ZM81.5974 97.1451V97.9408L82.3925 97.6226L81.5974 97.1451ZM81.2794 100.169L81.1204 100.965L82.0745 100.646L81.2794 100.169ZM82.0745 101.92L82.2335 102.874L83.0285 102.238L82.0745 101.92ZM89.7068 100.646L89.0708 100.169L88.7527 100.805L89.7068 100.646ZM90.1838 100.01L90.3428 101.124L91.4559 100.328L90.1838 100.01Z"/><path fill="#A84D3B" d="M98.6108 100.965L99.0879 101.601L99.7239 100.805L98.6108 100.965ZM92.7276 100.646L93.2046 101.442L93.8406 100.646H92.7276ZM83.8232 99.0548L84.1412 100.328L85.2542 99.3731L83.8232 99.0548ZM100.996 100.805L101.473 101.601L102.109 100.646L100.996 100.805ZM96.0667 100.805L96.3847 101.919L97.4978 101.124L96.0667 100.805ZM86.2083 100.01L86.5263 100.646L87.1623 100.169L86.2083 100.01ZM83.3462 102.874L83.1871 103.67L83.9822 103.352L83.3462 102.874ZM82.5511 103.511L82.3921 104.148L83.1871 103.988L82.5511 103.511ZM88.1164 100.487L88.4344 100.805L88.5934 100.487H88.1164ZM91.6145 100.965L91.9325 101.283L92.2506 100.805L91.6145 100.965ZM97.6568 101.442L97.8158 101.76L98.1338 101.442H97.6568ZM81.7561 103.988L81.2791 104.148L81.5971 104.466L81.7561 103.988ZM82.2331 97.4634L82.3921 98.5774L83.6642 97.9408L82.2331 97.4634ZM82.0741 103.193L81.4381 103.352L81.9151 103.829L82.0741 103.193Z"/><path fill="#A84D3B" d="M81.5976 103.351L81.4386 102.556L80.6436 103.192L81.5976 103.351ZM82.3927 98.577L83.0287 98.8953V98.0996L82.3927 98.577ZM87.0039 99.8502L87.6399 100.009L87.4809 99.2136L87.0039 99.8502ZM80.8026 97.9404V98.4179L81.4386 98.2587L80.8026 97.9404ZM82.2337 99.8502L82.8697 100.009L82.7107 99.2136L82.2337 99.8502ZM82.0747 105.579V106.057L82.5517 105.898L82.0747 105.579ZM80.6436 99.5319L80.0076 99.691L80.4846 100.168L80.6436 99.5319ZM80.8026 103.988V105.102L81.9157 104.465L80.8026 103.988Z"/><path fill="#A84D3B" d="M81.1209 105.739L81.7569 105.261L80.9619 104.943L81.1209 105.739ZM81.1209 99.532L81.5979 99.0546L80.9619 98.8954L81.1209 99.532ZM80.1668 101.283L80.8028 100.805L79.8488 100.328L80.1668 101.283ZM83.824 100.805L84.301 101.123L84.46 100.487L83.824 100.805ZM81.1209 107.489L81.7569 107.171L81.1209 106.694V107.489ZM79.3718 110.991L80.0078 110.672L79.3718 110.195V110.991ZM80.3258 96.1899L80.4848 97.4631L81.5979 97.1448L80.3258 96.1899ZM78.8948 98.8954L79.3718 99.3729L79.6898 98.5771L78.8948 98.8954ZM85.255 98.5771L85.573 100.009L86.8451 99.2137L85.255 98.5771ZM79.3718 97.9406L79.8488 98.418L80.1668 97.7814L79.3718 97.9406ZM89.2302 101.601L90.0252 101.919L89.8662 101.123L89.2302 101.601ZM104.336 101.123L104.972 101.442V100.646L104.336 101.123ZM80.6439 102.715L81.7569 102.238L80.6439 101.283V102.715ZM79.6898 96.1899L79.0538 97.304L80.3258 97.4631L79.6898 96.1899Z"/><path fill="#A84D3B" d="M82.8692 101.124L82.2332 100.965L82.3921 101.602L82.8692 101.124ZM79.053 97.3047L78.417 97.623L79.053 98.1004V97.3047ZM84.7772 98.5779L84.6182 99.2144L85.2543 99.0553L84.7772 98.5779ZM80.6431 99.2144L79.5301 98.737V100.01L80.6431 99.2144Z"/><path fill="#A84D3B" d="M81.4389 97.4634H80.8028L81.1209 98.1L81.4389 97.4634ZM79.0538 97.9408L78.8948 98.4183L79.5308 98.2591L79.0538 97.9408ZM84.301 98.5774L83.506 97.9408L83.3469 99.0548L84.301 98.5774Z"/><path fill="#964C38" d="M68.2406 124.836V124.2L67.6046 124.359L68.2406 124.836ZM65.5375 120.221L64.7424 120.38L65.2195 121.017L65.5375 120.221Z"/><path fill="#964C38" d="M65.3783 120.38L64.5832 121.335L65.8553 121.654L65.3783 120.38ZM63.9472 120.221L62.9932 120.539L63.7882 121.335L63.9472 120.221ZM68.0814 122.449L67.6044 122.927L68.2404 123.086L68.0814 122.449ZM66.6503 121.813L66.1733 122.29L66.8094 122.449L66.6503 121.813Z"/><path fill="#964C38" d="M67.6048 122.927L67.2868 123.404L67.9228 123.564L67.6048 122.927ZM64.1066 121.495L63.6296 121.972L64.2657 122.131L64.1066 121.495Z"/><path fill="#964C38" d="M63.3118 121.177L62.6758 121.813L63.7888 122.291L63.3118 121.177ZM65.8559 124.041L66.3329 124.201L66.4919 123.723L65.8559 124.041ZM67.764 121.972L67.605 122.291H68.082L67.764 121.972ZM68.082 123.564L67.923 123.882H68.4L68.082 123.564Z"/><path fill="#964C38" d="M62.3577 120.858L61.7217 121.494L62.6757 121.813L62.3577 120.858ZM63.6298 123.404H63.3118L63.4708 123.722L63.6298 123.404ZM64.5838 124.677L64.4249 124.359L64.1068 124.518L64.5838 124.677ZM65.6969 120.858L66.1739 120.38L65.5379 120.221L65.6969 120.858ZM63.9478 120.858L63.4708 121.176L64.1068 121.335L63.9478 120.858ZM63.1528 121.176L62.6757 121.017V121.654L63.1528 121.176Z"/><path fill="#964C38" d="M63.1528 121.177V120.699L62.6758 120.858L63.1528 121.177ZM66.969 121.972L67.287 122.45L67.605 121.813L66.969 121.972ZM66.3329 120.54L66.1739 121.654L67.287 121.336L66.3329 120.54Z"/><path fill="#964C38" d="M65.8561 121.177L66.3331 121.654L66.4921 121.017L65.8561 121.177ZM62.04 122.768L61.722 123.245H62.199L62.04 122.768ZM64.9021 120.222L64.4251 120.062V120.54L64.9021 120.222ZM63.9481 123.086L64.2661 123.405L64.5841 122.927L63.9481 123.086ZM65.2201 124.996L64.9021 125.473L65.5381 125.633L65.2201 124.996ZM61.881 121.654L61.563 122.131H62.199L61.881 121.654Z"/><path fill="#964C38" d="M63.312 124.995L62.835 124.836L62.994 125.473L63.312 124.995ZM61.563 122.449H62.04L61.722 121.972L61.563 122.449Z"/><path fill="#964C38" d="M61.0855 124.359L61.4035 124.2L61.2445 123.723L61.0855 124.359ZM61.4035 122.608H61.7216L61.5626 122.131L61.4035 122.608ZM62.5166 122.131V122.608L62.9936 122.29L62.5166 122.131ZM60.9265 123.563H61.5626L61.2445 122.927L60.9265 123.563ZM61.8806 123.723V124.2L62.3576 123.882L61.8806 123.723ZM65.0607 121.813L64.5837 121.972L65.0607 122.449V121.813ZM67.2868 124.2L67.4458 124.677L67.9229 124.359L67.2868 124.2ZM64.1067 120.699L64.2657 121.176L64.7427 120.858L64.1067 120.699ZM65.6967 122.449L65.3787 121.972L65.2197 122.608L65.6967 122.449Z"/><path fill="#AF361A" d="M86.2093 111.945C86.0503 111.945 85.7323 111.945 85.5733 111.786C85.0963 111.468 84.9373 110.672 85.2553 110.195C85.4143 110.036 87.9584 106.216 93.6826 106.694C94.3187 106.694 94.7957 107.33 94.7957 107.967C94.7957 108.603 94.1597 109.081 93.5236 109.081C89.2305 108.763 87.3224 111.468 87.3224 111.627C86.8454 111.786 86.5274 111.945 86.2093 111.945ZM109.742 108.603C109.583 108.603 109.265 108.603 109.106 108.444C107.834 107.489 105.926 108.126 105.767 108.126C105.131 108.285 104.495 107.967 104.336 107.33C104.177 106.694 104.495 106.057 105.131 105.898C105.29 105.898 108.152 104.943 110.378 106.534C110.855 106.853 111.014 107.648 110.696 108.126C110.378 108.444 110.06 108.603 109.742 108.603Z"/><path fill="#4F2B23" d="M91.9336 120.381C93.163 120.381 94.1597 119.383 94.1597 118.153C94.1597 116.922 93.163 115.925 91.9336 115.925C90.7042 115.925 89.7075 116.922 89.7075 118.153C89.7075 119.383 90.7042 120.381 91.9336 120.381Z"/><path fill="#4F2B23" d="M108.47 119.267C109.7 119.267 110.696 118.269 110.696 117.039C110.696 115.808 109.7 114.811 108.47 114.811C107.241 114.811 106.244 115.808 106.244 117.039C106.244 118.269 107.241 119.267 108.47 119.267Z"/><path fill="#B4603F" d="M101.156 131.68C100.679 131.68 100.202 131.362 100.043 130.725C99.8843 130.088 100.361 129.452 100.997 129.452C100.997 129.452 102.746 129.133 102.905 127.701C103.064 126.269 101.633 122.29 100.838 120.221C100.52 119.585 100.838 118.948 101.474 118.789C102.11 118.471 102.746 118.789 102.905 119.426C103.223 120.062 105.29 125.473 105.131 128.019C104.972 130.407 102.746 131.68 101.474 131.839C101.315 131.68 101.156 131.68 101.156 131.68Z"/><path fill="#CF7653" d="M95.7502 138.364C93.6651 138.344 91.6421 137.652 89.9809 136.391C88.3197 135.129 87.1088 133.366 86.5278 131.362C86.3688 130.725 86.6868 130.088 87.3229 129.929C87.9589 129.77 88.5949 130.088 88.7539 130.725C89.1992 132.238 90.1208 133.566 91.3815 134.513C92.6421 135.459 94.1744 135.973 95.7502 135.977C96.3862 135.977 96.8632 136.613 96.8632 137.091C96.8632 137.887 96.3862 138.364 95.7502 138.364Z"/><path fill="#fff" d="M93.3644 131.202C88.9122 131.202 85.4141 126.428 85.4141 120.698C85.4141 114.969 89.0712 110.195 93.3644 110.195C97.6576 110.195 101.315 114.969 101.315 120.698C101.315 126.428 97.6576 131.202 93.3644 131.202ZM93.3644 111.786C89.8663 111.786 87.0041 115.765 87.0041 120.698C87.0041 125.632 89.8663 129.611 93.3644 129.611C96.8626 129.611 99.7247 125.632 99.7247 120.698C99.7247 115.765 96.8626 111.786 93.3644 111.786Z"/><path fill="#fff" d="M100.838 118.47L99.4065 117.674C99.4065 117.674 100.361 116.083 101.951 116.083C103.541 116.083 104.654 116.879 104.654 117.038L103.7 118.311C103.7 118.311 102.905 117.674 101.951 117.674C101.315 117.515 100.838 118.47 100.838 118.47ZM73.9019 118.056L74.1722 116.465L86.0977 118.534L85.8274 120.125L73.9019 118.056Z"/><path fill="#C94112" d="M69.5136 80.7531C69.5136 80.7531 61.5633 77.5701 55.203 88.7104C48.2067 101.124 57.2701 117.516 57.2701 117.516C57.2701 117.516 59.9732 113.537 65.2204 114.333C69.5136 114.97 70.7856 117.357 72.0577 118.789C73.3297 120.062 78.418 118.948 80.1671 113.06C81.4391 108.445 81.4391 103.988 79.849 100.806C78.259 97.6226 76.8279 93.9622 79.054 95.5537C81.2801 97.1452 85.0963 99.2141 90.9795 100.169C96.8628 101.124 108.152 102.079 113.877 97.1452C119.601 92.3708 119.919 88.233 119.76 84.8909C119.601 81.5488 117.852 79.639 117.852 79.639C117.852 79.639 114.672 81.3897 113.081 81.5488C111.491 81.7079 110.219 81.8671 110.378 79.7982C110.696 75.0238 107.993 73.4323 107.993 73.4323C107.993 73.4323 106.88 74.8646 105.608 75.6604C102.905 77.2518 101.315 77.411 98.6119 76.4561C95.1137 75.3421 91.4566 72.1591 84.3012 72C79.213 72.1591 73.4888 74.8646 69.5136 80.7531Z"/><path fill="#FEAA00" d="M102.906 77.0928L104.496 78.366L104.973 76.2971L103.86 76.7745L102.906 77.0928ZM87.6408 72.6367L88.2769 74.5465L89.867 73.1142L87.6408 72.6367ZM107.994 73.7507L107.04 75.0239L108.63 75.1831L107.994 73.7507ZM101.792 79.3209L100.043 80.5941L101.792 81.8672V79.3209ZM96.2272 76.9337L95.7502 77.7294L96.8632 77.8886L96.2272 76.9337ZM82.7117 73.2733L82.0756 74.3873L83.5067 74.7056L82.7117 73.2733ZM84.1427 74.5465L83.6657 75.8197L84.9377 75.9788L84.1427 74.5465ZM81.1216 75.1831L82.5526 76.7745L83.8247 74.7056L81.1216 75.1831Z"/><path fill="#FEAA00" d="M86.5273 75.3423L84.7782 75.5015L85.5732 77.2521L86.5273 75.3423ZM79.531 73.91L81.1211 75.1832L81.5981 73.1143L79.531 73.91ZM104.177 81.5491L103.541 82.0265L104.177 82.5039V81.5491ZM98.4528 78.207L97.8168 78.6844L98.6118 79.1618L98.4528 78.207ZM99.8839 79.9576L100.52 79.1618L99.4068 78.8436L99.8839 79.9576ZM107.834 80.9125L107.198 81.3899L107.993 81.7082L107.834 80.9125ZM105.767 79.0027L104.972 78.207L104.495 79.4801L105.767 79.0027ZM109.106 76.2972L108.311 75.5015L107.834 76.9338L109.106 76.2972Z"/><path fill="#FEAA00" d="M100.043 80.7527L99.0889 79.9569L98.6119 81.3893L100.043 80.7527ZM103.7 80.2752L102.905 79.4795L102.428 80.9118L103.7 80.2752ZM100.043 78.6838L99.2479 77.888L98.7709 79.1612L100.043 78.6838ZM98.6119 78.0472L99.2479 76.9332L97.8168 76.774L98.6119 78.0472ZM94.4777 75.5008L93.5236 74.546L93.0466 75.9783L94.4777 75.5008ZM96.5448 76.6149L95.5907 75.8191L95.2727 77.0923L96.5448 76.6149ZM86.6863 73.4319L85.5733 72.4771L85.0963 74.0685L86.6863 73.4319ZM83.8242 74.3868L84.9372 73.2728L83.3472 72.6362L83.8242 74.3868ZM90.9795 73.9094L90.1845 73.1136L89.7075 74.546L90.9795 73.9094ZM86.2093 73.7502L87.3223 75.0234L88.2764 73.2728L86.2093 73.7502Z"/><path fill="#FEAA00" d="M85.0959 74.2281L86.05 75.6604L87.004 73.7507L85.0959 74.2281ZM86.368 75.183L86.686 76.7745L88.2761 75.6604L86.368 75.183ZM106.403 77.0928L106.244 75.6604L104.972 76.4562L106.403 77.0928ZM99.2476 77.2519L99.8836 78.8434L101.156 77.5702L99.2476 77.2519ZM96.3854 75.9787L96.8625 77.7293L98.1345 76.6153L96.3854 75.9787ZM94.3183 74.8647L94.6364 76.6153L96.0674 75.6604L94.3183 74.8647ZM80.8027 72.4775L81.9158 73.7507L82.8698 72.3184L80.8027 72.4775ZM87.481 72.6367L86.368 72.3184L86.527 73.4324L87.481 72.6367Z"/><path fill="#FEAA00" d="M83.984 72.6367L82.8709 72.3184L83.0299 73.5915L83.984 72.6367ZM81.1219 72.9549H80.0088L80.6448 74.069L81.1219 72.9549ZM102.747 85.3684L102.27 85.8458L102.906 86.1641L102.747 85.3684ZM106.086 83.4586L105.609 83.1403L105.45 83.7769L106.086 83.4586ZM104.973 80.7531L105.291 81.5489L105.768 80.9123L104.973 80.7531ZM97.3405 77.5702L97.6586 78.3659L98.1356 77.5702H97.3405ZM103.542 83.1403L103.065 83.6178L103.701 83.7769L103.542 83.1403ZM86.5281 83.2995L86.0511 83.7769L86.6871 83.9361L86.5281 83.2995ZM103.383 77.5702L102.27 78.5251L103.701 79.3208L103.383 77.5702ZM101.952 84.5727L101.316 84.2544V84.891L101.952 84.5727ZM102.429 82.9812L102.906 83.1403L102.747 82.5037L102.429 82.9812ZM98.1356 82.822L99.0896 82.9812L98.7716 81.8672L98.1356 82.822Z"/><path fill="#FEAA00" d="M102.27 78.5246L102.747 77.2515L101.157 77.4106L102.27 78.5246ZM97.4998 83.6173V84.2539L98.1358 84.0948L97.4998 83.6173ZM100.998 79.4795L101.634 78.5246L100.362 78.2063L100.998 79.4795ZM92.0936 75.3417L92.7296 74.3868L91.2985 73.9094L92.0936 75.3417ZM85.0973 73.5911L85.7333 72.6362L84.3022 72.4771L85.0973 73.5911ZM104.178 85.5271V86.1637L104.814 86.0045L104.178 85.5271ZM100.521 85.5271L99.7259 85.6862L100.203 86.1637L100.521 85.5271ZM89.0724 86.6411L88.2774 86.8003L88.7544 87.4368L89.0724 86.6411ZM98.6128 86.9594H97.9768L98.2948 87.596L98.6128 86.9594ZM106.563 79.3204L107.04 80.1161L107.517 79.1612L106.563 79.3204ZM95.7507 86.0045L96.2277 85.2088H95.2737L95.7507 86.0045ZM90.9805 73.7502L89.5494 73.9094L90.3445 75.3417L90.9805 73.7502ZM98.6128 80.2752L99.2489 79.0021H97.6588L98.6128 80.2752ZM89.0724 80.9118L87.8004 81.7076L89.0724 82.5033V80.9118ZM93.6836 82.9807L92.5706 83.6173L93.6836 84.2539V82.9807ZM89.3905 83.9356L89.7085 84.4131L90.0265 83.7765L89.3905 83.9356Z"/><path fill="#FEAA00" d="M86.6865 79.9575L86.3684 80.4349H87.0045L86.6865 79.9575ZM91.9337 84.5727L91.4567 84.4136V84.891L91.9337 84.5727ZM90.1846 82.0264L89.7076 82.8221L90.8206 82.9812L90.1846 82.0264ZM94.1598 87.9148L93.6828 87.7557L93.8418 88.3922L94.1598 87.9148ZM85.5734 76.9337L85.2554 78.5251L87.0045 77.8885L85.5734 76.9337ZM84.1423 83.2995L84.4603 84.5727L85.5734 83.6178L84.1423 83.2995ZM93.0467 74.8647L91.1386 75.8196L92.7287 77.252L93.3648 76.2971L93.0467 74.8647ZM91.4567 76.9337L90.1846 77.5702L91.2977 78.6843L91.7747 77.7294L91.4567 76.9337Z"/><path fill="#FEAA00" d="M91.6161 79.003L90.5031 78.3664L89.549 78.5255L89.8671 80.7536L91.6161 79.003ZM83.3478 83.2999L81.9167 84.0957L83.5068 84.8914L83.3478 83.2999ZM92.0932 76.1383L89.549 75.82L90.5031 77.8889L92.0932 76.1383ZM89.8671 74.706L88.913 74.3877L87.8 74.706L88.754 76.2975L89.8671 74.706ZM97.9764 78.3664L95.9093 77.8889L96.2273 80.117L97.9764 78.3664Z"/><path fill="#FEAA00" d="M98.7711 79.7987L96.7041 79.3213L97.0221 81.5493L98.7711 79.7987Z"/><path fill="#FEAA00" d="M97.6574 81.8675L96.8623 80.5943L95.9083 82.0266L97.6574 81.8675ZM88.594 78.6845L87.481 77.0931L86.5269 77.8888L86.2089 78.8437L88.594 78.6845ZM86.8449 79.9577L85.4139 79.162L85.0959 81.0717L86.8449 79.9577ZM85.2549 77.7297L84.1418 76.1382L82.8698 78.0479L85.2549 77.7297ZM94.9543 82.5041L95.5903 81.0717L93.6822 80.9126L94.9543 82.5041ZM91.6151 82.6632L93.0462 82.0266L91.9331 80.7534L91.6151 82.6632ZM105.131 78.0479L106.244 77.7297L105.29 76.7748L105.131 78.0479ZM82.5518 83.1407L83.9828 82.6632L82.8698 81.39L82.5518 83.1407Z"/><path fill="#FEAA00" d="M76.3516 82.8216L77.4646 82.3442L76.6696 81.3893L76.3516 82.8216ZM106.404 75.5009L107.199 76.2966L107.676 75.0234L106.404 75.5009ZM91.1392 81.7076L90.8212 80.2753L89.3901 81.2302L91.1392 81.7076ZM90.9802 77.0923L88.9131 76.4558L89.2311 78.6838L90.9802 77.0923ZM95.7504 77.4106L93.6833 76.9332L94.0013 79.1613L95.7504 77.4106ZM95.2734 79.7978L93.3653 79.3204L93.5243 81.5485L95.2734 79.7978ZM92.8883 79.4795L91.7752 80.1161L92.7293 81.071L92.8883 79.4795ZM88.2771 83.9357L87.8001 83.4582L87.641 84.0948L88.2771 83.9357Z"/><path fill="#FEAA00" d="M87.3224 82.0261L86.5273 81.0713L86.0503 82.5036L87.3224 82.0261ZM90.9795 80.2755L91.2975 81.0713L91.9336 80.2755H90.9795ZM93.8417 76.2969L93.6826 77.0926L94.4777 76.7743L93.8417 76.2969ZM96.0677 80.4347L95.5907 79.1615L94.4777 80.2755L96.0677 80.4347ZM90.0255 79.3207L88.7534 78.8432V80.4347L90.0255 79.3207Z"/><path fill="#FEAA00" d="M88.7535 79.48L87.4815 78.8434V80.4349L88.7535 79.48ZM85.8914 78.0477L84.7783 77.5702V79.0025L85.8914 78.0477ZM95.2728 78.8434L95.1138 78.3659L94.4777 78.8434H95.2728ZM97.0219 84.891V85.6867L97.8169 85.3684L97.0219 84.891ZM94.4777 86.005H93.8417L94.1597 86.6416L94.4777 86.005ZM95.2728 83.6178V84.2544L96.0678 83.9361L95.2728 83.6178ZM93.3647 80.594L93.5237 79.7983L92.5697 79.9574L93.3647 80.594ZM93.6827 77.5702L92.2517 77.8885L92.0926 78.5251L93.6827 79.6391V77.5702ZM93.0467 77.0928L92.5697 77.5702H93.2057L93.0467 77.0928ZM94.3187 80.594L94.0007 81.0715H94.7958L94.3187 80.594ZM91.6156 83.1404L91.2976 83.777H91.9336L91.6156 83.1404ZM96.0678 77.7294L95.7498 77.4111L95.4318 78.0477L96.0678 77.7294ZM101.315 82.6629L101.474 81.8672L100.679 82.0263L101.315 82.6629ZM99.8839 84.4135L100.043 83.777H99.2479L99.8839 84.4135ZM84.7783 86.6416L84.9374 85.8459L84.1423 86.005L84.7783 86.6416ZM99.4069 80.9123L99.5659 81.8672L100.52 81.2306L99.4069 80.9123Z"/><path fill="#FEAA00" d="M86.8461 76.7743L87.8001 77.8883L88.4362 76.2969L86.8461 76.7743ZM94.3194 78.5249L94.4784 79.3207L95.2735 78.8432L94.3194 78.5249ZM100.044 82.8219L99.7257 82.3445L99.4077 82.981L100.044 82.8219ZM83.507 87.5963L83.0299 87.1189L82.7119 87.7554L83.507 87.5963ZM94.3194 82.5036L93.6834 82.6627L94.3194 83.1402V82.5036ZM93.3654 81.867L93.2064 81.2304L92.7293 81.7079L93.3654 81.867ZM58.5429 84.2542L60.769 85.0499L60.61 82.3445L58.5429 84.2542ZM81.9169 84.5725L81.1219 84.7317L81.5989 85.3682L81.9169 84.5725ZM76.6697 79.639L74.9206 79.9572L76.1926 81.5487L76.6697 79.639ZM72.0584 84.0951L71.5814 83.4585L71.1044 84.0951H72.0584ZM78.1007 85.2091L77.6237 84.2542L76.8287 85.0499L78.1007 85.2091ZM64.9031 83.4585V85.0499L66.6522 84.4134L64.9031 83.4585ZM79.3728 76.9335V78.5249L80.9628 77.8883L79.3728 76.9335ZM82.2349 76.7743L82.0759 77.7292L83.1889 77.2518L82.2349 76.7743ZM81.9169 78.6841V79.639L82.8709 79.3207L81.9169 78.6841ZM54.8857 89.6652L53.9317 92.0524L56.1578 91.8933L54.8857 89.6652ZM53.7727 92.2116L53.2957 94.2805L55.2037 93.3256L53.7727 92.2116ZM58.2249 95.2353V96.1902L59.1789 95.8719L58.2249 95.2353ZM55.9988 95.0762V95.8719L56.9528 95.5536L55.9988 95.0762ZM70.4684 79.639L69.8324 80.9121H71.4224L70.4684 79.639ZM67.7653 84.5725L67.4473 83.9359L66.8112 84.5725H67.7653ZM67.2882 86.0048L66.6522 84.7317L65.6982 85.8457L67.2882 86.0048ZM78.2597 80.5938L77.6237 82.0262H79.3728L78.2597 80.5938ZM74.6026 84.4134V85.2091L75.3976 84.8908L74.6026 84.4134Z"/><path fill="#FEAA00" d="M62.3592 91.2571V91.8937L63.1542 91.7345L62.3592 91.2571ZM61.7231 95.3949L60.9281 95.2358L61.0871 96.0315L61.7231 95.3949ZM57.589 92.212L57.4299 93.9626L59.02 93.326L57.589 92.212ZM55.2039 92.212V93.9626L56.7939 93.326L55.2039 92.212ZM56.9529 97.3047L56.7939 98.1004L57.748 97.7821L56.9529 97.3047ZM83.03 78.0479L82.871 80.1168L85.2561 79.3211L83.03 78.0479ZM79.5319 80.276L81.281 80.9126L81.122 78.6845L79.5319 80.276ZM76.9878 77.2522L78.5778 77.8888L78.4188 75.979L76.9878 77.2522ZM82.076 77.4113L80.8039 77.5705L81.599 78.8436L82.076 77.4113ZM60.1331 94.5992H60.7691L60.6101 93.9626L60.1331 94.5992ZM60.7691 90.9388V91.4162L61.2461 91.098L60.7691 90.9388ZM67.6064 92.212L67.1294 92.5303L67.6064 92.8486V92.212ZM60.4511 98.1004L59.9741 98.4187L60.4511 98.737V98.1004ZM57.907 99.851L57.589 100.169L58.066 100.488L57.907 99.851ZM64.2672 91.7345L64.4263 92.212L64.9033 91.7345H64.2672ZM61.4051 92.6894L61.7231 93.4852L62.3592 92.6894H61.4051ZM68.4014 91.4162L68.0834 91.5754L68.5604 91.8937L68.4014 91.4162ZM81.281 81.7083L80.6449 81.0717L80.3269 82.0266L81.281 81.7083ZM107.517 78.2071L108.312 78.8436L108.471 77.8888L107.517 78.2071ZM112.446 82.0266L113.4 83.4589L114.354 81.8674L113.241 82.0266H112.446ZM117.853 79.9577L116.58 80.9126L118.011 81.5491L117.853 79.9577ZM112.128 86.6418L111.333 86.801L111.969 87.4376L112.128 86.6418ZM115.944 86.801L115.149 87.1193L115.785 87.7559L115.944 86.801ZM114.513 84.5729L113.877 83.4589L113.082 84.7321L114.513 84.5729ZM118.33 82.8223L117.694 81.8674L116.898 82.9815L118.33 82.8223ZM112.128 85.2095L111.492 84.2546L110.697 85.3687L112.128 85.2095ZM110.538 82.504L109.902 81.39L109.266 82.6632L110.538 82.504ZM115.785 82.504V81.0717L114.354 81.7083L115.785 82.504ZM113.4 88.8699L113.082 88.3925L112.764 89.029L113.4 88.8699ZM113.241 86.0053V86.801L114.036 86.3235L113.241 86.0053ZM111.174 87.915L110.538 88.2333L111.174 88.7107V87.915ZM112.128 82.0266L110.538 82.1857L111.333 83.6181L112.128 82.0266Z"/><path fill="#FEAA00" d="M110.061 87.4375L110.538 87.7558V87.1192L110.061 87.4375ZM109.902 83.9363L110.379 84.2546V83.4588L109.902 83.9363ZM114.99 85.0503L115.308 86.0052L115.944 85.0503H114.99ZM114.036 83.4588L115.149 83.2997L114.513 82.1857L114.036 83.4588ZM115.785 81.2308L116.421 82.1857L117.216 81.2308H115.785ZM116.262 84.2546L116.898 85.0503L117.375 84.0954L116.262 84.2546ZM68.56 80.5942L68.719 82.0265L70.3091 81.2308L68.56 80.5942ZM58.8606 88.5515L59.3376 89.3473L59.8146 88.5515H58.8606ZM57.2705 87.4375L57.9065 88.7107L58.8606 87.2784L57.2705 87.4375ZM57.7475 85.2094L58.8606 86.3235L59.3376 84.5729L57.7475 85.2094ZM75.2383 77.4113L74.9202 78.0478L75.7153 78.207L75.2383 77.4113ZM74.2842 77.093L73.9662 77.8887H74.7613L74.2842 77.093ZM82.7116 80.435L81.1215 80.1168L81.5985 81.8674L82.7116 80.435ZM81.5985 82.504L80.3265 82.1857L80.6445 83.7771L81.5985 82.504ZM97.6582 82.6631L96.2272 82.3448L96.7042 83.9363L97.6582 82.6631ZM75.2383 77.093L76.0333 75.9789L74.2842 75.6606L75.2383 77.093Z"/><path fill="#FEAA00" d="M75.3971 78.843L74.443 77.7289L73.807 79.3204L75.3971 78.843ZM74.443 77.4106L73.966 75.9783L72.694 77.0923L74.443 77.4106ZM73.171 79.0021L73.966 77.7289L72.376 77.4106L73.171 79.0021ZM78.4182 76.9332L79.2132 77.0923L79.0543 76.1375L78.4182 76.9332ZM76.9872 77.0923L75.7151 76.6149L75.8741 78.0472L76.9872 77.0923ZM75.5561 75.0234L75.7151 75.9783L76.6692 75.5009L75.5561 75.0234ZM81.2803 75.1826L79.3723 75.9783L80.9623 77.5698L81.2803 75.1826ZM56.9523 96.0308V96.6674L57.7473 96.5083L56.9523 96.0308ZM58.8604 88.3918H58.2243L58.5423 89.0284L58.8604 88.3918ZM55.0442 98.0997L54.4082 98.2589L54.8852 98.7363L55.0442 98.0997ZM55.9983 97.304L55.8392 96.6674L55.3622 97.304H55.9983ZM55.9983 90.779L57.4293 91.7339L57.7473 89.8241L55.9983 90.779ZM61.7225 87.9143L62.3585 88.0735V87.2778L61.7225 87.9143ZM57.4293 85.5271L56.6343 86.8003L58.3834 87.1186L57.4293 85.5271ZM59.4964 91.5747L59.3374 92.6887L60.6094 92.2113L59.4964 91.5747ZM60.9275 85.6863L59.6554 85.5271L59.9734 86.9595L60.9275 85.6863ZM62.9945 89.0284L61.5635 89.1875L62.3585 90.4607L62.9945 89.0284ZM61.0865 87.1186L59.6554 87.2778L60.6094 88.5509L61.0865 87.1186ZM64.4256 83.6174L63.1536 83.7765L63.9486 85.0497L64.4256 83.6174ZM55.0442 89.1875L57.2703 89.5058L56.4753 86.9595L55.0442 89.1875ZM53.2951 94.5985L52.8181 96.5083L55.2032 96.0308L53.2951 94.5985ZM59.9734 93.1662L59.0194 93.4845L59.8144 94.4394L59.9734 93.1662ZM55.9983 94.2802L57.1113 94.5985L56.9523 93.3253L55.9983 94.2802ZM57.9063 97.304V97.9406L58.5423 97.6223L57.9063 97.304ZM55.9983 98.7363L55.5212 98.8955L55.8392 99.3729L55.9983 98.7363ZM69.8319 83.9357L69.0368 84.5723L69.9909 85.0497L69.8319 83.9357ZM68.5598 82.1851L67.7648 82.6625L68.7188 83.2991L68.5598 82.1851ZM65.3797 81.7076L64.1076 82.6625L65.6977 83.4582L65.3797 81.7076Z"/><path fill="#FEAA00" d="M70.7864 81.3899L70.1504 81.8673L70.7864 82.3448V81.3899ZM67.4473 84.2545L66.8112 84.732L67.6063 85.2094L67.4473 84.2545ZM69.1963 83.9362L69.6733 84.4137L69.9914 83.7771L69.1963 83.9362ZM58.2249 89.8247L58.7019 90.9387L59.6559 89.9838L58.2249 89.8247ZM63.1541 87.1192L63.4721 87.5966L63.7901 86.96L63.1541 87.1192ZM74.6026 81.3899L74.9206 81.8673L75.2386 81.2307L74.6026 81.3899ZM72.3765 81.7082L72.6945 82.0265L73.0125 81.549L72.3765 81.7082ZM71.7404 80.435L72.3765 81.0716L72.8535 80.1167L71.7404 80.435ZM63.4721 85.3685L63.7901 85.846L64.1081 85.2094L63.4721 85.3685ZM68.4013 83.4588L67.7653 83.9362L68.5603 84.4137L68.4013 83.4588ZM67.1292 83.4588L67.6063 82.5039H66.3342L67.1292 83.4588ZM66.0162 81.8673L66.4932 80.435H64.7441L66.0162 81.8673ZM69.8324 83.1405L69.3553 82.8222L69.1963 83.4588L69.8324 83.1405ZM68.0833 85.0503L67.6063 85.3685L68.2423 85.6868L68.0833 85.0503ZM65.6982 84.5728L65.2212 84.0954L65.0622 84.8911L65.6982 84.5728ZM55.5217 100.328L55.9988 99.8509L55.3627 99.5326L55.5217 100.328ZM53.4546 103.193L53.7727 102.875L53.2957 102.556L53.4546 103.193ZM53.9317 100.965L54.4087 100.488L53.7727 100.328L53.9317 100.965ZM53.4546 104.307L53.9317 104.784L54.0907 103.989L53.4546 104.307ZM54.2497 102.556L55.0447 102.238L54.2497 101.761V102.556Z"/><path fill="#FEAA00" d="M55.9983 101.919L56.6343 101.601L55.9983 101.124V101.919ZM52.9771 97.3041L53.7721 98.0999L54.2492 96.9858L52.9771 97.3041ZM53.6132 98.259L52.8181 99.5322L54.7262 99.6913L53.6132 98.259ZM52.8181 100.169V101.601L53.9312 100.964L52.8181 100.169ZM53.4541 103.352L53.1361 103.829L53.7721 103.988L53.4541 103.352ZM61.7225 85.8456L62.6766 86.6413L63.1536 85.209L61.7225 85.8456Z"/><path fill="#FEAA00" d="M61.8811 81.7077L61.2451 83.14L62.8352 83.2991L61.8811 81.7077ZM62.9942 84.7314L62.6762 85.2089L63.4712 85.368L62.9942 84.7314ZM61.8811 83.9357L61.4041 84.8906L62.6762 85.0497L61.8811 83.9357ZM67.4464 86.482L66.3333 86.1638L66.6513 87.4369L67.4464 86.482ZM62.1991 86.482L61.2451 86.3229L61.4041 87.4369L62.1991 86.482ZM79.6899 79.4796L78.4178 79.1613L78.7359 80.5936L79.6899 79.4796ZM77.4638 79.0022L78.2588 79.3205V78.3656L77.4638 79.0022ZM77.9408 73.5912L79.3719 74.8644L79.8489 72.9546L77.9408 73.5912ZM76.0327 78.2064L75.8737 79.6387L77.3048 79.1613L76.0327 78.2064ZM76.0327 74.7052L77.3048 75.8192L77.9408 74.0686L76.0327 74.7052ZM70.9445 79.3205L72.5346 79.6387L72.0576 77.8881L70.9445 79.3205ZM77.7818 80.1162L76.9868 79.957L77.1458 80.7528L77.7818 80.1162Z"/><path fill="#FEAA00" d="M76.1915 83.9355L75.7145 83.7764L75.8735 84.5721L76.1915 83.9355ZM65.061 86.4819L64.584 86.3227L64.743 87.1184L65.061 86.4819ZM66.8101 80.4343L67.4461 81.7074L68.4002 80.4343H66.8101ZM77.6226 74.705L78.7356 75.6599L79.2126 74.2275L77.6226 74.705ZM62.3579 81.3892L63.789 82.6623L64.425 80.5934L62.3579 81.3892ZM68.0821 88.3916L68.5592 89.0282L68.8772 88.0733L68.0821 88.3916ZM78.7356 83.2989L79.3717 83.7764L79.6897 83.1398L78.7356 83.2989ZM72.8524 80.5934L73.3294 81.5483L74.1244 80.7526L72.8524 80.5934ZM74.4424 79.3202L73.8064 80.116L74.9195 80.2751L74.4424 79.3202ZM72.6934 78.8428L73.1704 79.7977L73.9654 78.8428H72.6934ZM71.2623 79.7977L71.7393 80.7526L72.5344 79.9568L71.2623 79.7977ZM71.7393 82.5032L71.1033 82.344L71.2623 82.9806L71.7393 82.5032ZM74.2834 83.2989L73.6474 83.1398L73.8064 83.9355L74.2834 83.2989ZM68.8772 89.0282L69.3542 89.5056L69.6722 88.7099L68.8772 89.0282ZM68.7182 86.8001L68.5592 87.2776L69.1952 87.4367L68.7182 86.8001ZM65.697 85.8453L65.379 85.2087L64.743 85.8453H65.697Z"/><path fill="#FEAA00" d="M66.4931 89.5061V90.3019L67.2881 89.9836L66.4931 89.5061ZM65.062 86.0049L64.426 86.6415L65.2211 87.1189L65.062 86.0049Z"/><path fill="#FEAA00" d="M64.5848 86.0047L64.9028 86.4821L65.2208 85.8456L64.5848 86.0047ZM61.0866 88.7102L60.1326 89.3468L61.4046 89.8242L61.0866 88.7102ZM63.4717 89.3468L64.1077 89.8242L64.2668 89.0285L63.4717 89.3468ZM66.8109 87.5962L67.4469 88.0736L67.6059 87.2779L66.8109 87.5962ZM64.1077 91.0974L64.5848 91.5748L64.9028 90.7791L64.1077 91.0974ZM64.9028 87.437L64.5848 87.9145H65.3798L64.9028 87.437ZM85.2556 80.912L83.8246 80.4346L84.1426 82.1852L85.2556 80.912ZM74.6022 81.8669L73.9662 81.7077L74.1252 82.5035L74.6022 81.8669ZM66.3338 89.5059L65.6978 89.3468L65.8568 90.1425L66.3338 89.5059Z"/><path fill="#AF2500" d="M85.8903 98.1003L86.5263 97.3046L85.4132 97.1454L85.8903 98.1003ZM97.6568 100.965L98.4518 99.8509L97.0207 99.5326L97.6568 100.965ZM100.678 100.965L99.2468 99.0552L97.8158 100.965H100.678ZM95.2717 100.806L97.1797 100.965L96.7027 99.0552L95.2717 100.806ZM83.8232 96.5088L84.4592 96.1905L83.8232 95.7131V96.5088ZM82.3921 94.7582L81.9151 95.3948L82.8691 95.7131L82.3921 94.7582ZM78.5759 94.5991L79.371 95.2356L79.689 94.2808L78.5759 94.5991ZM82.2331 96.1905L83.0281 97.1454L83.6641 95.7131L82.2331 96.1905Z"/><path fill="#AF2500" d="M83.665 96.6682L82.711 97.623L84.142 98.2596L83.665 96.6682ZM95.5905 100.806L95.1135 99.2145L93.5234 100.647L95.5905 100.806ZM86.0501 98.8962L85.7321 97.1456L84.301 98.2596L86.0501 98.8962ZM89.3893 99.6919L88.7532 98.1005L87.4812 99.3737L89.3893 99.6919ZM78.8948 93.1669L79.3718 92.8486L78.8948 92.3712V93.1669ZM84.9371 97.3047L84.619 96.509L83.983 97.1456L84.9371 97.3047ZM96.0676 92.6895L96.7036 92.3712L96.0676 92.0529V92.6895ZM81.9159 92.5303L82.3929 93.0078L82.5519 92.3712L81.9159 92.5303ZM83.824 93.6444L83.029 93.4852L83.188 94.4401L83.824 93.6444ZM85.7321 93.6444V93.0078L85.0961 93.1669L85.7321 93.6444ZM80.3259 91.4163H80.9619L80.6439 90.7797L80.3259 91.4163ZM92.7284 92.212L93.3644 92.0529L93.0464 91.4163L92.7284 92.212ZM86.0501 91.2572H86.6861L86.3681 90.4614L86.0501 91.2572ZM87.3222 92.0529L86.8451 92.6895L87.6402 92.8486L87.3222 92.0529ZM90.9793 100.169L92.4104 100.488L92.0924 98.8962L90.9793 100.169ZM83.824 94.4401L83.029 95.7133L84.619 95.8724L83.824 94.4401ZM92.4104 94.1218L92.2514 93.6444L91.7744 94.1218H92.4104ZM95.4315 96.6682L96.2266 95.8724L95.1135 95.5541L95.4315 96.6682ZM91.4564 92.8486L91.7744 93.1669L91.9334 92.6895L91.4564 92.8486ZM90.1843 91.4163L90.5023 91.5755V90.9389L90.1843 91.4163ZM96.5446 99.2145L96.8626 97.623L95.1135 98.1005L96.5446 99.2145ZM89.3893 99.8511L90.9793 100.01L90.6613 98.2596L89.7073 98.5779L89.3893 99.8511Z"/><path fill="#AF2500" d="M90.6615 98.5776L91.9336 98.1002L90.9795 96.9862L90.3435 97.7819L90.6615 98.5776ZM92.2516 100.01L93.2056 100.487L94.1597 100.328L93.5236 98.5776L92.2516 100.01ZM93.5236 97.1453L94.6367 98.8959L95.5907 98.2593L96.0677 97.1453H93.5236ZM96.3858 95.713L97.4988 96.3496L97.8168 94.9173L96.3858 95.713ZM96.8628 98.4185L97.8168 100.169L99.2479 98.4185H96.8628ZM87.1633 97.6227L86.0503 98.8959L87.7994 99.3734L87.1633 97.6227ZM89.2304 95.8721L87.6404 96.3496L88.7534 97.7819L89.2304 95.8721ZM99.8839 93.8032L98.9299 94.1215L99.5659 94.9173L99.8839 93.8032Z"/><path fill="#AF2500" d="M106.244 94.2808L105.131 94.5991L105.767 95.5539L106.244 94.2808ZM91.1385 98.5777L93.0466 99.2143V96.9863L91.1385 98.5777ZM80.644 96.5088L82.2341 97.3045L82.0751 95.8722L80.644 96.5088ZM89.5484 96.0314L90.8205 95.5539L89.8665 94.4399L89.5484 96.0314ZM93.3646 94.5991L93.8416 95.0765L94.1597 94.4399L93.3646 94.5991ZM91.4565 95.2356L91.2975 94.5991L90.6615 95.2356H91.4565ZM88.2764 99.0552V98.2594L87.4814 98.4186L88.2764 99.0552ZM85.2552 95.5539L85.5733 96.8271L86.6863 95.8722L85.2552 95.5539Z"/><path fill="#AF2500" d="M91.1385 96.3498L92.2516 97.1455L92.4106 95.554L91.1385 96.3498ZM92.8876 96.3498L94.0007 96.9864L94.1597 95.3949L92.8876 96.3498ZM96.2268 97.9412L97.3398 98.737L97.4988 97.1455L96.2268 97.9412ZM87.0044 96.1906L87.1634 96.8272L87.6404 96.3498L87.0044 96.1906ZM89.2305 94.7583L88.9125 95.554L89.7075 95.3949L89.2305 94.7583ZM89.2305 98.1004L90.6615 97.9412L90.9796 97.3047L89.3895 96.0315L89.2305 98.1004Z"/><path fill="#AF2500" d="M89.0705 98.2589L89.5475 97.9406L89.0705 97.7814V98.2589ZM88.1165 94.5985L88.4345 94.1211H87.7985L88.1165 94.5985ZM89.8656 93.007L90.1836 92.5296L89.7065 92.3704L89.8656 93.007ZM86.0494 97.304L86.3674 97.7814L86.8444 97.1448L86.0494 97.304ZM81.1202 94.4393L80.9612 95.2351L81.7562 95.0759L81.1202 94.4393ZM85.2543 95.2351V94.2802L84.3003 94.7576L85.2543 95.2351ZM95.2718 99.2138L94.3177 97.9406L93.5227 99.5321L95.2718 99.2138ZM87.7985 96.6674V95.8717L87.0034 96.3491L87.7985 96.6674ZM80.4841 93.1662L80.8021 93.8028L81.1202 93.007L80.4841 93.1662ZM98.6109 92.3704L98.9289 93.007L99.247 92.3704H98.6109ZM88.2755 92.8479L88.9115 92.6887L88.4345 92.0521L88.2755 92.8479ZM89.2295 93.4845L89.3885 94.1211L89.8656 93.6436L89.2295 93.4845ZM80.4841 112.105L78.258 112.582L79.6891 114.651L80.4841 112.105ZM96.7028 94.4393H97.4979L97.0209 93.6436L96.7028 94.4393ZM105.766 97.6223L107.356 97.4631L106.402 96.0308L105.766 97.6223ZM110.377 91.5747L110.695 92.3704L111.172 91.7339L110.377 91.5747ZM104.971 92.2113L105.13 92.8479L105.607 92.3704L104.971 92.2113ZM75.3959 116.083L74.6009 114.492L73.3288 115.924L75.3959 116.083ZM102.586 99.8503L102.904 98.2589L101.155 98.7363L102.586 99.8503ZM99.724 99.6912L99.883 98.8955L98.9289 99.0546L99.724 99.6912ZM100.201 97.7814L100.519 96.8266L99.406 97.1448L100.201 97.7814ZM81.2792 105.58L80.8021 103.033L78.8941 104.306L81.2792 105.58ZM80.6432 102.874L80.0071 100.805L78.8941 102.556L80.6432 102.874ZM75.3959 102.238L74.9189 101.442L74.2829 102.238H75.3959ZM77.463 101.442L76.986 100.646L76.35 101.442H77.463ZM71.7388 117.038L71.5798 115.606L70.1487 116.402L71.7388 117.038ZM72.3748 116.242L73.0108 116.72L73.1698 115.765L72.3748 116.242ZM72.2158 114.969L73.1698 115.606L73.4878 114.174L72.2158 114.969ZM104.176 96.19L104.653 95.2351H103.381L104.176 96.19ZM108.151 93.007L108.31 92.2113L107.515 92.3704L108.151 93.007ZM73.8058 107.967L73.4878 107.171L72.8518 107.808L73.8058 107.967ZM72.3748 103.988L73.0108 103.67L72.5338 103.033L72.3748 103.988Z"/><path fill="#AF2500" d="M77.4634 104.785L76.6684 103.193L75.5554 104.466L77.4634 104.785ZM79.5305 103.511L78.7355 101.92L77.6224 103.352L79.5305 103.511ZM75.5554 99.851L75.2373 99.2144L74.6013 99.851H75.5554ZM99.0883 98.2595L99.5654 96.1906L97.1803 96.8272L99.0883 98.2595ZM102.905 96.5089L101.155 95.7132V97.9412L102.905 96.5089ZM104.972 99.6918L103.541 99.0552V100.806L104.972 99.6918ZM113.081 97.9412L111.65 97.1455L111.332 98.8961L113.081 97.9412ZM100.042 99.2144H101.314L100.678 97.7821L100.042 99.2144ZM73.9653 103.83L73.4883 104.148L73.9653 104.625V103.83ZM75.3963 107.331L75.0783 107.013L74.9193 107.49L75.3963 107.331ZM68.7181 109.559L69.0361 109.081H68.4001L68.7181 109.559ZM72.0572 100.965L72.3752 100.488H71.7392L72.0572 100.965ZM73.3293 98.2595L73.6473 97.7821L73.0112 97.6229L73.3293 98.2595ZM71.8982 108.445L71.4212 107.967L71.2622 108.763L71.8982 108.445ZM73.9653 106.217L73.3293 105.739L73.0112 106.694L73.9653 106.217ZM68.4001 110.832L68.7181 110.355H68.082L68.4001 110.832ZM101.314 94.9174L101.95 95.554L102.268 94.5991L101.314 94.9174ZM74.2833 119.108L73.6473 117.675L72.5342 118.949L74.2833 119.108ZM78.0995 108.445L77.3044 107.967L77.1454 109.081L78.0995 108.445ZM80.1666 108.763L78.8945 107.967L78.7355 109.559L80.1666 108.763ZM80.6436 110.991L79.2125 110.514L79.5305 112.264L80.6436 110.991ZM106.721 99.851L107.198 99.2144L106.403 99.0552L106.721 99.851ZM107.675 100.169L108.629 99.851L107.357 99.3735L107.675 100.169ZM99.5654 96.3497L100.678 96.668L100.519 95.3949L99.5654 96.3497Z"/><path fill="#AF2500" d="M101.155 94.1214L102.11 94.4397L101.95 93.3257L101.155 94.1214ZM85.5728 94.2805L86.8448 94.758L86.6858 93.1665L85.5728 94.2805ZM106.721 98.2592L107.675 99.5324L108.47 98.1L106.721 98.2592Z"/><path fill="#AF2500" d="M108.311 97.4639L107.357 98.7371L108.947 99.0554L108.311 97.4639ZM103.7 100.01L102.746 99.692L102.905 100.647L103.7 100.01ZM104.972 100.647L106.88 100.329L106.244 99.0554L104.972 100.647ZM100.838 100.965H102.746L101.156 99.0554L100.838 100.965ZM76.1919 100.965L75.8739 100.329L75.2378 100.965H76.1919ZM78.259 108.604L78.736 108.286L78.259 107.808V108.604ZM76.8279 98.4188L77.3049 97.9414L76.5099 97.7822L76.8279 98.4188ZM76.3509 99.5328L76.8279 99.8511L76.9869 99.2145L76.3509 99.5328ZM79.531 105.262L77.941 104.944L78.577 106.854L79.531 105.262ZM76.0329 110.514L75.2378 110.673L75.7149 111.31L76.0329 110.514ZM80.8031 110.514L80.9621 108.922L79.213 109.559L80.8031 110.514ZM76.1919 106.217L75.7149 105.103L74.7608 106.058L76.1919 106.217ZM77.782 112.105L78.895 111.628L77.941 110.514L77.782 112.105ZM74.2838 110.037L75.3969 109.241L74.1248 108.445L74.2838 110.037ZM76.9869 110.832L77.941 110.037L76.6689 109.4L76.9869 110.832ZM75.5559 115.607L76.6689 114.811L75.3969 114.015L75.5559 115.607ZM81.2801 106.058L79.054 107.013L81.1211 108.763L81.2801 106.058ZM79.8491 100.647L79.054 98.7371L77.464 100.488L79.8491 100.647ZM74.7608 105.103L75.5559 104.307L74.4428 103.83L74.7608 105.103ZM77.782 102.079L76.6689 102.397L77.6229 103.511L77.782 102.079ZM74.7608 100.488L74.2838 99.8511L73.9658 100.488H74.7608ZM75.5559 98.2597L76.0329 97.7822L75.3969 97.6231L75.5559 98.2597ZM69.1956 115.607L69.6726 114.652H68.5596L69.1956 115.607ZM72.8527 118.79L73.1708 117.994H72.2167L72.8527 118.79ZM75.7149 117.676L76.5099 116.243H74.6018L75.7149 117.676ZM70.3087 116.084L70.6267 115.288H69.8316L70.3087 116.084ZM72.6938 116.402L73.0118 115.766H72.2167L72.6938 116.402ZM73.3298 113.379L72.6938 113.06L72.8527 113.856L73.3298 113.379ZM78.1 107.013L76.9869 106.217L76.6689 107.649L78.1 107.013ZM75.0789 111.946L74.6018 111.628V112.265L75.0789 111.946ZM107.834 95.8725L107.516 95.395L107.198 95.8725H107.834ZM110.06 95.8725L109.742 95.395L109.424 95.8725H110.06ZM110.537 97.1456L110.06 96.509L109.424 97.3048L110.537 97.1456ZM75.7149 113.538L75.0789 113.379V114.015L75.7149 113.538ZM72.2167 117.676L72.5347 116.88H71.7397L72.2167 117.676ZM73.3298 117.039L73.4888 118.153L74.6018 117.516L73.3298 117.039Z"/><path fill="#AF2500" d="M75.3956 117.357L75.7136 118.789L77.1447 117.834L75.3956 117.357ZM71.7385 117.994H72.3745L72.2155 117.357L71.7385 117.994ZM71.7385 116.084L72.0565 115.606H71.2615L71.7385 116.084ZM74.1236 115.447H74.7596L74.4416 114.811L74.1236 115.447ZM75.2366 96.5088L75.0776 97.3045L75.8727 97.1453L75.2366 96.5088ZM77.4627 94.599L77.3037 95.2356L77.9397 95.0764L77.4627 94.599ZM76.5087 96.3496L76.3497 96.9862L76.9857 96.827L76.5087 96.3496ZM76.0317 94.1216L75.3956 93.9624L75.5547 94.599L76.0317 94.1216ZM76.5087 95.2356L76.1907 95.8722H76.9857L76.5087 95.2356ZM78.5758 100.965L78.2577 101.442L79.0528 101.601L78.5758 100.965ZM78.7348 98.2594L77.7807 97.9411L77.9397 99.2142L78.7348 98.2594ZM78.5758 98.1002L78.0987 96.5088L76.6677 97.6228L78.5758 98.1002Z"/><path fill="#AF2500" d="M78.099 96.509V95.395L77.1449 95.8725L78.099 96.509ZM76.9859 112.265L75.7139 112.105L76.0319 113.538L76.9859 112.265Z"/><path fill="#AF2500" d="M78.8954 115.924L78.7364 114.333L77.1463 115.129L78.8954 115.924ZM76.3513 113.855V113.219L75.7153 113.537L76.3513 113.855ZM77.7823 114.015V112.741L76.5103 113.378L77.7823 114.015ZM71.5811 114.651L72.8531 114.333L71.8991 113.378L71.5811 114.651ZM76.1923 111.946L77.3053 111.627L76.3513 110.673L76.1923 111.946ZM102.587 97.3042L103.859 97.7817L103.7 96.3493L102.587 97.3042ZM105.132 98.5774L104.177 98.1V99.214L105.132 98.5774ZM105.927 99.0548L106.404 97.6225L104.654 97.9408L105.927 99.0548ZM111.174 99.0548L109.743 97.9408V99.5323L111.174 99.0548ZM104.654 96.8268L105.291 97.1451L105.132 96.1902L104.654 96.8268ZM106.404 93.1664L107.04 93.3256V92.689L106.404 93.1664ZM73.6482 113.378L74.2842 113.219L73.8072 112.741L73.6482 113.378ZM75.7153 118.789L74.7612 117.675L74.1252 119.107L75.7153 118.789ZM78.7364 116.243L76.8283 115.606L76.9873 117.675L78.7364 116.243ZM70.15 113.06L69.355 112.901L69.673 113.696L70.15 113.06ZM103.859 93.4847L103.382 93.0073L103.064 93.6438L103.859 93.4847ZM113.4 97.7817V96.031L111.651 96.9859L113.4 97.7817ZM111.015 95.8719L112.446 96.3493V94.917L111.015 95.8719Z"/><path fill="#AF2500" d="M111.173 94.2807L110.218 94.7581L111.173 95.5538V94.2807ZM112.763 96.5087L114.035 96.9862L113.876 95.3947L112.763 96.5087ZM113.876 90.6203L114.353 91.0977L114.512 90.302L113.876 90.6203ZM112.922 94.2807L113.717 93.9624L113.081 93.3258L112.922 94.2807ZM118.805 89.3471L119.123 89.8246L119.6 89.188L118.805 89.3471ZM115.148 94.4398L114.989 93.4849L114.194 93.9624L115.148 94.4398ZM118.328 92.3709L118.805 91.2569H117.533L118.328 92.3709ZM114.512 96.6679L115.943 95.2356L113.717 94.4398L114.512 96.6679ZM117.533 93.4849L115.625 93.1667L116.102 95.2356L117.533 93.4849ZM117.056 92.5301L117.692 93.0075L117.851 92.0526L117.056 92.5301ZM113.876 93.0075L114.989 93.1667L114.512 91.8935L113.876 93.0075ZM116.102 91.416L117.056 91.5752L116.579 90.4612L116.102 91.416ZM119.282 90.4612L118.646 89.9837L118.487 90.7795L119.282 90.4612ZM109.423 96.827L109.264 95.8721L108.31 96.6679L109.423 96.827ZM107.833 98.1002L108.469 97.3045L107.356 96.9862L107.833 98.1002ZM109.423 98.7368L109.105 97.7819L108.31 98.4185L109.423 98.7368ZM110.854 97.7819L110.695 96.827L109.741 97.6228L110.854 97.7819ZM111.332 93.1667L111.968 93.4849V92.6892L111.332 93.1667ZM108.469 94.1215L108.946 94.2807V93.4849L108.469 94.1215ZM69.1947 112.901L68.3997 112.742L68.5587 113.537L69.1947 112.901ZM70.3077 114.97V114.333L69.6717 114.651L70.3077 114.97ZM73.4879 114.333L74.1239 114.651L74.2829 113.856L73.4879 114.333ZM71.1028 111.309L70.6257 110.673L70.1487 111.469L71.1028 111.309ZM75.396 113.537L75.714 112.742L74.7599 112.583L75.396 113.537ZM74.4419 113.537L73.8059 113.219L73.9649 114.015L74.4419 113.537ZM76.191 109.4L76.509 108.445L75.396 108.604L76.191 109.4ZM73.8059 110.036L73.0108 109.877L73.1699 110.832L73.8059 110.036ZM71.5798 113.219L70.7848 113.06L71.1028 113.856L71.5798 113.219ZM72.3748 108.922L71.5798 108.763L71.7388 109.559L72.3748 108.922ZM73.4879 112.423L73.3289 111.946L72.6928 112.264L73.4879 112.423ZM79.0531 95.713L80.4842 96.3496L80.3252 95.2356L79.0531 95.713ZM107.992 95.3947L108.469 95.5538V94.9173L107.992 95.3947ZM71.2618 111.309L71.7388 111.15L71.2618 110.514V111.309Z"/><path fill="#fff" d="M110.378 126.27C107.516 126.27 105.131 122.291 105.131 117.835C105.131 113.379 107.516 109.4 110.378 109.4C110.855 109.4 111.491 109.559 111.968 109.718V107.968C111.491 107.809 111.014 107.649 110.537 107.649C106.721 107.649 103.7 112.265 103.7 117.835C103.7 123.405 106.721 128.02 110.537 128.02H111.173L111.332 126.429C110.855 126.11 110.537 126.27 110.378 126.27Z"/><path fill="#CCC" d="M117.216 117.675C117.216 112.901 114.99 108.763 111.809 107.808V109.559C113.877 110.673 115.467 113.856 115.467 117.675C115.467 121.813 113.559 125.314 111.014 125.951L110.855 127.542C114.513 127.224 117.216 122.927 117.216 117.675Z"/><path fill="#EA9D7D" d="M119.601 323.77C131.049 327.749 145.519 324.725 167.78 319.314C189.882 313.903 234.722 300.217 234.722 300.217C234.722 300.217 244.898 300.217 255.551 294.01C266.205 287.803 266.682 286.053 268.113 284.939C269.544 283.825 267.159 282.392 267.159 282.392C267.159 282.392 270.498 280.642 270.18 278.573C269.862 276.504 267.954 276.504 267.954 276.504C267.954 276.504 268.431 273.957 267.795 272.843C267.159 271.729 262.071 272.366 258.891 273.639C255.71 274.912 246.965 275.549 245.375 275.708C243.785 276.026 248.396 273.321 250.622 271.889C252.848 270.297 254.597 266.318 249.986 268.069C245.375 269.979 239.81 271.57 238.697 272.207C237.425 272.843 234.722 274.753 232.654 276.186L230.746 277.618C230.746 277.618 229.315 278.891 224.227 279.05C219.139 279.209 167.144 279.368 159.352 278.891C149.335 278.095 109.742 320.269 119.601 323.77Z"/><path fill="#CC7A5E" d="M233.449 300.535C233.449 300.854 233.29 301.013 232.972 301.172C232.336 301.331 170.323 319.315 149.811 324.089C131.685 328.386 120.713 325.362 114.353 322.339C110.219 320.27 107.834 318.678 107.675 318.36C107.357 318.042 107.516 317.723 107.834 317.405C108.152 317.087 108.47 317.246 108.788 317.564C108.788 317.564 111.968 319.951 118.169 322.498C128.663 326.476 141.066 325.044 149.493 322.975C170.005 318.042 232.018 300.217 232.654 299.899C232.972 299.74 233.449 300.058 233.449 300.376C233.608 300.376 233.608 300.376 233.449 300.535Z"/><path fill="#FCAA02" d="M113.002 200.67C113.002 200.67 138.681 241.332 148.699 255.178C157.603 267.432 161.737 272.048 169.051 273.162C174.935 273.957 195.288 274.117 202.92 274.117C205.305 274.117 205.464 273.957 205.623 275.549L209.598 316.291C209.757 317.882 209.28 317.882 207.213 318.359C197.832 320.906 166.507 328.704 143.769 326.635C117.851 324.407 107.834 318.678 98.6115 301.012C85.7319 277.14 113.002 200.67 113.002 200.67Z"/><path fill="url(#paint3_linear_834_10490)" d="M180.5 273.798L190.358 322.338C190.358 322.338 154.423 329.181 137.727 325.998C125.96 323.77 103.54 321.065 103.699 304.513C104.017 270.933 109.63 194.272 109.63 194.272C109.63 194.272 149.652 261.544 160.783 269.979C168.415 275.867 180.5 273.798 180.5 273.798Z"/><path fill="#FCAA02" d="M10.2036 334.592L35.3267 191.36C39.7789 174.013 39.2542 159.976 60.5611 160.294C88.4509 160.963 116.42 192.474 127.074 232.897C135.024 263.135 142.974 334.433 142.974 334.433L10.2036 334.592Z"/><path fill="url(#paint4_linear_834_10490)" d="M10.2036 334.592L35.3267 191.36C39.7789 174.013 30.954 158.385 62.9144 160.294C86.4474 160.772 115.943 191.36 126.597 231.783C134.547 262.021 142.974 334.433 142.974 334.433L10.2036 334.592Z"/><path fill="#EA9D7D" d="M-9.35415 301.171C-10.9442 313.267 -10.3082 313.585 -0.76776 334.274C8.93166 354.963 31.3516 396.182 31.3516 396.182C31.3516 396.182 33.4187 406.208 41.528 415.439C49.7964 424.669 51.3865 424.829 52.8175 425.943C54.0896 427.057 55.2027 424.51 55.2027 424.51C55.2027 424.51 57.5878 427.375 59.6548 426.579C61.5629 425.783 60.7679 423.555 60.7679 423.555C60.7679 423.555 63.789 423.874 64.9021 422.919C66.0151 422.123 63.948 417.508 62.0399 414.643C60.1319 411.779 58.2238 403.185 57.5878 401.593C56.9517 400.002 60.4499 403.98 62.517 405.89C64.584 407.8 67.9232 407.322 65.2201 403.185C62.517 399.047 60.6089 395.227 59.8138 394.113C59.0188 392.999 56.6337 390.612 54.7256 389.021L52.9765 387.429C52.9765 387.429 51.3865 386.315 50.2734 381.222C49.9554 380.108 49.4784 377.244 47.5703 371.833C41.8461 356.077 38.5069 323.77 37.5529 317.723C35.9628 308.015 -7.92308 290.827 -9.35415 301.171Z"/><path fill="#CC7A5E" d="M31.0335 395.068C30.7155 395.068 30.3975 394.909 30.3975 394.75L-8.71813 317.723C-16.5095 300.854 -15.8734 289.395 -13.9654 282.711C-12.6933 278.096 -11.5803 275.549 -11.4213 275.231C-11.2623 274.913 -10.7852 274.913 -10.4672 275.231C-10.1492 275.39 -10.1492 275.868 -10.4672 276.186C-10.4672 276.186 -12.2163 279.846 -13.3293 286.371C-15.2374 297.352 -11.2622 309.288 -7.60509 317.246C1.29928 336.343 31.1925 393.636 31.5105 394.114C31.6695 394.432 31.5105 394.75 31.1925 394.909C31.1925 395.068 31.0335 395.068 31.0335 395.068Z"/><path fill="url(#paint5_linear_834_10490)" d="M38.1896 305.946C37.0766 308.333 36.7586 316.131 38.3486 323.611C39.4617 328.704 43.7549 352.894 46.776 368.013C48.2071 375.175 50.1151 380.267 50.1151 380.267L52.6592 388.702C52.6592 388.702 52.9772 387.588 56.1574 390.135C59.3375 392.681 64.9028 402.071 66.1748 404.139C67.4469 406.208 66.8109 406.527 66.3338 407.004C65.8568 407.482 64.7438 407.163 63.7897 406.527C62.8357 405.89 56.9524 400.479 56.9524 400.479C56.9524 400.479 52.3412 402.23 49.3201 399.206C46.14 396.182 44.7089 391.408 44.7089 391.408C44.7089 391.408 10.0454 336.025 14.1796 310.72C18.1548 287.007 39.1437 303.559 38.1896 305.946Z"/><path fill="#FCAA02" d="M72.6935 170.353C54.0897 151.414 18.1542 159.053 -3.62971 210.299C-25.4136 261.544 -23.6646 291.941 -15.8732 319.473C-8.0819 347.006 10.9989 382.177 10.9989 382.177L56.4748 365.148C56.4748 365.148 41.0512 314.062 42.9593 291.463C44.8674 268.705 65.6972 240.536 74.1246 226.213C82.5519 211.89 92.4104 190.405 72.6935 170.353Z"/><path fill="url(#paint6_linear_834_10490)" d="M56.315 365.148L10.998 382.177C10.998 382.177 -4.90263 356.713 -0.132425 330.932C2.7297 315.654 14.4962 294.328 13.5422 281.914C12.5881 269.501 45.6615 277.299 45.6615 277.299C45.6615 277.299 38.3472 289.872 47.2516 329.499C49.9547 341.276 52.4988 353.53 56.315 365.148Z"/><path fill="#FCAA02" d="M75.237 187.7L73.0109 188.655L74.919 190.565L75.237 187.7ZM69.9898 190.246L73.0109 189.132L70.1488 187.382L69.9898 190.246ZM68.2407 181.175L68.5587 178.469L66.1736 179.265L68.2407 181.175ZM67.4457 177.515L67.7637 175.446L66.1736 176.082L67.4457 177.515ZM71.7388 185.154H73.4879L72.6929 183.88L71.7388 185.154ZM59.4953 184.517L60.4494 183.403L58.8593 182.926L59.4953 184.517ZM58.2233 190.883L56.3152 190.565L56.9512 192.156L58.2233 190.883ZM65.8556 184.835L64.7426 185.631L66.0146 186.427L65.8556 184.835ZM63.7885 199.318L64.7426 198.999L64.4245 199.477H65.3786L64.5835 200.75L65.3786 200.591L66.6506 202.023L67.6047 199.477L65.8556 199.954L65.3786 199.477L65.8556 199.318L65.2196 197.885L64.9015 198.522L64.2655 197.885L63.7885 199.318ZM66.1736 183.562L65.3786 181.812L64.5835 183.562H66.1736ZM62.0394 174.172L63.3115 173.218L61.7214 172.899L62.0394 174.172ZM62.3575 162.873L60.2904 165.101L63.4705 166.215L62.3575 162.873ZM70.4668 177.037L70.3078 180.857L74.283 179.265L70.4668 177.037ZM66.6506 170.512L64.7426 172.104L67.2866 173.377L66.6506 170.512ZM67.9227 167.647L66.0146 169.239L67.9227 170.194L67.1277 172.422L69.5128 171.785L67.1277 174.332L71.1028 175.764L69.6718 171.785L70.4668 171.467L71.2618 173.854L71.7388 173.536L72.8519 174.65L71.2618 177.355L74.601 177.037V177.674L73.965 178.151L74.601 178.629V179.424L77.3041 178.469L75.237 181.175L74.1239 180.538L73.965 183.403L76.9861 182.289L76.6681 182.13H78.2581L76.191 182.926L78.0991 184.835L78.4171 182.13H78.5761L78.4171 184.835L80.3252 184.199L78.0991 186.268L76.5091 185.313L76.191 188.177L77.9401 187.541L80.0072 187.859L79.5302 189.291L78.4171 188.337L78.2581 189.132L77.1451 187.859L76.191 190.246L74.76 191.201L73.0109 189.61L72.2159 192.474L74.919 191.997L75.237 192.156L74.919 192.474L76.032 192.793L75.078 194.862H75.555L73.8059 197.249L76.6681 197.726L76.032 194.862L78.0991 194.702L76.6681 191.997L76.5091 190.565L78.0991 190.405L77.9401 191.042L78.4171 190.883L78.2581 191.36L78.0991 191.519H78.2581L77.9401 193.27L81.1203 192.474L83.9824 193.429L83.0283 188.018L82.2333 188.655L81.4383 187.7L83.1873 188.018L81.4383 182.766L81.1203 182.926L79.0532 181.652H80.8022L78.0991 176.878L77.3041 177.833L75.396 176.719L77.6221 176.56L74.442 171.944L73.4879 173.536L73.6469 171.944L73.3289 172.104L73.965 171.626L71.5799 171.149L73.4879 170.512L69.5128 166.693L68.5587 169.239L67.9227 167.647ZM80.4842 189.769L79.8482 189.132L81.5973 188.973L80.4842 189.769ZM69.8308 192.793H71.2618L70.6258 191.36L69.8308 192.793Z"/><path fill="#FCAA02" d="M62.835 191.679L61.563 192.475L62.994 193.27L62.835 191.679ZM68.2412 181.175L69.8313 181.812L69.3543 180.22L68.2412 181.175ZM62.199 168.443L63.312 171.149L65.5381 168.762H65.2201L69.0363 166.374L64.2661 163.669L63.6301 168.602L62.199 168.443ZM67.6052 185.95L69.9903 186.268L69.1953 183.721L67.6052 185.95ZM70.3083 208.548V208.867L68.2412 210.936L67.7642 210.617L67.4462 212.209L66.3332 212.686L67.4462 213.641L67.6052 213.164L69.8313 212.05L68.2412 210.936L71.2624 212.209L70.9443 210.776L72.3754 209.981L70.3083 208.548ZM80.3257 204.251L78.4176 206.479L79.6897 206.798L77.4636 207.116V206.957V207.116H76.6686L76.9866 207.593L75.7145 209.185L76.6686 209.503L76.5096 210.458L77.7816 209.822L78.7357 210.14L78.4176 209.503L78.7357 209.344L80.9617 211.89L82.7108 206.639H81.2798L80.3257 204.251ZM79.2127 209.981L76.6686 211.413L78.4176 212.686H74.6015L78.5767 217.779L80.8027 212.686H79.2127V209.981Z"/><path fill="#FCAA02" d="M75.2375 209.184L72.6934 210.776H72.8524L72.5344 211.094L74.1245 212.208L73.9655 211.571L75.3966 212.686L75.2375 209.184ZM75.0785 199.795L76.6686 198.681L75.2375 197.885L75.0785 199.795ZM74.6015 208.07L73.0115 208.389L74.2835 209.503L74.6015 208.07ZM57.4288 203.296H59.3368L58.0648 201.864L57.4288 203.296ZM67.9232 205.365L68.8773 204.251L67.6052 203.932L67.9232 205.365ZM58.8598 212.526L57.4288 213.322L59.0188 213.959L58.8598 212.526ZM51.8635 190.405L51.7045 192.156L53.4536 191.519L51.8635 190.405ZM62.358 190.723L62.994 189.291L61.563 189.45L62.358 190.723ZM56.6337 201.704L56.1567 200.431L55.0437 201.545L56.6337 201.704ZM68.8773 195.657L69.1953 193.906L69.6723 194.065L69.8313 192.156L69.3543 192.474V192.156L67.4462 192.792L66.9692 191.996L67.7642 191.042L65.8561 190.882L66.1742 191.837L65.6971 192.633L67.4462 192.792L66.4922 193.27L68.8773 195.657ZM70.9444 183.88L72.5344 183.721L71.2624 182.607L70.9444 183.88ZM79.0537 193.27L79.6897 194.702L79.8488 194.224L80.0077 194.702L81.2798 193.747L80.3258 193.429V193.27H79.0537ZM55.6797 174.649L54.0896 175.604L55.3617 176.718L55.6797 174.649ZM58.2238 165.26L57.5878 166.533H59.1779L58.2238 165.26ZM66.1742 176.877L64.7431 176.718L65.3791 178.31L66.1742 176.877ZM69.6723 200.431L70.1493 200.75L70.3083 199.795L70.6263 199.954L70.7854 198.521L69.5133 199.317L68.4003 199.476L69.3543 200.909L69.6723 200.431ZM78.2587 204.251L78.0997 205.683L79.5307 204.728L78.2587 204.251ZM82.5519 200.75L80.0077 200.59L80.4848 201.704L78.8947 202.023L79.2127 198.681L75.7146 200.113L78.7357 203.137V202.978L82.8699 206.161L83.8239 200.75L82.2339 201.227L82.5519 200.75ZM74.9195 204.41L73.8065 204.251H72.8524V204.41H72.3754L73.1705 205.842L73.3295 205.524L73.8065 206.797L74.6015 205.524L78.2587 206.479L76.5096 202.341L74.9195 204.41ZM80.1668 195.02L80.4848 195.339L79.0537 195.975L79.5307 195.02L76.9866 194.861L77.9407 197.567L78.7357 196.453L81.2798 198.044L80.1668 199.954L83.5059 200.272L82.3928 198.681L83.6649 199.476L83.9829 193.906L82.0748 194.702L80.1668 195.02ZM64.7431 208.548L64.1071 210.139H66.0152L64.7431 208.548ZM62.04 207.115L60.6089 206.797L61.0859 208.389L62.04 207.115ZM67.9232 195.657L66.6512 196.453L67.7642 197.248L67.9232 195.657ZM61.245 203.137L62.04 201.227L59.8139 201.864L61.245 203.137ZM64.9021 219.37L64.5841 221.598L62.994 220.325L62.358 223.03L64.5841 222.075L64.4251 222.234L66.9692 220.802L64.9021 219.37ZM71.5804 218.415L71.1034 221.279L73.6475 219.847L71.5804 218.415ZM62.358 218.256L62.517 218.892L62.835 218.574L64.5841 219.688L64.2661 216.346L63.153 217.142L62.04 216.823L62.199 217.619L61.881 217.778L62.358 218.256ZM73.8065 220.643L71.2624 222.075L72.2164 222.712L69.9903 222.553L69.8313 220.006L67.2872 221.439L69.9903 223.348L72.6934 227.486L71.5804 226.213L70.7854 228.123L72.6934 227.645L72.8524 227.964L75.5556 223.03L73.8065 222.871V220.643ZM72.3754 215.55L74.4425 216.982L74.2835 213.64L71.7394 215.073L72.2164 215.391L69.9903 216.982L72.5344 218.733V217.778L75.8736 222.871L78.4177 217.937L72.5344 217.619L72.3754 215.55ZM71.7394 206.956L73.0115 205.683L71.5804 205.206L71.7394 206.956L71.4214 206.638L70.9444 208.389L72.6934 207.593L71.7394 206.956ZM68.0822 217.778L68.5593 216.505H66.9692L68.0822 217.778ZM60.6089 206.001L61.881 206.161L61.563 204.569L60.6089 206.001ZM54.5666 208.707L53.7716 206.956L52.8176 208.229L54.5666 208.707ZM62.676 212.526L63.9481 211.412L62.676 210.935V212.526ZM52.1815 219.051L52.3406 217.619L50.7505 218.097L52.1815 219.051ZM58.8598 214.914L58.0648 216.346L59.8139 216.664L58.8598 214.914ZM55.3617 213.959L56.4747 212.845L55.2027 212.367L55.3617 213.959ZM49.9555 247.061L49.4784 249.767L52.0225 248.334L49.9555 247.061ZM54.4077 251.676L52.3406 250.244L51.8635 252.95L52.1815 252.791L51.7045 253.905L52.4996 253.586L52.1815 255.178L50.7505 255.019L50.5915 251.676L48.0474 253.109L50.5915 254.859L49.6374 254.7L50.9095 256.451L50.5915 258.52L51.8635 257.883L52.9766 259.475L49.6374 259.156L49.1604 256.451L48.6834 256.769V255.496L47.0933 256.292L48.2064 257.087L46.9343 258.202L47.4113 258.52L45.0262 259.793L47.2523 261.225L47.7294 258.679L48.6834 259.156H48.0474L51.2275 264.09L49.3194 263.135L49.1604 265.363H46.4573L46.9343 265.045L45.1852 264.09L45.0262 266.318L46.1393 265.522L46.6163 266.318L43.7542 266.636L45.1852 269.501L44.3902 269.342L44.7082 271.252H43.4362L44.8672 273.002L43.4362 274.434L43.2772 273.957L42.0051 275.23L40.415 274.594L40.5741 277.299L42.6411 275.389L43.7542 275.708H43.1182L42.0051 275.867L43.2772 276.981V277.458L43.4362 277.299L45.376 279.145L46.6481 275.915L43.7542 275.549L43.2772 274.275L45.5033 275.071L44.7082 272.684L46.7753 275.517L48.27 271.22L44.5492 270.615L45.8213 269.342L47.5703 270.456L47.2523 267.75L45.3443 269.023L45.5033 269.183L45.0262 269.023L46.2983 266L48.7788 269.66L50.5279 265.681L49.0014 265.045L50.5915 263.931L51.1321 265.252L53.0402 260.955L53.1992 260.732L55.5843 256.276L55.7115 256.149L57.4606 252.806L52.6586 252.011L54.4077 251.692V251.676ZM52.9766 255.496L54.7257 254.541L55.6797 255.814L52.9766 255.496ZM54.7257 254.382L53.4536 253.586L53.7716 253.427L52.9766 252.631L53.2946 252.472L54.7257 254.382ZM52.1815 242.923L49.7964 244.515L52.4996 246.265L52.1815 242.923Z"/><path fill="#FCAA02" d="M56.3158 244.674L53.7717 246.106L55.0437 247.061H54.5667L55.2027 248.016L54.5667 247.539L53.9307 250.244L55.9978 249.449L57.7468 252.631L60.768 247.221L56.3158 247.061V244.674ZM61.881 226.691L64.4252 228.6L64.2661 225.099L61.881 226.691ZM62.04 232.102L58.8599 233.216L61.086 235.125L62.04 232.102ZM65.2202 229.237L62.04 230.351L64.2661 232.261L65.2202 229.237ZM57.4288 238.149L56.9518 240.695V239.9L54.2487 241.65H53.9307L54.0897 241.809L53.7717 241.969L54.0897 242.287L54.4077 243.083L54.7257 242.605L57.2698 244.515L56.9518 240.855L59.4959 239.581L57.4288 238.149ZM46.1393 256.928L48.5245 255.337L46.2983 254.223L46.1393 256.928ZM62.04 227.645L61.245 229.396L63.1531 228.919L62.04 227.645ZM57.4288 236.876L55.8388 236.558L56.6338 237.99L57.4288 236.876ZM51.5456 224.94L52.8176 225.417V223.826L51.5456 224.94ZM60.609 223.348V226.85L63.4711 224.622L60.609 223.348ZM55.8388 221.439V224.94L58.5419 222.871L55.8388 221.439ZM56.7928 225.417V229.078L59.4959 226.85L56.7928 225.417ZM66.4922 209.025L69.3544 206.956L66.4922 205.683V209.025ZM73.9656 201.545L71.2624 200.113V203.614L73.9656 201.545ZM70.4674 197.726L73.1705 195.498L70.4674 194.225V197.726ZM44.5493 238.945V242.446L47.2524 240.218L44.5493 238.945ZM52.1816 222.394L53.6127 221.28L51.7046 220.802L52.1816 222.394ZM61.563 217.142L61.404 215.391L60.1319 216.187L61.563 217.142ZM59.4959 228.441L58.8599 229.873L60.45 229.396L59.4959 228.441ZM54.0897 212.049L55.8388 211.253L54.0897 210.458V212.049ZM64.2661 208.548L64.5841 206.956L63.3121 207.434L64.2661 208.548ZM60.768 220.166L61.245 219.051L59.6549 219.211L59.973 219.688L59.3369 220.643L60.927 220.484L60.768 220.166ZM42.4822 256.133L42.1642 257.883L41.0511 258.202L42.1642 259.316L42.3232 258.838L44.5493 257.565L42.4822 256.133ZM32.1467 248.971H33.8958L33.4188 248.175L34.6908 247.221L32.7827 246.743L32.9418 247.698L32.7827 247.38L32.1467 248.971Z"/><path fill="#FCAA02" d="M43.5956 249.768L42.1645 249.449L42.4825 251.041L43.5956 249.768ZM33.7372 259.635L33.5781 258.203L32.1471 258.839L33.7372 259.635ZM26.5818 236.081L26.4228 237.673L28.1719 237.195L26.5818 236.081ZM37.0763 236.399L37.5533 234.808L36.2812 234.967L37.0763 236.399ZM30.875 246.107L29.762 247.221L31.3521 247.381L30.875 246.107ZM35.3272 252.314L35.8042 253.906L36.7583 252.792L35.3272 252.314ZM35.8042 248.813L36.7583 246.903L34.3732 247.381L35.8042 248.813ZM41.2105 236.877L40.8925 237.354L39.4614 237.195L40.0974 238.627L40.4154 238.309L42.1645 238.468L41.2105 236.877ZM46.2987 250.882L46.4577 252.473L45.9807 252.155L45.5036 254.065L47.4117 253.269L46.4577 252.632L47.7298 251.359L46.2987 250.882ZM37.0763 263.773L37.2353 264.568L37.5533 264.25L39.3024 265.364L38.9844 262.022L37.8713 262.659L36.7583 262.499L36.9173 263.295L36.5993 263.454L37.0763 263.773ZM41.6875 262.022L42.8005 263.454L43.2776 262.022H41.6875ZM35.1682 251.518L36.5993 251.677L36.1223 250.245L35.1682 251.518ZM29.285 254.224L28.4899 252.473L27.5359 253.906L29.285 254.224ZM37.3943 257.725L36.7583 258.043L38.0303 258.839L37.8713 257.566L38.6663 257.089L37.2353 256.452L37.3943 257.725ZM27.0589 263.295L25.4688 263.614L26.8999 264.728L27.0589 263.295ZM33.5781 260.431L32.6241 261.863L34.5322 262.181L33.5781 260.431ZM29.921 259.476L31.193 258.521L29.921 257.884V259.476ZM26.8999 268.07L28.3309 266.796L26.4228 266.319L26.8999 268.07ZM36.1223 261.067L34.8502 261.863L36.1223 262.659V261.067ZM35.1682 275.072L34.0552 273.958L33.5781 275.55L35.1682 275.072ZM28.8079 257.725L30.557 256.77L28.8079 255.974V257.725ZM38.9844 254.224L39.3024 252.632L38.0303 253.11L38.9844 254.224ZM34.0552 266.319L35.6452 266.16L34.8502 265.046L34.0552 266.319ZM40.2564 229.238L39.1434 227.646L38.3483 229.238H40.2564ZM48.8428 231.307L49.9558 230.034L48.5248 229.715L48.8428 231.307ZM39.9384 239.901V238.468L38.5074 239.264L39.9384 239.901ZM32.9421 216.347L32.6241 217.938L34.5322 217.461L32.9421 216.347ZM43.4366 216.665L43.9136 215.074L42.4825 215.233L43.4366 216.665ZM45.1856 236.081L47.0937 235.922L45.8217 234.49L45.1856 236.081ZM47.4117 238.627L48.5248 239.582L48.6838 239.105L50.7509 237.832L48.8428 236.559L48.5248 238.15L47.4117 238.627ZM41.6875 232.739L42.0055 234.171L42.9596 232.898L41.6875 232.739ZM42.1645 229.079L42.9596 227.169L40.7334 227.646L42.1645 229.079ZM48.5248 218.734L47.5707 217.143L46.7757 218.575L48.5248 218.734ZM52.818 232.898L52.341 232.58L51.8639 234.331L53.772 233.535L52.818 232.898L54.09 231.625L52.659 231.148L52.818 232.898ZM45.3447 242.129L44.0726 242.924L42.9596 242.765L43.1185 243.561L42.8005 243.72L43.2776 244.198L43.5956 244.834L43.9136 244.516L45.6627 245.63L45.3447 242.129ZM49.6378 242.288H48.0478L49.0018 243.561L49.6378 242.288ZM42.4825 230.511L41.5285 231.784L42.9596 231.943L42.4825 230.511ZM35.6452 234.49L34.6912 232.739L33.7372 234.171L35.6452 234.49ZM43.5956 238.309L45.0266 237.354L43.5956 236.718V238.309ZM33.4191 243.561L31.8291 243.879L33.1011 244.993L33.4191 243.561ZM38.9844 242.129L40.8925 242.447L39.9384 240.856L38.9844 242.129ZM36.2812 238.15V239.741L37.5533 238.787L36.2812 238.15ZM41.2105 242.129L42.4825 242.924V241.333L41.2105 242.129ZM40.2564 255.656L40.5745 256.452L41.8465 255.338L41.3695 255.179L40.4154 254.383L40.0974 255.02L39.4614 254.224L38.8254 255.656H39.9384V255.815L40.2564 255.656ZM55.0441 238.15V236.081L54.8851 236.24L55.2031 233.535L52.5 235.126L54.567 236.399L53.454 236.877L55.0441 238.15ZM35.1682 237.991L36.9173 237.036L35.0092 236.24L35.1682 237.991ZM45.6627 232.898L44.2316 233.216L45.3447 234.49L45.6627 232.898ZM41.2105 245.312L40.2564 246.585L42.0055 246.426L41.2105 245.312ZM66.1745 234.012L67.2876 234.171L66.3336 232.739L65.6975 234.012H66.0155L65.6975 235.922L63.6304 235.445L64.9025 234.808L62.9944 233.376L62.5174 235.126H61.7223L63.6304 238.946L61.7223 239.741L61.4043 239.582L62.8354 237.673L59.0192 237.036L59.9733 241.174L60.9273 240.06L60.4503 241.333L58.0652 241.015L59.3372 243.561L56.9521 244.675L59.3372 246.744L59.4963 243.879L60.9273 246.744L64.1074 242.129L61.2453 241.651L62.8354 241.015L63.9485 241.97L64.1074 239.901L64.5845 240.696L67.6056 236.24L66.8106 236.081L68.0826 235.285L66.1745 234.012ZM43.2776 250.563L44.2316 251.677L44.8676 250.245L43.2776 250.563ZM70.4677 227.487L69.5137 227.965L69.1957 227.487L68.7187 228.442L68.5596 228.601L68.4007 226.055L69.5137 226.851L69.3547 223.509L66.8106 224.941L67.2876 225.259L65.0615 226.691L65.6975 227.169L64.7435 227.646L67.2876 229.556V228.283L68.0826 228.76L67.9236 228.92L69.3547 229.874L65.3795 229.397L68.5596 234.967L71.4218 230.193L70.4677 230.034V227.487ZM54.408 231.307L55.0441 230.829L55.2031 231.148L56.3161 230.193L54.8851 229.874V230.193L54.09 230.034L54.408 231.307ZM56.6341 233.376L57.1112 235.604L59.3372 234.012L56.6341 233.376ZM51.2279 239.741L51.7049 241.174L53.136 240.06L51.2279 239.741ZM55.2031 227.169L56.3161 226.214L54.8851 225.896L55.2031 227.169ZM43.9136 263.295L41.3695 264.887L43.5956 266.16L43.9136 263.295ZM42.9596 271.571L43.4366 268.547L40.7334 270.139L42.9596 271.571ZM48.2068 249.131L47.0937 249.927L48.3658 250.563L48.2068 249.131ZM47.8888 260.908L47.5707 262.34L48.2068 262.022L47.8888 263.136L49.3198 262.977L48.5248 262.022L48.8428 261.863L47.8888 260.908ZM47.7298 232.739L47.5707 231.307L46.6167 232.102L47.7298 232.739ZM47.2527 243.243L46.9347 244.675L48.3658 243.879L47.2527 243.243ZM30.08 219.53L29.762 221.121L31.511 220.485L30.08 219.53ZM40.4154 219.848L41.0515 218.257L39.6204 218.416L40.4154 219.848ZM33.1011 230.511L34.6912 230.829L34.2142 229.556L33.1011 230.511ZM39.3024 232.262L40.0974 230.193L37.8713 230.829L39.3024 232.262ZM44.3906 220.803L42.8005 220.644L43.4366 222.076L43.9136 221.599L45.6627 221.917L44.7086 220.326L44.3906 220.803ZM49.7968 236.081L51.0689 234.808L49.6378 234.171L49.7968 236.081ZM42.4825 211.095L41.8465 212.687H43.7546L42.4825 211.095ZM52.0229 213.164L52.341 214.755L53.454 213.482L52.0229 213.164ZM43.4366 223.349L43.2776 221.917L41.8465 222.554L43.4366 223.349ZM36.4403 199.796L36.1223 201.387L37.8713 200.751L36.4403 199.796ZM47.4117 198.522L45.9807 198.682L46.7757 199.955L47.4117 198.522ZM40.5745 209.822L39.4614 210.936L41.0515 211.095L40.5745 209.822ZM50.4329 219.371L49.1608 217.938L48.5248 219.371H50.4329ZM45.5036 217.62L46.4577 216.347L45.0266 216.029L45.5036 217.62ZM46.4577 210.458L44.2316 211.095L45.5036 212.527L46.4577 210.458ZM50.9099 200.591L50.1149 202.024L52.0229 202.183L50.9099 200.591ZM56.1571 216.188L55.6801 215.869L55.2031 217.779L57.1112 216.984L56.1571 216.347L57.4292 215.074L55.9981 214.437L56.1571 216.188ZM52.5 227.169L53.136 225.737H51.3869L52.5 227.169ZM44.8676 215.233L46.2987 215.392L45.9807 213.96L44.8676 215.233ZM38.9844 217.938L38.1893 216.188L37.2353 217.461L38.9844 217.938ZM47.0937 220.166V221.758L48.3658 220.803L47.0937 220.166ZM36.7583 227.487L37.5533 227.646L37.2353 226.373L36.4403 227.01L35.3272 227.328L36.5993 228.442L36.7583 227.487ZM39.7794 223.19L40.8925 222.235L39.6204 221.599L39.7794 223.19ZM38.5074 221.44L40.2564 220.485L38.5074 219.689V221.44ZM49.0018 216.347L47.7298 216.665L48.6838 217.779L49.0018 216.347ZM43.7546 230.034L45.3447 229.874L44.5496 228.601L43.7546 230.034ZM50.9099 214.755L49.9558 215.551L51.2279 216.188L50.9099 214.755ZM50.5919 227.328H50.2739L50.4329 227.487L50.2739 227.965L50.7509 227.805L51.5459 228.442L51.8639 227.01L51.3869 227.169L50.7509 226.532L50.5919 227.328ZM30.239 264.728L31.511 263.454L29.762 263.295L30.239 264.728ZM37.5533 269.184L37.2353 270.616L38.5074 269.979L37.5533 269.184ZM27.5359 293.374L28.6489 292.101L26.8999 291.942L27.5359 293.374ZM35.0092 285.894L34.0552 286.69L35.3272 287.486L35.0092 285.894ZM34.3732 299.262L35.8042 298.626L34.6912 297.83L34.3732 299.262ZM33.1011 256.929L34.2142 255.656L32.4651 255.497L33.1011 256.929ZM40.5745 249.449L39.6204 250.404L40.8925 251.041L40.5745 249.449ZM40.4154 261.545L40.0974 262.818L41.3695 262.181L40.4154 261.545ZM31.511 288.122L32.6241 286.69L31.193 286.531L31.511 288.122ZM22.7657 296.557L22.6067 295.125L21.1756 295.92L22.7657 296.557ZM15.4514 274.754L17.2004 274.117L15.6104 273.003L15.4514 274.754ZM26.1048 273.321L26.5818 271.889L25.1508 272.048L26.1048 273.321ZM20.3806 284.303L19.9036 283.029L18.7905 284.143L20.3806 284.303ZM25.6278 289.714L24.3557 289.395L24.6738 290.987L25.6278 289.714ZM24.8328 285.735L25.6278 283.825L23.4017 284.462L24.8328 285.735ZM30.239 273.958L29.444 275.231L31.193 275.39L30.239 273.958ZM35.3272 287.804L35.4862 289.554L35.0092 289.236L34.5322 291.146L35.6452 290.509L33.8961 292.737L36.4403 293.374L35.8042 290.509L36.4403 290.191L35.4862 289.554L36.7583 288.44L35.3272 287.804ZM31.8291 300.376L32.3061 299.103H30.716L31.8291 300.376ZM24.1967 288.6L25.6278 288.759L25.1508 287.167L24.1967 288.6ZM18.3135 291.305L17.5185 289.554L16.4054 290.828L18.3135 291.305ZM26.2638 293.533L26.4228 294.965L27.6949 294.011L26.2638 293.533ZM16.0874 300.217L14.4973 300.695L15.9284 301.65L16.0874 300.217ZM19.1085 296.557L20.2216 295.443L18.9495 294.965L19.1085 296.557ZM17.8365 293.056V294.647L19.5855 293.692L17.8365 293.056ZM27.0589 290.032L28.0129 291.146L28.3309 289.554L27.0589 290.032ZM22.7657 271.093L24.6738 271.571L23.7197 269.82L22.7657 271.093ZM33.8961 274.276L32.6241 273.799V275.39L33.8961 274.276ZM22.1296 281.915L22.4477 280.483L20.8576 280.961L22.1296 281.915ZM27.6949 262.34L25.6278 261.863L26.1048 263.454L27.6949 262.34ZM35.4862 258.203V256.452L34.2142 257.248L35.4862 258.203ZM34.3732 270.457L33.4191 269.502L32.7831 270.934L34.3732 270.457ZM14.9743 268.388L14.6563 270.139L16.5644 269.502L14.9743 268.388ZM25.9458 267.274L24.5148 267.433L25.3098 268.706L25.9458 267.274ZM19.1085 278.573L17.9955 279.528L19.5855 279.847L19.1085 278.573ZM24.1967 281.279L24.9918 279.21L22.7657 279.847L24.1967 281.279ZM29.603 269.343L28.8079 270.775L30.557 270.934L29.603 269.343ZM34.5322 283.189L34.6912 285.098L36.1223 283.825L34.5322 283.189ZM23.0837 265.205L22.1296 266.637L24.0377 266.956L23.0837 265.205ZM31.9881 270.775L33.2601 269.82L31.9881 269.184V270.775Z"/><path fill="#FCAA02" d="M21.6519 275.867L20.2208 276.345L21.4929 277.3L21.6519 275.867ZM28.8071 302.763L26.8991 302.286L27.2171 304.036L28.8071 302.763ZM35.3264 297.671L36.5985 298.625V297.034L35.3264 297.671ZM33.8954 311.357L35.6444 310.88L34.5314 309.925L33.8954 311.357ZM15.7686 310.561L17.6767 310.084L16.0866 308.97L15.7686 310.561ZM27.0581 307.697L25.627 307.856L26.5811 309.288L27.0581 307.697ZM19.1078 320.11L20.6978 320.269L20.2208 318.996L19.1078 320.11ZM26.104 319.633L23.878 320.269L25.309 321.702L26.104 319.633ZM30.7152 309.766L29.9202 311.198L31.6693 311.357L30.7152 309.766ZM35.9624 325.521L37.2345 324.248L35.8034 323.771L35.9624 325.521ZM24.196 305.787L23.2419 307.06L25.15 307.538L24.196 305.787ZM33.1003 311.198L34.3724 310.243L33.1003 309.607V311.198ZM22.6059 317.882L22.7649 316.45L21.3338 316.927L22.6059 317.882ZM24.196 296.238L24.832 297.83L26.2631 296.556L24.196 296.238ZM33.7364 291.782L33.5773 290.191L32.3053 290.986L33.7364 291.782ZM32.6233 303.241L32.1463 304.832L33.5773 304.196L32.6233 303.241ZM14.0195 305.469L15.7686 304.832L14.0195 303.718V305.469ZM24.514 303.241V303.081H24.673L24.514 302.922L24.832 301.649L23.5599 301.967L23.7189 302.127L23.0829 303.241L24.355 303.081L24.514 303.241ZM19.1078 313.426L18.1537 314.54L19.7438 314.699L19.1078 313.426ZM24.991 313.744L22.7649 314.54L24.355 315.813L24.991 313.744ZM28.8071 303.4L28.0121 304.832L29.9202 304.991L28.8071 303.4ZM35.1674 318.678L36.4395 317.246L34.8494 316.927L35.1674 318.678ZM21.9699 299.899L21.0158 301.331L22.9239 301.49L21.9699 299.899ZM31.0333 303.081L31.1922 304.673L32.4643 303.559L31.0333 303.081ZM21.4929 310.721L19.9028 311.198L21.3338 312.153L21.4929 310.721ZM29.2842 314.222L29.7612 315.813L31.1922 314.54L29.2842 314.222ZM37.5525 321.224L37.0755 322.816L38.5066 322.179L40.4146 323.93L40.7326 320.429L38.0295 321.543L37.5525 321.224ZM18.9487 323.452L20.6978 322.816L19.1078 321.702L18.9487 323.452ZM29.9202 319.633L28.4891 319.951L29.4432 321.224L29.9202 319.633ZM24.0369 331.41L23.0829 332.524L24.673 332.683L24.0369 331.41ZM29.9202 331.728L27.8531 332.524L29.2842 333.797L29.9202 331.728ZM33.7364 321.543L32.9413 322.816L34.8494 322.975L33.7364 321.543ZM39.7786 334.911L40.0966 336.661L41.3687 335.229L39.7786 334.911ZM26.8991 317.882L26.104 319.314L28.0121 319.474L26.8991 317.882ZM36.1215 321.065L36.2804 322.657L37.3935 321.543L36.1215 321.065ZM26.422 328.704L24.832 329.182L26.422 330.136V328.704ZM31.0333 337.616L31.9873 335.547L29.7612 336.184L31.0333 337.616ZM36.5985 325.68L35.6444 327.113L37.5525 327.272L36.5985 325.68ZM41.5277 339.685L41.6867 341.436L42.9587 340.163L41.5277 339.685ZM37.8705 332.046L35.6444 332.524L37.0755 333.956L37.8705 332.046ZM48.683 336.343L48.2059 334.115L45.5028 336.661L47.5699 337.616L47.7289 337.775V337.616L48.683 338.094L47.5699 339.049L48.683 339.526L45.5028 341.754L49.796 343.027L46.2979 345.415L47.4109 345.892L46.1389 347.006L45.9799 345.892L44.8668 346.847L45.8208 347.324L45.3438 347.802L48.365 349.234L47.5699 345.892L51.0681 347.165L50.273 342.709V342.868L49.478 338.89L49.319 339.049L49.001 337.775L48.683 336.661L49.001 336.502L48.683 336.343ZM35.6444 331.728L37.0755 330.455L35.1674 330.136L35.6444 331.728ZM24.832 339.367L26.5811 338.571L24.832 337.616V339.367ZM35.8034 335.547L34.3724 335.866L35.3264 337.139L35.8034 335.547ZM28.8071 348.438L30.3972 348.597L29.9202 347.324L28.8071 348.438ZM32.7823 333.797L31.8283 335.229L33.7364 335.388L32.7823 333.797ZM43.2768 337.457L41.8457 336.98L42.0047 338.571L43.2768 337.457ZM32.1463 344.46L30.7152 345.096L32.1463 345.892V344.46ZM34.8494 337.935L35.4854 339.526L36.7575 338.412L34.8494 337.935ZM43.1177 344.937L42.6407 346.529L44.2308 345.892L43.1177 344.937ZM24.514 347.165L26.2631 346.369L24.673 345.415L24.514 347.165ZM34.0544 343.664L35.1674 344.937L35.4854 343.346L34.0544 343.664ZM28.6482 356.396H30.2382L29.6022 355.122L28.6482 356.396ZM33.4184 356.237L34.8494 357.51L35.4854 355.441L33.4184 356.237ZM39.3016 345.096L38.5066 346.529H40.4146L39.3016 345.096ZM33.5773 343.186L32.4643 341.595L31.6693 343.027L33.5773 343.186ZM41.8457 346.369L42.9587 345.255L41.6867 344.778L41.8457 346.369ZM31.8283 353.849L31.9873 352.417L30.5562 352.894L31.8283 353.849ZM21.9699 284.62L21.8109 284.461L21.1748 285.894H22.9239L22.4469 285.098L23.7189 284.143L21.8109 283.666L21.9699 284.62ZM30.2382 279.05L31.5103 280.005V278.414L30.2382 279.05ZM29.4432 291.305L28.9662 292.737L30.3972 292.259L29.4432 291.305ZM21.4929 292.419L22.1289 293.851L23.2419 292.737L21.4929 292.419ZM29.9202 288.122L29.6022 286.53L28.6482 287.326L29.9202 288.122ZM29.4432 298.466L29.1252 299.899L30.3972 299.262L29.4432 298.466ZM39.6196 272.844L37.3935 272.048L37.5525 274.753L39.6196 272.844ZM39.1426 276.663L37.0755 278.732L40.0966 279.846L39.1426 280.005L40.7326 281.438L40.8917 283.506L42.0047 282.552L43.9128 284.302L45.1848 279.209L42.1637 279.528L43.7538 278.095L41.5277 277.3L41.6867 279.687L40.0966 279.846L39.1426 276.663ZM37.0755 283.984L37.5525 284.143L35.4854 285.894L38.0295 286.849L37.8705 284.143L40.2556 284.78L38.8246 281.756L37.0755 283.984ZM35.9624 282.711L37.8705 280.483L35.4854 280.005L35.9624 282.711ZM33.1003 276.345L31.6693 277.141L32.9413 277.936L33.1003 276.345ZM40.8917 294.01L39.4606 295.761L42.0047 296.397L40.8917 294.01ZM30.5562 285.098L31.1922 283.506L29.4432 283.825L30.5562 285.098ZM35.3264 275.549L34.5314 276.663L35.9624 276.981L35.3264 275.549ZM38.8246 287.008L38.9836 288.44L39.4606 287.963V288.917L40.8917 288.44L39.6196 287.803L40.0966 287.485L38.8246 287.008ZM38.3475 301.331L35.6444 302.604L38.1885 304.991L38.3475 301.331ZM33.4184 297.034L33.5773 293.533L30.8742 294.647L33.4184 297.034ZM45.8208 341.913L42.9587 343.027L45.5028 345.415L45.8208 341.913ZM34.6904 315.972L35.0084 312.471L32.3053 313.744L34.6904 315.972ZM36.2804 300.853L39.6196 300.376L37.0755 297.989L36.2804 300.853ZM38.1885 315.972L37.3935 318.837L38.9836 318.519L38.5066 319.155L39.7786 319.633L39.4606 318.519L40.7326 318.36L38.1885 315.972ZM43.1177 340.004L44.8668 339.844L46.1389 340.64L45.9799 339.685L46.6159 339.526L44.0718 336.98L43.9128 337.457L43.4357 337.139L42.9587 338.73L43.7538 338.412L43.1177 340.004Z"/><path fill="#FCAA02" d="M44.0721 327.908L43.277 330.932L46.6161 330.454L44.0721 327.908ZM38.3478 285.416L42.959 289.076L40.8919 288.758L41.5279 290.827L38.8248 291.622L39.1428 291.145L37.2348 290.827L37.8708 293.055L38.6658 291.941L39.3018 292.577L36.7577 293.691L39.1428 296.079L39.4608 292.577L42.482 294.646L42.959 290.349L41.8459 290.668L42.959 289.076L43.118 289.235L43.754 284.143L38.3478 285.416ZM40.4149 299.739L39.6199 301.649L39.3018 301.171L38.6658 302.922H40.5739L40.2559 303.081H40.0969L39.1428 303.718L40.7329 304.354L41.0509 304.832L41.2099 304.513L43.118 305.309L42.641 301.649L40.7329 302.763L39.7789 301.808L42.164 301.649L40.5739 299.739L42.8 301.012L42.641 296.556L39.6199 297.988L40.4149 296.238L38.5068 296.397L39.4608 298.148L38.3478 298.625L40.4149 299.739ZM29.4434 309.924L27.6943 310.084L28.6484 311.357L29.4434 309.924ZM34.5316 302.763L33.7366 303.718L35.0087 304.195L34.5316 302.763ZM36.4397 315.972L37.7118 315.017L36.5987 314.54L36.4397 315.972ZM32.4645 325.68L33.2596 326.953L34.2136 325.521L32.4645 325.68ZM41.3689 329.977L41.2099 331.409L42.482 330.613L41.3689 329.977ZM33.5776 350.507L31.3515 351.143L32.7826 352.576L33.5776 350.507ZM38.1888 340.64L37.3938 342.072L39.1428 342.231L38.1888 340.64ZM43.277 356.395L44.7081 355.122L43.118 354.485L43.277 356.395ZM38.6658 345.414L36.7577 345.096L37.2348 346.687L38.6658 345.414ZM45.0261 352.098L44.5491 353.531L46.1391 353.053L45.0261 352.098ZM36.7577 364.512L37.3938 362.443L35.3267 363.239L36.7577 364.512ZM40.4149 353.69H42.323L41.2099 352.257L40.4149 353.69ZM47.5702 367.535L48.8423 366.103L47.2522 365.785L47.5702 367.535ZM34.3726 348.756L33.5776 350.189L35.4857 350.348L34.3726 348.756ZM43.754 353.531L44.8671 352.417L43.595 351.939L43.754 353.531ZM33.7366 360.851L33.8956 359.419L32.3055 360.056L33.7366 360.851ZM40.7329 357.828L41.6869 356.395L39.9379 356.554L40.7329 357.828ZM45.9801 350.029L47.2522 350.507L46.7752 349.074L45.9801 350.029ZM41.0509 342.39L39.4608 343.027L40.5739 343.982L41.0509 342.39ZM44.231 334.115L43.595 335.388H45.0261L44.231 334.115ZM42.959 320.746L42.641 322.338L42.482 322.02L41.6869 323.452L43.436 323.611L42.959 322.815L45.0261 322.338L42.959 320.746ZM43.436 311.516L41.8459 309.447L40.8919 311.516H43.436ZM45.0261 327.908L46.9342 328.863L46.6161 326.794L45.0261 327.908ZM34.6906 309.606H37.3938L36.1217 306.901L34.6906 309.606ZM42.641 325.998L40.0969 327.749L42.959 329.499L42.641 325.998ZM41.0509 330.932L38.6658 332.682L41.5279 334.433L41.0509 330.932ZM40.0969 323.929L37.5528 325.68L40.4149 327.431L40.0969 323.929ZM43.277 305.468L39.4608 307.537L39.7789 307.06H37.8708L38.3478 308.333L37.3938 308.969L38.3478 309.606L37.7118 310.084L40.5739 311.834L40.2559 308.492L43.754 309.924L43.277 305.468ZM38.6658 309.288V309.129L39.3018 308.015L40.0969 308.333L38.6658 309.288ZM42.8 318.2L42.005 317.404L44.5491 316.768L42.482 315.176L44.7081 315.972L43.913 311.675L41.5279 313.266L41.6869 311.675L39.9379 312.312L41.0509 313.585L40.0969 314.062L39.9379 312.948L37.5528 314.699L40.4149 316.609L40.0969 314.38L42.323 315.176L42.005 317.404L41.2099 316.609L40.7329 318.518L42.8 318.2L41.3689 319.155L43.118 319.632L43.277 320.11L43.436 319.791L45.5031 320.428L44.7081 316.768L42.8 318.2ZM44.231 332.682L44.0721 331.887L42.959 332.682L44.231 333.478V332.841L48.0472 333.956L47.2522 330.295L44.231 332.682ZM42.482 325.362L46.6161 326.476L45.8211 322.974L42.482 325.362ZM38.0298 354.326L39.3018 353.053L37.2348 352.894L38.0298 354.326ZM49.3193 357.828L46.7752 359.26L46.9342 359.101L45.5031 358.623L45.8211 360.374L46.1391 360.056L45.9801 360.533L47.4112 359.896L48.8423 360.851L48.6832 362.284L49.9553 361.329L49.3193 361.17V357.828ZM46.2981 353.531L45.8211 356.554L49.1603 355.918L46.2981 353.531ZM51.5454 357.987L51.3864 360.215L53.7715 359.26L51.5454 357.987ZM48.5243 349.074L51.2274 348.756L49.3193 346.846L48.5243 349.074ZM51.7044 348.756L49.3193 350.666L49.4783 349.074L47.7292 349.87L48.8423 350.984L48.0472 351.621L47.8882 350.507L45.5031 352.417L48.5243 354.008L48.2062 351.939L50.4323 352.417L50.2733 354.645L49.4783 354.008L49.1603 356.077L51.0683 355.44L50.7503 355.759V355.918L49.9553 356.554L51.5454 356.873L51.8634 357.191V356.873L54.0895 357.35L52.9764 353.849L51.2274 355.44L50.2733 354.645L52.8174 353.849L50.5913 352.417L52.8174 353.053L51.7044 348.756ZM51.5454 362.443L55.8386 363.239L54.5665 359.737L51.5454 362.443Z"/><path fill="#CC7A5E" d="M66.4917 403.98C65.5377 402.229 62.0395 396.659 59.4954 392.68C57.1103 389.02 54.2482 387.587 53.2942 387.11L50.273 379.948C50.273 379.63 49.796 379.471 49.478 379.63C49.16 379.63 49.001 380.107 49.16 380.426L52.3401 387.747C52.3401 387.906 52.4991 388.065 52.6581 388.065C52.4991 388.065 55.9973 389.497 58.3824 393.317L65.3787 404.616C66.0147 405.889 65.8557 406.208 65.6967 406.526C65.0607 406.526 62.1986 405.094 57.5874 399.842C57.4283 399.683 57.1103 399.523 56.7923 399.683C56.4743 399.842 56.4743 400.16 56.4743 400.478C56.4743 400.797 59.3364 410.982 61.5625 415.756L62.0396 416.711C63.9476 421.008 64.1066 421.327 63.7886 422.441C63.6296 422.918 63.4706 423.077 63.1526 423.236C62.6756 423.555 61.8805 423.236 61.4035 423.077L55.0432 410.982C54.8842 410.664 54.4072 410.505 54.0892 410.664C53.7712 410.823 53.6122 411.3 53.7712 411.619L60.1315 423.395V423.714C60.2905 424.032 60.4495 424.669 60.2905 425.305C60.1315 425.623 59.8134 425.783 59.4954 425.942C58.0644 426.26 56.4743 424.669 55.8383 424.032L49.796 414.483C49.478 414.165 49.16 414.006 48.842 414.324C48.7067 414.439 48.6164 414.597 48.5873 414.772C48.5582 414.947 48.5921 415.127 48.683 415.279L54.8842 424.987C55.0433 424.987 57.1103 427.533 59.4954 427.374C59.6544 427.374 59.9724 427.374 60.1315 427.215C60.7675 426.897 61.2445 426.419 61.4035 425.942C61.5625 425.464 61.5625 424.987 61.5625 424.509C61.8805 424.669 62.3576 424.669 62.8346 424.669C63.1526 424.669 63.6296 424.669 63.9476 424.35C64.4247 424.032 64.7427 423.714 65.0607 422.759C65.5377 421.167 64.9017 420.212 62.9936 415.916L62.5166 414.961C60.9265 411.778 59.1774 405.889 58.2234 402.547C61.4035 405.73 64.1066 407.64 65.3787 407.64C65.8557 407.64 66.1737 407.481 66.3327 407.322C66.9688 406.844 67.4458 405.889 66.4917 403.98ZM270.021 276.344C269.703 276.025 269.226 276.026 268.908 275.866C269.342 275.21 269.512 274.415 269.385 273.638C269.385 273.161 269.067 272.524 268.112 272.047C266.681 271.41 265.886 271.569 261.275 272.683L260.321 272.843C256.823 273.638 250.781 274.434 247.283 274.752C250.94 272.365 253.325 269.978 253.643 268.705C253.802 268.227 253.643 267.909 253.484 267.75C253.007 267.113 252.212 266.477 250.145 267.113L237.742 271.888C233.767 273.479 231.7 276.185 231.064 276.98L223.591 278.572C223.273 278.572 223.113 279.049 223.113 279.368C223.113 279.686 223.591 279.845 223.909 279.845L231.7 278.094C231.859 278.094 231.859 277.935 232.018 277.776C232.018 277.776 233.926 274.752 238.219 273.002C240.604 271.888 248.396 268.864 250.463 268.227C251.894 267.909 252.212 268.227 252.371 268.386C252.212 269.023 250.304 271.569 244.261 275.071C244.261 275.071 244.102 275.071 244.102 275.23C243.784 275.23 243.466 275.548 243.466 275.866C243.466 275.866 243.466 279.208 241.399 281.914C239.332 284.619 234.403 285.256 234.403 285.256C233.926 285.415 233.767 285.733 233.767 286.052C233.926 286.529 234.244 286.688 234.562 286.688C234.721 286.688 239.968 285.893 242.353 282.869C244.261 280.482 244.579 277.935 244.738 276.662C244.738 276.503 244.738 276.503 244.897 276.344C246.488 276.185 255.869 275.389 260.48 274.116L261.434 273.957C265.886 272.843 266.363 272.843 267.317 273.32C267.635 273.638 267.794 273.797 267.953 274.116C268.112 274.752 267.794 275.548 267.317 275.866L254.597 279.845C254.12 279.208 253.643 278.572 252.848 278.094C252.53 277.935 252.053 277.935 251.894 278.254C251.735 278.572 251.735 279.049 252.053 279.208C257.3 283.665 255.869 290.19 255.869 290.508C255.71 290.826 256.028 291.144 256.346 291.304C256.664 291.463 256.982 291.144 257.141 290.826C257.141 290.667 257.3 290.19 257.3 289.394V286.688L267.794 282.551C267.953 282.551 270.816 281.277 270.975 278.89C271.134 277.617 270.498 276.662 270.021 276.344ZM267.158 281.437L256.982 285.415C256.664 283.983 256.187 282.551 255.233 280.959L267.476 277.14C268.112 277.14 268.748 277.14 269.225 277.299C269.372 277.373 269.494 277.487 269.578 277.628C269.662 277.769 269.706 277.93 269.703 278.094C269.862 279.686 267.953 280.959 267.158 281.437Z"/></g><defs><linearGradient id="paint0_linear_834_10490" x1="71.962" x2="82.898" y1="156.538" y2="142.463" gradientUnits="userSpaceOnUse"><stop stop-color="#BC5A32" stop-opacity="0"/><stop offset=".99" stop-color="#BC5A32"/></linearGradient><linearGradient id="paint1_linear_834_10490" x1="90.9" x2="85.072" y1="107.84" y2="94.364" gradientUnits="userSpaceOnUse"><stop stop-color="#BC5A32" stop-opacity="0"/><stop offset=".99" stop-color="#BC5A32"/></linearGradient><linearGradient id="paint2_linear_834_10490" x1="64.25" x2="64.791" y1="129.293" y2="120.811" gradientUnits="userSpaceOnUse"><stop stop-color="#CC7A5E" stop-opacity="0"/><stop offset=".92" stop-color="#AA5F4B"/></linearGradient><linearGradient id="paint3_linear_834_10490" x1="182.376" x2="110.898" y1="278.568" y2="257.022" gradientUnits="userSpaceOnUse"><stop offset=".01" stop-color="#F5B421" stop-opacity="0"/><stop offset=".985" stop-color="#DD6002"/></linearGradient><linearGradient id="paint4_linear_834_10490" x1="133.057" x2="32.553" y1="251.493" y2="247.274" gradientUnits="userSpaceOnUse"><stop offset=".01" stop-color="#F5B421" stop-opacity="0"/><stop offset=".985" stop-color="#DD6002"/></linearGradient><linearGradient id="paint5_linear_834_10490" x1="50.738" x2="69.249" y1="352.135" y2="350.402" gradientUnits="userSpaceOnUse"><stop stop-color="#CC7A5E" stop-opacity="0"/><stop offset=".924" stop-color="#AA5F4B"/></linearGradient><linearGradient id="paint6_linear_834_10490" x1="16.625" x2="59.056" y1="315.62" y2="366.708" gradientUnits="userSpaceOnUse"><stop offset=".01" stop-color="#F5B421" stop-opacity="0"/><stop offset=".985" stop-color="#DD6002"/></linearGradient><clipPath id="clip0_834_10490"><rect width="152" height="304" fill="#fff" rx="6"/></clipPath></defs></svg>