<svg width="152" height="304" viewBox="0 0 152 304" fill="none" xmlns="http://www.w3.org/2000/svg">
<g clip-path="url(#clip0_834_10101)">
<rect width="152" height="304" rx="6" fill="#212130"/>
<path d="M71.8594 155.649L58.1912 200.299L54.1819 210.687C54.1819 210.687 60.0137 218.159 73.8641 221.075C83.3407 223.079 89.7192 223.261 93.9108 222.897C97.3734 222.532 101.565 221.804 99.3781 215.425C96.28 205.948 97.3734 199.934 97.3734 199.934L102.294 173.145L71.8594 155.649Z" fill="#EA9D7D"/>
<path d="M69.6732 179.705C74.2292 186.631 82.2479 192.462 86.804 194.649C93.1825 197.747 97.7386 198.476 97.7386 198.476L101.748 176.243L71.8601 155.649L70.2199 158.748L68.9442 163.85C68.762 164.033 65.4816 173.327 69.6732 179.705Z" fill="url(#paint0_linear_834_10101)"/>
<path d="M122.523 121.752C124.528 125.579 123.981 132.14 123.981 134.327C123.799 141.252 123.252 150.547 121.977 157.836C119.972 168.771 114.505 174.238 108.673 176.061C102.841 177.883 92.9999 174.238 85.8925 170.593C79.8785 167.495 76.4159 164.215 75.5046 160.388C74.5934 156.378 72.771 151.276 72.771 151.276L76.0513 142.528C76.0513 142.528 81.5186 122.481 90.4485 116.103C101.019 108.631 112.135 116.832 112.135 116.832C112.135 116.832 118.878 115.009 122.523 121.752Z" fill="#EA9D7D"/>
<path d="M55.276 211.051H55.0937C54.9264 210.966 54.7864 210.835 54.6897 210.674C54.593 210.513 54.5436 210.328 54.547 210.14L63.1124 183.897C64.7526 178.43 69.6732 160.023 69.6732 160.023C69.7585 159.856 69.8893 159.716 70.0504 159.619C70.2115 159.523 70.3965 159.473 70.5844 159.477C70.7518 159.562 70.8918 159.693 70.9885 159.854C71.0851 160.015 71.1345 160.2 71.1311 160.388L64.5704 184.262C63.1124 189.182 56.005 210.322 56.005 210.322C56.005 210.869 55.6405 211.051 55.276 211.051Z" fill="#CF7653"/>
<path d="M103.388 177.154C101.383 177.154 99.7433 176.79 96.0985 175.879C90.2667 174.421 82.0658 169.865 77.8742 165.855C73.8648 161.846 74.2293 158.019 74.2293 157.837C74.2293 157.472 74.2294 156.925 74.5938 156.925C74.9583 156.925 75.1406 157.29 75.3228 157.654C75.505 158.383 75.505 161.481 78.7854 164.762C82.6125 168.589 90.8134 172.963 96.2807 174.421C101.93 175.696 103.024 176.061 107.215 175.696C111.225 175.332 113.229 173.874 113.229 173.874C113.958 173.327 114.141 173.327 113.776 173.874C113.412 174.238 111.407 176.243 107.398 176.972C105.757 177.154 104.664 177.154 103.388 177.154Z" fill="#B76349"/>
<path d="M76.9622 166.219L77.3267 167.13L78.0556 166.401L76.9622 166.219Z" fill="#A84D3B"/>
<path d="M76.9617 165.126L76.415 166.766L78.4197 166.402L76.9617 165.126ZM86.6206 172.051V174.056L88.6253 173.145L86.6206 172.051ZM81.7001 168.953L81.5178 170.958L83.5225 170.229L81.7001 168.953ZM78.9664 166.948L78.6019 168.953L80.7889 168.406L78.9664 166.948Z" fill="#A84D3B"/>
<path d="M75.6864 163.304L74.9574 165.126H77.1443L75.6864 163.304ZM89.3546 176.425L88.4434 175.332L87.7144 176.607L89.3546 176.425ZM86.8032 174.42L85.7097 172.962L85.163 174.603L86.8032 174.42ZM94.2751 178.247L92.9995 176.972L92.635 178.43L94.2751 178.247ZM99.7424 180.252L98.4667 178.794L97.92 180.434L99.7424 180.252ZM90.0836 173.691L88.9901 173.145V174.785L90.0836 173.691ZM92.635 179.341L91.7238 178.43L91.177 179.705L92.635 179.341ZM85.5275 172.051L84.4341 171.322L84.2518 172.962L85.5275 172.051ZM95.1864 175.878L93.3639 175.149L93.5462 177.336L95.1864 175.878ZM98.649 176.425L97.191 176.243L97.5555 177.883L98.649 176.425ZM101.018 179.341H99.5602L100.107 180.617L101.018 179.341ZM95.9153 178.976L95.3686 177.701L94.4574 178.976H95.9153ZM100.289 183.168L100.471 181.892L99.0135 182.257L100.289 183.168ZM99.9247 185.537L100.107 184.261L98.649 184.626L99.9247 185.537ZM96.8266 185.537L96.0976 186.084L97.0088 186.631L96.8266 185.537ZM97.3733 178.43L96.6443 179.159L97.7378 179.705L97.3733 178.43ZM101.565 177.154L100.471 176.972L100.836 178.065L101.565 177.154ZM98.1023 187.724L97.3733 188.271L98.4667 188.818L98.1023 187.724ZM80.0602 168.771L79.3313 169.318L80.2425 169.864L80.0602 168.771ZM73.864 160.388L73.135 160.934L74.0462 161.481L73.864 160.388ZM92.2705 177.519L91.7238 176.972L91.5415 177.883L92.2705 177.519ZM87.1677 176.061L87.3499 175.332H86.4387L87.1677 176.061ZM89.7191 177.701L90.0836 176.972H89.1724L89.7191 177.701ZM93.5462 181.346L93.9107 182.257L94.8219 181.528L93.5462 181.346ZM98.8312 177.701L98.2845 178.247L99.0135 178.612L98.8312 177.701Z" fill="#A84D3B"/>
<path d="M99.1958 176.79L98.2846 177.519L99.378 178.065L99.1958 176.79ZM97.0089 177.519L96.2799 178.065L97.0089 178.43V177.519ZM97.7379 190.458L97.0089 190.822L97.7379 191.369V190.458ZM95.7332 188.453L96.0977 189.182L96.6444 188.453H95.7332ZM95.5509 184.079L95.9154 184.808L96.4622 184.079H95.5509ZM99.0135 185.719L98.4668 185.355L98.2846 186.084L99.0135 185.719ZM73.6818 177.154L74.0463 177.519L74.4108 176.972L73.6818 177.154ZM77.1444 174.967L76.7799 175.332H77.3267L77.1444 174.967ZM80.7893 181.346L80.2425 181.163L80.4248 181.892L80.7893 181.346ZM78.9668 178.248L78.6024 178.794H79.3313L78.9668 178.248ZM91.5416 184.079L91.3594 185.173L92.4528 184.626L91.5416 184.079ZM89.9014 175.878V176.79L90.8126 176.425L89.9014 175.878ZM89.9014 174.056V174.967L90.9949 174.42L89.9014 174.056ZM75.8687 168.406V169.5L76.7799 168.953L75.8687 168.406ZM97.7379 181.71L96.8266 181.892L97.5556 182.621L97.7379 181.71ZM95.0042 189.364L94.6397 188.635L93.9107 189.364H95.0042ZM95.5509 179.888L96.0977 180.617L96.6444 179.705L95.5509 179.888ZM98.4668 180.981L99.0135 181.892L99.5603 180.799L98.4668 180.981ZM100.289 177.519L99.7425 178.248L100.654 178.43L100.289 177.519ZM99.1958 183.35L98.4668 182.804V183.897L99.1958 183.35ZM78.6024 167.131L77.5089 167.86L78.7846 168.589L78.6024 167.131ZM74.9575 168.589L74.4108 168.042L74.2285 168.953L74.9575 168.589ZM71.3127 166.766L70.9482 166.402L70.7659 167.131L71.3127 166.766ZM70.4014 172.416L70.5837 171.687H69.8547L70.4014 172.416ZM77.3267 168.406L77.6912 169.135L78.4201 168.406H77.3267ZM75.1397 166.584L75.6865 167.677L76.5977 166.766L75.1397 166.584ZM74.7753 161.663L74.0463 162.757L75.5042 162.939L74.7753 161.663ZM80.2425 170.411L79.6958 170.776L80.4248 171.322L80.2425 170.411ZM81.7005 169.682L81.1538 170.047L81.8827 170.411L81.7005 169.682ZM83.1584 170.411L82.6117 170.776L83.1584 171.322V170.411ZM80.4248 175.332L80.0603 174.967L79.8781 175.696L80.4248 175.332ZM69.4902 169.135L69.8547 169.682L70.4014 168.953L69.4902 169.135ZM73.6818 164.944L73.1351 165.308L73.864 165.673L73.6818 164.944ZM73.4996 171.687L72.9528 171.322L72.7706 172.051L73.4996 171.687ZM74.0463 164.215L74.4108 164.762L74.9575 164.033L74.0463 164.215ZM75.8687 165.126L76.2332 165.855L76.7799 165.126H75.8687ZM71.6771 163.304L71.1304 163.85L71.8594 164.033L71.6771 163.304ZM72.2239 161.481L71.6771 161.117L71.4949 161.846L72.2239 161.481ZM81.8827 171.505V172.234L82.794 171.869L81.8827 171.505ZM85.3453 172.962L84.6164 173.145L85.1631 173.691L85.3453 172.962ZM83.8874 171.505L83.1584 171.687L83.7052 172.234L83.8874 171.505ZM96.0977 176.972L95.3687 177.154L95.9154 177.701L96.0977 176.972ZM93.364 175.878L92.8173 176.061L93.1818 176.607L93.364 175.878ZM84.7986 177.154L84.6164 176.607L84.0697 177.154H84.7986ZM95.0042 186.266L94.822 185.719L94.2752 186.266H95.0042ZM83.8874 175.332L83.5229 174.785L82.9762 175.332H83.8874ZM88.6257 174.238V175.149L89.3547 174.785L88.6257 174.238ZM91.5416 174.967V175.696L92.2706 175.332L91.5416 174.967ZM94.822 176.607L94.093 176.79L94.6397 177.336L94.822 176.607ZM92.2706 180.252L91.9061 179.705L91.5416 180.252H92.2706ZM84.4341 180.07V180.799L85.1631 180.434L84.4341 180.07ZM87.8967 178.248L87.35 178.43L87.7145 178.976L87.8967 178.248ZM94.093 179.705L93.9107 179.159L93.364 179.705H94.093Z" fill="#A84D3B"/>
<path d="M93.5465 133.78C93.2771 133.571 93.0921 133.272 93.0252 132.937C92.9582 132.602 93.0139 132.255 93.182 131.958C93.3642 131.776 96.2801 127.402 102.841 127.949C103.57 127.949 104.117 128.678 104.117 129.407C104.117 130.136 103.388 130.682 102.659 130.682C97.7381 130.318 95.7334 133.416 95.5512 133.598C94.8222 134.327 93.7287 133.963 93.5465 133.78ZM120.883 130.682C120.701 130.682 120.336 130.682 120.154 130.5C118.878 129.589 117.42 129.771 117.238 129.771C116.509 129.953 115.78 129.407 115.598 128.678C115.416 127.949 115.962 127.22 116.691 127.037C116.874 127.037 119.425 126.308 121.794 128.313C122.341 128.678 122.341 129.589 121.976 130.136C121.794 130.5 121.247 130.682 120.883 130.682Z" fill="#AF361A"/>
<path d="M104.117 165.855C97.1915 165.491 94.2757 160.57 93.5467 157.837C93.3644 157.108 93.7289 156.379 94.4579 156.196C95.1869 156.014 95.9158 156.379 96.0981 157.108C96.0981 157.29 97.556 162.757 104.117 163.122C104.846 163.122 105.392 163.851 105.392 164.397C105.392 165.308 104.846 165.855 104.117 165.855Z" fill="#CF7653"/>
<path d="M110.495 155.832H110.131C109.402 155.832 109.037 155.103 109.037 154.556C109.037 153.827 109.766 153.462 110.313 153.462C110.677 153.462 111.589 153.462 111.953 152.369C112.317 151.275 111.406 149.635 111.042 149.089C110.677 148.542 110.677 147.813 111.224 147.448C111.771 147.084 112.5 147.084 112.864 147.631C113.046 147.995 115.051 150.546 114.322 153.098C113.593 155.285 111.589 155.832 110.495 155.832Z" fill="#B4603F"/>
<path d="M100.471 145.991C101.88 145.991 103.023 144.849 103.023 143.44C103.023 142.03 101.88 140.888 100.471 140.888C99.0622 140.888 97.9199 142.03 97.9199 143.44C97.9199 144.849 99.0622 145.991 100.471 145.991Z" fill="#4F2B23"/>
<path d="M99.9244 142.71C99.5599 142.71 98.2842 143.075 98.1019 142.71C97.9197 142.164 98.8309 141.252 99.5599 140.888C101.382 139.977 102.84 140.159 103.387 140.159C103.629 140.159 103.86 140.255 104.031 140.426C104.202 140.597 104.298 140.828 104.298 141.07C104.298 141.312 104.202 141.544 104.031 141.714C103.86 141.885 103.629 141.981 103.387 141.981C102.84 141.981 101.747 141.981 100.289 142.528C100.289 142.71 100.107 142.71 99.9244 142.71Z" fill="#4F2B23"/>
<path d="M119.424 144.533C120.834 144.533 121.976 143.391 121.976 141.982C121.976 140.572 120.834 139.43 119.424 139.43C118.015 139.43 116.873 140.572 116.873 141.982C116.873 143.391 118.015 144.533 119.424 144.533Z" fill="#4F2B23"/>
<path d="M118.877 141.252C118.513 141.252 117.237 141.617 117.055 141.252C116.873 140.706 117.784 139.794 118.513 139.43C120.335 138.519 121.793 138.701 122.34 138.701C122.582 138.701 122.814 138.797 122.984 138.968C123.155 139.139 123.251 139.37 123.251 139.612C123.251 139.854 123.155 140.086 122.984 140.256C122.814 140.427 122.582 140.523 122.34 140.523C121.793 140.523 120.7 140.523 119.242 141.07C119.242 141.252 119.06 141.252 118.877 141.252Z" fill="#4F2B23"/>
<path d="M105.757 151.275L106.85 150.729L105.575 149.817L105.757 151.275ZM91.9063 149.635L91.5418 148.542L90.6306 149.453L91.9063 149.635ZM109.584 150.182H111.224L110.313 148.542L109.584 150.182ZM106.668 144.715L107.761 145.626L108.126 144.168L106.668 144.715ZM107.397 143.074L109.037 142.163L107.579 141.07L107.397 143.074ZM110.313 157.654L111.771 156.925L110.495 155.831L110.313 157.654ZM114.504 156.014L115.233 154.374L113.593 154.738L114.504 156.014ZM105.392 149.817L104.117 150L104.846 151.458L105.392 149.817Z" fill="#F4B9A6"/>
<path d="M106.486 148.178L105.028 148.36L105.939 149.636L106.486 148.178ZM105.574 155.103L105.939 156.379L107.215 155.467L105.574 155.103ZM105.939 157.654L107.032 158.383L107.397 156.925L105.939 157.654ZM112.135 162.028L110.859 162.21L111.771 163.486L112.135 162.028ZM109.401 134.327L108.855 135.238H110.313L109.401 134.327ZM109.948 142.346L108.855 141.981L109.219 143.075L109.948 142.346ZM111.406 138.336L110.313 138.154L110.677 139.43L111.406 138.336ZM103.752 143.439L103.387 144.715L104.845 144.35L103.752 143.439ZM105.21 137.972L104.116 138.519L105.21 139.43V137.972ZM99.9249 139.248L99.1959 139.43L99.5604 140.159L99.9249 139.248ZM109.948 161.846L108.855 162.028L109.584 163.121L109.948 161.846ZM108.673 161.117L107.579 161.299L108.308 162.393L108.673 161.117ZM99.7426 153.28H98.6492L99.1959 154.374L99.7426 153.28ZM102.294 155.467L101.201 155.65L101.747 156.561L102.294 155.467ZM99.1959 149.453L98.8314 150.547L100.289 150.182L99.1959 149.453ZM105.028 148.724L104.845 147.813L103.752 148.542L105.028 148.724ZM115.962 159.112L116.509 158.383H115.415L115.962 159.112ZM111.953 155.832L112.5 156.561L112.864 155.285L111.953 155.832ZM119.425 148.724V149.636L120.154 149.271L119.425 148.724ZM115.78 152.187L116.509 152.369V151.458L115.78 152.187Z" fill="#F4B9A6"/>
<path d="M119.608 150L119.972 149.453L119.061 149.271L119.608 150ZM97.0094 141.799L96.4627 142.528H97.3739L97.0094 141.799ZM107.762 137.607L109.22 137.425L108.308 136.149L107.762 137.607ZM107.579 153.645L109.22 153.28L108.126 152.005L107.579 153.645ZM106.486 143.075L105.393 142.892L105.575 143.986L106.486 143.075ZM97.5561 150.182V149.089L96.2804 149.453L97.5561 150.182ZM104.846 139.794V141.07L106.304 140.523L104.846 139.794ZM103.206 142.346V143.621L104.846 142.892L103.206 142.346ZM104.664 141.252L104.481 142.528L105.939 141.981L104.664 141.252ZM115.416 141.799L116.509 142.346V141.07L115.416 141.799ZM106.304 146.902L105.757 145.991L105.028 146.902H106.304ZM110.495 160.57L109.584 160.934L110.313 161.663L110.495 160.57ZM106.122 153.28L105.757 154.009H107.033L106.122 153.28ZM106.851 158.93L106.486 158.019L105.939 158.93H106.851ZM108.491 159.841L109.22 159.294L108.126 158.747L108.491 159.841ZM109.037 157.836L109.949 157.29L108.855 156.561L109.037 157.836ZM108.673 156.561L109.584 156.014L108.491 155.285L108.673 156.561ZM108.673 151.822L109.584 151.276L108.491 150.547L108.673 151.822ZM106.486 151.822L107.215 152.551L107.579 151.64L106.486 151.822ZM115.416 160.205L114.322 160.57L115.051 161.299L115.416 160.205ZM111.042 150.911L110.678 151.64L111.771 151.822L111.042 150.911ZM112.682 160.752L112.136 160.205L111.589 160.934L112.682 160.752ZM106.851 163.668L107.033 164.579L108.126 164.033L106.851 163.668ZM104.664 158.201L103.57 158.565L104.299 159.294L104.664 158.201ZM95.5515 146.537L95.0047 145.808L94.458 146.719L95.5515 146.537ZM105.028 160.57L105.757 160.934L105.939 160.023L105.028 160.57ZM102.294 158.565L103.206 158.93V158.019L102.294 158.565ZM100.29 165.673L99.743 166.402L100.837 166.219L100.29 165.673ZM98.8318 164.397L97.9206 164.215L98.1029 165.126L98.8318 164.397ZM97.0094 164.033H96.0982L96.2804 164.944L97.0094 164.033ZM107.397 149.818L109.22 149.635L107.762 147.813L107.397 149.818ZM106.304 145.444L106.668 146.355L107.397 145.444H106.304Z" fill="#F4B9A6"/>
<path d="M106.304 147.084L107.215 148.542L108.491 147.084H106.304ZM111.224 145.079L109.766 146.173L111.771 146.902L111.224 145.079ZM99.014 146.902L99.1963 146.173L98.1028 146.537L99.014 146.902ZM109.949 146.72L109.402 147.266L110.313 147.813L109.949 146.72ZM106.85 140.888L107.944 140.706L107.215 139.794L106.85 140.888ZM113.776 143.804L115.051 143.621L114.14 142.71L113.776 143.804ZM106.121 143.439L107.215 143.075L106.486 142.164L106.121 143.439ZM114.505 138.701L115.598 138.519L114.869 137.607L114.505 138.701ZM110.86 135.967L109.949 136.332L111.042 136.878L110.86 135.967ZM101.748 138.336L101.93 137.425L100.836 137.972L101.748 138.336ZM101.748 152.551L101.565 153.827L103.023 153.463L101.748 152.551ZM100.107 151.822H99.014L99.5607 153.098L100.107 151.822ZM102.112 156.925L101.748 158.019L103.023 157.654L102.112 156.925ZM104.117 152.369V153.645L105.392 153.098L104.117 152.369ZM102.659 154.556V156.014L104.299 155.467L102.659 154.556ZM101.565 150.911L101.748 150L100.654 150.547L101.565 150.911ZM116.509 144.533L117.603 144.35L116.874 143.621L116.509 144.533ZM112.682 140.523L113.047 141.435L113.776 140.706L112.682 140.523ZM119.79 154.009L120.701 153.827L119.972 153.098L119.79 154.009ZM103.935 138.336V137.607L103.023 137.972L103.935 138.336ZM110.495 141.07L110.313 142.164L111.589 141.799L110.495 141.07ZM109.22 138.883L109.037 139.977L110.313 139.612L109.22 138.883ZM111.953 146.902L113.593 148.178L114.322 146.173L111.953 146.902ZM114.14 150L115.963 149.453L114.869 147.813L114.14 150ZM107.944 150.547L108.673 150.729L108.491 150L107.944 150.547ZM107.944 145.991L107.579 146.72H108.673L107.944 145.991ZM110.131 143.804H109.037L109.766 144.715L110.131 143.804ZM113.593 144.533H112.5L113.047 145.808L113.593 144.533Z" fill="#F4B9A6"/>
<path d="M110.313 145.08L112.135 144.168L110.313 142.893V145.08ZM113.411 136.879L114.14 135.967L112.682 135.785L113.411 136.879ZM107.943 155.103L108.672 154.009L107.214 153.827L107.943 155.103ZM108.49 147.084L110.13 146.173L108.672 145.08L108.49 147.084ZM110.859 139.612L111.406 140.159L111.771 139.248L110.859 139.612ZM113.046 141.617L111.771 143.075L114.14 143.439L113.046 141.617ZM114.869 139.248L114.322 140.159L115.415 140.341L114.869 139.248ZM115.415 146.355L115.962 147.084L116.509 146.173L115.415 146.355ZM113.046 138.154L112.5 138.883L113.593 139.066L113.046 138.154ZM98.1024 146.355L96.8267 146.72L97.7379 147.631L98.1024 146.355ZM103.205 144.715L102.476 145.626L103.752 145.809L103.205 144.715ZM102.294 146.355L102.112 145.444L101.2 146.173L102.294 146.355ZM101.018 147.266V146.355L100.107 146.902L101.018 147.266Z" fill="#F4B9A6"/>
<path d="M110.495 143.804L109.219 142.528C109.219 142.528 110.313 141.07 112.135 141.07C113.958 141.07 115.233 141.982 115.233 142.164L114.14 143.622C114.14 143.622 113.411 142.893 112.318 142.893C111.406 142.893 110.495 143.804 110.495 143.804Z" fill="white"/>
<path d="M121.612 152.552C118.331 152.369 115.78 147.813 115.962 142.71C116.144 137.608 119.06 133.234 122.341 133.234C122.887 133.234 123.616 133.416 124.163 133.598V131.594C123.616 131.411 123.07 131.229 122.523 131.229C118.149 131.047 114.504 136.332 114.322 142.528C114.14 148.907 117.42 154.374 121.794 154.374H122.523L122.705 152.552H121.612Z" fill="white"/>
<path d="M129.995 143.257C130.177 137.79 127.808 132.869 124.163 131.593V133.598C126.532 135.056 128.172 138.701 127.99 143.257C127.808 147.995 125.439 152.004 122.523 152.733L122.341 154.556C126.532 154.374 129.813 149.453 129.995 143.257Z" fill="#CCCCCC"/>
<path d="M84.252 140.341C84.252 140.341 91.5417 128.313 97.7379 124.668C105.028 120.477 117.056 117.925 117.056 117.925L85.1632 107.902L84.252 140.341Z" fill="url(#paint1_linear_834_10101)"/>
<path d="M66.7565 169.682C66.7565 169.682 48.35 162.028 46.3453 143.075C44.3406 124.121 55.8219 112.822 55.8219 112.822L55.0929 106.262C55.0929 106.262 47.2565 104.075 44.8874 93.5046C42.7004 84.3925 49.9901 76.3738 58.3733 73.2757C68.5789 69.4486 80.4247 74.7336 83.5228 83.8458C86.2564 91.5 82.2471 96.785 82.2471 96.785L85.5275 100.794C85.5275 100.794 97.3732 93.8691 109.948 100.977C122.34 108.084 129.63 121.206 131.27 122.846C132.364 123.757 123.616 125.215 114.14 123.757C104.663 122.299 95.1863 118.836 92.8172 117.561C90.8125 116.103 90.6303 117.014 90.8125 120.112C91.177 124.85 91.3592 138.883 82.4293 142.346C78.6022 143.804 76.2331 142.71 76.2331 142.71L66.7565 169.682Z" fill="#C94112"/>
<path d="M55.6402 113.187L86.257 100.43L83.8879 94.7803L52.7244 106.991L55.6402 113.187Z" fill="url(#paint2_linear_834_10101)"/>
<path d="M68.7616 159.658C74.0961 159.658 78.4205 155.008 78.4205 149.271C78.4205 143.534 74.0961 138.883 68.7616 138.883C63.4272 138.883 59.1028 143.534 59.1028 149.271C59.1028 155.008 63.4272 159.658 68.7616 159.658Z" fill="#EA9D7D"/>
<path d="M69.3079 153.827C71.7235 153.827 73.6817 151.787 73.6817 149.271C73.6817 146.755 71.7235 144.715 69.3079 144.715C66.8923 144.715 64.9341 146.755 64.9341 149.271C64.9341 151.787 66.8923 153.827 69.3079 153.827Z" fill="url(#paint3_linear_834_10101)"/>
<path d="M75.1403 155.832C73.5002 157.654 71.131 158.748 68.7619 158.748C63.8413 158.748 59.832 154.374 59.832 149.089C59.832 143.804 63.8413 139.43 68.7619 139.43C72.2245 139.43 75.3226 141.617 76.7805 144.715C76.7805 144.715 77.145 144.898 77.6918 144.533C78.2385 144.169 78.0562 143.44 78.0562 143.44C76.2338 140.159 72.7712 137.79 68.9441 137.79C63.1123 137.79 58.374 142.711 58.374 148.907C58.374 154.921 63.1123 160.024 68.9441 160.024C71.4955 160.024 73.5002 159.295 75.3226 157.837L75.1403 155.832Z" fill="#B76349"/>
<path d="M73.3173 150.365V149.636L72.5884 149.818L73.3173 150.365ZM70.2192 144.897L69.4902 145.08L70.037 145.809L70.2192 144.897Z" fill="#964C38"/>
<path d="M70.0366 145.08L69.1254 146.173L70.7656 146.538L70.0366 145.08ZM68.3964 144.897L67.303 145.262L68.2142 146.173L68.3964 144.897ZM73.1347 147.631L72.588 147.996L73.317 148.36L73.1347 147.631ZM71.4945 146.72L70.9478 147.267L71.6768 147.449L71.4945 146.72Z" fill="#964C38"/>
<path d="M72.5885 147.995L72.2241 148.542L72.953 148.906L72.5885 147.995ZM68.5792 146.537L68.0325 146.902L68.9437 147.266L68.5792 146.537Z" fill="#964C38"/>
<path d="M67.6676 145.991L66.9387 146.902L68.2144 147.267L67.6676 145.991ZM70.7658 149.271L71.1302 149.636L71.3125 149.089L70.7658 149.271ZM72.7704 147.084L72.5882 147.449H73.1349L72.7704 147.084ZM73.1349 148.725L72.9527 149.271H73.4994L73.1349 148.725ZM66.5742 145.809L65.8452 146.538L66.9387 146.72L66.5742 145.809ZM68.0321 148.542H67.6676L67.8499 149.089L68.0321 148.542ZM69.1256 150.183L68.9433 149.636L68.5789 150L69.1256 150.183ZM70.5835 145.626L70.948 145.262L70.4013 144.897L70.5835 145.626ZM68.3966 145.626L67.8499 146.173L68.7611 146.355L68.3966 145.626ZM67.4854 146.173L66.9387 145.809V146.538L67.4854 146.173Z" fill="#964C38"/>
<path d="M67.4857 146.173V145.626H66.939L67.4857 146.173ZM71.8595 146.902L72.224 147.449L72.5885 146.902H71.8595ZM71.1306 145.262L70.9483 146.537L72.224 146.173L71.1306 145.262Z" fill="#964C38"/>
<path d="M70.5834 146.173L71.1301 146.537L71.3124 145.808L70.5834 146.173ZM66.2096 147.813L65.8451 148.36H66.3918L66.2096 147.813ZM69.4899 144.897L68.9432 144.715L69.1255 145.444L69.4899 144.897ZM68.3965 148.177L68.761 148.724L69.1255 147.995L68.3965 148.177ZM69.8544 150.547L69.6722 150.911L70.2189 151.093L69.8544 150.547ZM66.0273 146.537L65.6628 147.084L66.3918 147.266L66.0273 146.537Z" fill="#964C38"/>
<path d="M67.6675 150.547L67.1208 150.364L67.303 150.911L67.6675 150.547ZM65.6628 147.631L66.2096 147.449L65.8451 146.902L65.6628 147.631Z" fill="#964C38"/>
<path d="M65.1163 149.635H65.4808L65.2986 149.089L65.1163 149.635ZM65.4808 147.813L65.8453 147.631L65.663 147.266L65.4808 147.813ZM66.7565 147.266V147.813L67.3032 147.449L66.7565 147.266ZM64.9341 148.906H65.663L65.2986 148.177L64.9341 148.906ZM66.0275 149.089V149.453L66.5743 149.089H66.0275ZM69.6724 146.72L69.1257 147.084L69.6724 147.449V146.72ZM72.2238 149.453L72.406 150.182L72.9528 149.818L72.2238 149.453ZM68.5789 145.444L68.7612 146.173L69.3079 145.626L68.5789 145.444ZM70.4014 147.449L70.0369 147.084L69.8546 147.631L70.4014 147.449Z" fill="#964C38"/>
<path d="M101.565 158.201C96.4622 158.201 92.4529 152.734 92.4529 146.173C92.4529 139.612 96.6445 134.145 101.565 134.145C106.486 134.145 110.677 139.612 110.677 146.173C110.677 152.734 106.486 158.201 101.565 158.201ZM101.565 135.967C97.5557 135.967 94.2753 140.524 94.2753 146.173C94.2753 151.823 97.5557 156.379 101.565 156.379C105.574 156.379 108.855 151.823 108.855 146.173C108.855 140.524 105.574 135.967 101.565 135.967Z" fill="white"/>
<path d="M77.5092 142.893L75.3223 140.523L93.911 143.622L93.7288 145.444L77.5092 142.893Z" fill="white"/>
<path d="M104.117 121.57L103.934 122.481L104.663 122.299L104.117 121.57ZM106.85 122.299L105.939 122.117L106.121 123.028L106.85 122.299ZM105.757 122.299L105.028 121.752L104.846 122.663L105.757 122.299ZM90.813 117.561V119.383L92.6354 118.29L90.813 117.561ZM100.107 120.476L99.7429 121.388L100.836 121.023L100.107 120.476ZM96.827 120.476L97.1915 121.388L97.9204 120.659L96.827 120.476ZM94.4578 122.481V123.028L95.0046 122.663L94.4578 122.481ZM90.9952 123.575V124.668L92.0887 124.304L90.9952 123.575Z" fill="#A84D3B"/>
<path d="M95.5514 118.836L94.8224 118.472L94.6402 119.201L95.5514 118.836ZM102.112 121.023L102.294 121.934L103.023 121.205L102.112 121.023ZM99.014 120.659L99.1963 121.57L99.9252 120.841L99.014 120.659ZM107.215 122.481V123.21L108.126 122.663L107.215 122.481ZM101.748 122.481L102.112 123.21L102.659 122.663L101.748 122.481ZM97.3739 121.752L97.5561 122.481L98.2851 121.934L97.3739 121.752ZM95.9159 120.477L96.0981 121.023L96.8271 120.477H95.9159ZM100.836 121.205L101.383 121.752L101.565 121.205H100.836ZM103.023 121.752L103.206 122.117L103.57 121.57L103.023 121.752ZM108.308 123.028L108.491 123.392L108.855 123.028H108.308ZM91.3598 127.219L90.9954 127.402L91.3598 127.766V127.219ZM93.1823 121.205L93.5467 121.934L94.2757 121.023L93.1823 121.205ZM91.3598 116.649L91.1776 117.561L92.2711 117.196L91.3598 116.649Z" fill="#A84D3B"/>
<path d="M92.0887 117.014L91.9065 118.289L93.3644 117.743L92.0887 117.014ZM91.5419 125.579H90.813L91.1775 126.308L91.5419 125.579ZM91.7242 125.215L91.5419 124.668L90.9952 125.215H91.7242ZM93.9111 125.944L93.7289 125.579L93.3644 125.944H93.9111ZM97.0092 124.486L96.827 123.939L96.4625 124.303L97.0092 124.486ZM98.1027 121.752L99.0139 121.934L98.6494 121.023L98.1027 121.752ZM98.4672 120.841L99.9251 120.294L98.6494 119.93L98.4672 120.841ZM95.0046 120.476L95.1868 121.205L95.7335 120.659L95.0046 120.476ZM95.9158 122.116H96.6447L96.098 121.387L95.9158 122.116ZM91.3597 128.13V128.859L92.0887 128.495L91.3597 128.13ZM92.0887 126.49V126.855L92.4532 126.673L92.0887 126.49ZM94.8223 121.023L94.2756 121.387L95.0046 121.752L94.8223 121.023Z" fill="#A84D3B"/>
<path d="M90.9954 126.491L90.8132 127.038L91.7244 126.673L90.9954 126.491ZM90.8132 128.495L91.3599 128.313L90.8132 127.767V128.495ZM90.6309 130.318L91.1777 129.953L90.6309 129.771V130.318ZM90.6309 129.407L91.1777 129.224L90.8132 128.678L90.6309 129.407ZM90.0842 132.505L90.8132 132.14L90.2665 131.594L90.0842 132.505ZM90.4487 131.229L91.1777 131.047L90.4487 130.318V131.229ZM94.6403 118.472L93.3646 117.743L93.0001 119.201L94.6403 118.472ZM92.4534 122.846L93.0001 123.393L93.3646 122.481L92.4534 122.846Z" fill="#A84D3B"/>
<path d="M96.827 119.383L97.3737 121.023L98.4672 119.747L96.827 119.383ZM91.5419 123.21L92.0887 123.757L92.4532 122.663L91.5419 123.21ZM99.9251 121.934L100.654 122.299V121.388L99.9251 121.934ZM90.813 119.383V120.476L91.9065 119.747L90.813 119.383ZM92.9999 123.939H92.2709L92.8177 124.668L92.9999 123.939ZM92.6354 121.752L91.9065 122.117L92.6354 122.663V121.752ZM94.4578 119.565L94.6401 120.294L95.1868 119.747L94.4578 119.565ZM92.2709 118.472L92.4532 119.201L92.9999 118.654L92.2709 118.472ZM92.2709 121.388L90.9952 121.023V122.481L92.2709 121.388ZM91.7242 120.294L91.1775 120.659L91.7242 121.205V120.294ZM94.2756 119.93L93.5466 120.112L94.2756 120.659V119.93ZM94.2756 118.836L93.5466 119.018L94.0934 119.565L94.2756 118.836Z" fill="#A84D3B"/>
<path d="M91.3596 116.832L90.6306 117.197L91.1773 117.743L91.3596 116.832ZM92.8175 120.295L92.0886 120.477L92.8175 121.024V120.295ZM91.9063 119.019L91.1773 119.201L91.9063 119.748V119.019ZM90.9951 122.482L90.8129 123.028L91.5418 122.846L90.9951 122.482ZM96.8269 119.201L95.5512 118.837L95.9157 120.295L96.8269 119.201Z" fill="#A84D3B"/>
<path d="M102.841 98.4253L103.206 100.43L105.028 99.1543L102.841 98.4253ZM115.234 115.192L114.322 114.827V115.738L115.234 115.192ZM126.897 117.743H126.168L126.533 118.654L126.897 117.743ZM122.341 116.285L122.523 115.374L121.43 115.556L122.341 116.285ZM107.762 101.159L106.85 102.252L108.308 102.799L107.762 101.159ZM118.332 112.64L117.785 113.551L119.061 113.734L118.332 112.64ZM121.248 110.818L120.883 112.64L122.888 112.276L121.248 110.818Z" fill="#FF593E"/>
<path d="M120.337 109.542L119.79 111.364L121.795 111.182L120.337 109.542ZM100.108 98.0607L98.65 97.8784L99.1967 99.7008L100.108 98.0607ZM98.4677 97.8784L96.8276 98.0607L97.5565 99.7008L98.4677 97.8784ZM95.5519 100.977L93.5472 101.523L95.0051 103.528L95.5519 100.977ZM94.4584 98.0607L92.8182 98.2429L93.5472 99.8831L94.4584 98.0607ZM115.416 104.986L114.141 104.075L113.776 105.897L115.416 104.986ZM108.673 104.986L109.22 103.163L107.398 103.528L108.673 104.986ZM111.589 106.626L112.318 105.168H110.314L111.589 106.626ZM114.87 108.813L115.416 110.635L116.874 108.813H114.87ZM116.145 105.533L115.781 108.084L118.332 107.537L116.145 105.533ZM113.958 110.089L113.229 110.635L113.958 111V110.089ZM99.7434 104.804L99.0145 105.35L99.7434 105.897V104.804ZM96.4631 102.799L95.7341 103.346L96.6453 103.71L96.4631 102.799ZM97.5565 101.523L96.8276 102.07L97.5565 102.434V101.523ZM93.7294 102.799L93.0004 103.346L93.9117 103.892L93.7294 102.799ZM93.0004 101.706L92.2715 102.252L93.3649 102.617L93.0004 101.706Z" fill="#FF593E"/>
<path d="M91.9067 101.523L91.1777 102.07L92.0889 102.435L91.9067 101.523ZM120.883 116.832L120.337 117.743H121.248L120.883 116.832ZM123.617 116.285L123.07 117.014L123.981 117.196L123.617 116.285ZM118.514 115.921L118.879 116.65L119.425 115.738L118.514 115.921ZM117.603 112.458L118.15 113.187L118.514 112.276L117.603 112.458ZM120.701 111.911L119.79 111.547L119.972 112.458L120.701 111.911ZM95.0048 105.897L95.3693 106.444L95.9161 105.533L95.0048 105.897ZM98.4674 103.164L98.103 103.71H99.0142L98.4674 103.164ZM100.837 110.089L100.472 109.724V110.636L100.837 110.089ZM100.654 106.808L100.472 107.355H101.201L100.654 106.808ZM105.028 114.28H104.481L104.664 114.827L105.028 114.28ZM107.58 114.463V113.916L107.033 114.098L107.58 114.463ZM113.229 113.005L113.411 114.098L114.323 113.551L113.229 113.005ZM112.682 102.981L112.5 104.986L114.323 104.075L112.682 102.981ZM99.3787 100.065L99.1964 101.341L100.472 100.794L99.3787 100.065ZM119.243 108.449L118.332 107.537L117.785 108.995L119.243 108.449Z" fill="#FF593E"/>
<path d="M120.336 109.542L119.425 108.63L118.878 110.088L120.336 109.542ZM124.528 114.28L123.617 113.186L123.07 115.009L124.528 114.28ZM118.149 117.378L117.42 116.649L117.238 117.743L118.149 117.378ZM117.056 108.266L117.603 109.177L118.332 108.084L117.056 108.266ZM116.874 110.635L117.603 111.546L118.149 110.453L116.874 110.635ZM117.603 109.359L118.149 110.271L118.696 108.995L117.603 109.359ZM108.673 109.542L107.944 110.453L108.855 110.635L108.673 109.542ZM119.972 110.088H119.061L119.425 111.182L119.972 110.088ZM92.9999 100.43L92.271 100.976L93.3644 101.523L92.9999 100.43ZM92.9999 99.1538L92.271 99.7005L93.1822 100.247L92.9999 99.1538ZM90.813 100.247L91.7242 101.158L92.271 99.5183L90.813 100.247ZM90.0841 99.8828L89.1729 100.612L90.4485 101.341L90.0841 99.8828Z" fill="#FF593E"/>
<path d="M100.472 99.3363L99.925 98.7896L99.7428 99.5185L100.472 99.3363ZM90.6307 100.247L90.8129 98.7896L88.9905 99.3363L90.6307 100.247Z" fill="#FF593E"/>
<path d="M92.2709 100.065L92.4532 98.4253L90.813 98.7898L92.2709 100.065ZM97.1915 98.7898L98.1027 100.43L99.3784 98.972L97.1915 98.7898ZM97.7382 100.612L98.1027 101.888L99.3784 100.794L97.7382 100.612ZM101.201 101.523L101.383 102.252L102.112 101.523H101.201Z" fill="#FF593E"/>
<path d="M102.294 98.9719L99.9248 100.065L101.93 101.888L102.294 98.9719ZM96.6445 97.8784H95.1865L95.9155 99.7008L96.6445 97.8784Z" fill="#FF593E"/>
<path d="M102.477 98.4249L100.472 98.2427L101.201 99.5184L102.477 98.4249ZM101.201 103.345L100.654 102.981V103.71L101.201 103.345ZM95.7336 101.523L96.0981 102.434L96.827 101.523H95.7336ZM95.7336 99.7006L96.827 100.976L97.1915 98.7894L95.7336 99.7006ZM89.7196 103.163L89.1729 103.528L89.9018 103.71L89.7196 103.163ZM95.0046 100.065L94.2756 99.5184L94.0934 100.976L95.0046 100.065Z" fill="#FF593E"/>
<path d="M95.5519 99.3361L95.0051 98.2427L93.9117 99.7006L95.5519 99.3361ZM91.5425 104.074L92.0892 104.803L92.4537 104.074H91.5425ZM93.9117 107.173L93.1827 107.902L93.9117 108.084V107.173ZM87.8976 100.43L86.8042 101.705L88.4444 102.252L87.8976 100.43Z" fill="#FF593E"/>
<path d="M88.8086 99.336L87.1685 99.8828L88.6264 101.158L88.8086 99.336ZM91.1778 106.808L90.4488 106.444V107.355L91.1778 106.808ZM89.1732 102.616H89.9021L89.5376 101.705L89.1732 102.616ZM93.9114 104.621H94.4582L94.2759 103.892L93.9114 104.621ZM85.346 100.976L86.4395 102.07L86.804 100.247L85.346 100.976ZM83.5236 101.705L84.7993 102.799L85.1638 100.976L83.5236 101.705ZM81.5189 102.616L82.9769 103.71V101.887L81.5189 102.616ZM79.332 103.528L80.9722 104.803L81.3367 102.616L79.332 103.528ZM93.0002 105.532V106.261L93.547 105.897L93.0002 105.532ZM95.0049 104.803L95.7339 104.986V104.074L95.0049 104.803ZM89.1732 104.439V104.986L89.9021 104.621L89.1732 104.439ZM98.6498 106.079L97.9208 106.261L98.2853 106.99L98.6498 106.079ZM96.0984 108.63L95.1871 108.813L95.7339 109.542L96.0984 108.63ZM103.57 100.612L103.206 101.523L104.299 101.158L103.57 100.612ZM108.673 100.612L107.033 99.8828L106.851 101.887L108.673 100.612ZM106.851 99.8828L105.028 99.1538V101.705L106.851 99.8828Z" fill="#FF593E"/>
<path d="M105.757 105.35L105.028 103.892L103.934 105.168L105.757 105.35ZM117.603 115.009L117.238 114.645L116.874 115.373L117.603 115.009ZM104.846 103.528L104.481 102.981L103.934 103.528H104.846ZM110.495 101.705L110.677 103.528L112.318 102.799L110.495 101.705ZM106.486 107.173V108.084L107.397 107.537L106.486 107.173ZM108.49 100.612L108.673 102.434L110.313 101.523L108.49 100.612ZM110.495 108.266L110.677 109.177L111.406 108.63L110.495 108.266ZM111.406 111V111.911L112.318 111.364L111.406 111ZM115.598 105.715L114.869 105.897L115.416 106.444L115.598 105.715ZM113.046 105.897L112.682 105.35L112.318 106.079L113.046 105.897ZM114.504 108.63L113.958 107.902L113.593 108.813L114.504 108.63ZM120.883 114.645L122.341 113.916L120.883 112.822V114.645ZM120.154 116.285L119.607 117.014H120.701L120.154 116.285ZM125.621 115.738L124.892 116.831H126.35L125.621 115.738ZM120.518 119.201L121.065 120.112L121.612 119.201H120.518ZM121.976 113.369L122.888 113.916L123.07 112.822L121.976 113.369ZM123.07 115.738L124.163 116.102V114.827L123.07 115.738ZM125.074 119.565L124.346 119.018L124.163 119.93L125.074 119.565ZM120.518 115.009L119.972 114.462L119.789 115.373L120.518 115.009ZM105.575 109.177V110.088L106.303 109.542L105.575 109.177ZM109.219 106.626L108.49 106.99L109.037 107.537L109.219 106.626ZM108.126 113.369L107.761 112.64L107.397 113.187L108.126 113.369ZM84.7988 109.542L84.2521 109.177L84.4344 109.906L84.7988 109.542ZM89.3549 113.187L88.8082 113.004L89.1727 113.733L89.3549 113.187ZM82.7942 115.556H82.2475L82.6119 116.102L82.7942 115.556ZM91.9063 112.822V112.275L91.1773 112.64L91.9063 112.822ZM77.5091 117.378V116.831L76.9624 117.014L77.5091 117.378ZM86.439 112.093L86.2568 111.364L85.7101 111.729L86.439 112.093ZM89.1727 107.902L89.5372 108.995L90.0839 108.266L89.1727 107.902ZM92.453 111.729L91.9063 111.182L91.5418 111.729H92.453ZM115.78 107.719L115.416 106.99L115.051 107.902L115.78 107.719ZM109.948 105.168L108.673 104.621V106.444L109.948 105.168Z" fill="#FF593E"/>
<path d="M111.042 104.257L110.131 104.075L110.313 104.986L111.042 104.257ZM102.477 105.533L102.659 104.621L101.93 104.804L102.477 105.533ZM102.841 102.07L101.201 103.346L103.024 104.439L102.841 102.07ZM102.112 101.523L101.748 101.888L102.295 102.252L102.112 101.523ZM103.753 105.533L103.388 106.079H104.117L103.753 105.533ZM105.757 102.435L105.211 101.706L104.846 102.617L105.757 102.435ZM106.668 100.977L105.939 100.065L105.393 101.341L106.668 100.977ZM105.028 100.248L104.299 99.3364L103.753 100.612L105.028 100.248ZM110.496 102.617L109.767 101.706L109.22 102.799L110.496 102.617ZM112.5 103.71L111.771 102.799L111.225 104.075L112.5 103.71ZM107.033 104.257L107.215 103.528L106.304 103.892L107.033 104.257ZM105.575 106.626L105.757 105.897L104.846 106.079L105.575 106.626Z" fill="#FF593E"/>
<path d="M106.304 104.075L106.669 105.168L107.58 104.257L106.304 104.075ZM111.954 107.902L112.683 108.631L113.047 107.355L111.954 107.902ZM99.0143 102.07L99.7433 102.617L100.108 101.523L99.0143 102.07ZM103.753 103.346L103.935 104.075L104.664 103.528L103.753 103.346ZM110.313 105.351L109.584 105.715L110.313 106.08V105.351ZM107.944 106.262L107.398 105.715L107.215 106.626L107.944 106.262ZM109.767 108.631L109.402 107.902L109.22 108.813L109.767 108.631ZM103.753 107.72L103.024 107.902L103.753 108.449V107.72ZM110.86 107.173L110.496 106.808L110.313 107.537L110.86 107.173ZM117.421 114.28L117.056 115.192H118.15L117.421 114.28ZM114.869 111.547L115.052 112.64L115.963 112.094L114.869 111.547ZM118.15 111.547L118.332 112.276L119.061 111.547H118.15ZM117.785 111.365H117.056L117.603 111.911L117.785 111.365ZM116.51 110.818L116.145 110.271L115.598 111L116.51 110.818ZM117.968 112.276L117.421 111.911V112.822L117.968 112.276ZM118.15 110.271L117.603 109.907V110.818L118.15 110.271ZM102.659 106.991L102.477 106.262L101.748 106.991H102.659ZM60.5611 111.365L62.0191 112.64L62.7481 110.453L60.5611 111.365ZM60.9256 122.117L60.1966 121.752L60.3789 122.846L60.9256 122.117ZM59.6499 123.393L59.2854 122.481L58.5565 123.21L59.6499 123.393ZM65.6639 111.911V113.551L67.6686 112.64L65.6639 111.911ZM82.248 103.893L82.977 104.622L83.5237 103.346L82.248 103.893ZM88.4443 102.617V103.71L89.3555 103.164L88.4443 102.617ZM55.0938 113.734L53.4537 116.285L56.0051 116.832L55.0938 113.734ZM52.7247 117.014L52.178 118.29L53.4537 117.925L52.7247 117.014ZM56.9163 118.836L56.734 119.748H57.8275L56.9163 118.836ZM54.5471 118.108L54.1826 119.019L55.4584 118.836L54.5471 118.108ZM72.7714 106.444L71.4957 106.991L73.1359 108.449L72.7714 106.444ZM68.9443 113.005L68.5798 112.276L67.8508 113.005H68.9443ZM72.9536 111.182L72.2247 110.089L71.3135 111.547L72.9536 111.182ZM77.692 107.902L78.6032 107.72L78.0564 106.808L77.692 107.902ZM77.3275 110.818V111.729L78.2387 111.182L77.3275 110.818Z" fill="#FF593E"/>
<path d="M59.2853 117.925L58.7386 118.472L59.4676 118.836L59.2853 117.925ZM55.0937 115.92V116.831H56.0049L55.0937 115.92ZM54.9115 120.841L54.7292 121.388H55.6405L54.9115 120.841ZM98.2853 107.355V108.266L99.1965 107.902L98.2853 107.355ZM85.1638 107.355L84.9815 108.084L85.7105 107.902L85.1638 107.355ZM82.6124 108.266L81.8834 108.084L82.2479 108.995L82.6124 108.266ZM83.7059 106.261L83.8881 106.808L84.4348 106.261H83.7059ZM87.8974 107.537L87.1685 107.902L88.0797 108.448L87.8974 107.537ZM89.1731 105.168L89.5376 106.079L90.0844 105.168H89.1731ZM85.346 104.439L86.2572 104.074L85.346 103.528V104.439ZM80.79 105.35L81.7012 104.986L80.79 104.439V105.35ZM83.5236 102.07L83.1591 102.981H84.0703L83.5236 102.07ZM56.3694 119.201L56.9162 119.383V118.654L56.3694 119.201ZM57.8274 116.467L57.6451 117.014H58.3741L57.8274 116.467ZM63.1124 122.481H62.5657L62.7479 123.21L63.1124 122.481ZM60.561 119.747L60.3788 120.294H61.1077L60.561 119.747ZM71.3133 125.579L70.9489 125.944L71.3133 126.308V125.579ZM56.0049 124.486L55.6405 124.121L55.276 124.85L56.0049 124.486ZM80.2432 112.822L81.1544 113.187L80.9722 111.911L80.2432 112.822ZM69.3087 107.902L70.9489 109.542L71.3133 106.99L69.3087 107.902ZM58.5564 113.733L58.7386 114.645L59.6498 113.916L58.5564 113.733ZM79.332 103.892L79.6965 104.621L80.4255 104.074L79.332 103.892ZM86.4395 105.168L85.7105 105.715L86.804 106.261L86.4395 105.168ZM87.5329 102.252L86.4395 102.981L87.8974 103.892L87.5329 102.252ZM84.6171 102.799L83.3413 103.71L85.1638 104.621L84.6171 102.799ZM78.0563 106.808L77.6918 104.439L75.5049 105.35L78.0563 106.808Z" fill="#FF593E"/>
<path d="M80.79 104.621L81.7012 103.892H80.4255L80.79 104.621ZM79.1498 104.075L77.6918 104.439L79.332 105.897L79.1498 104.075ZM72.589 118.836V120.112L73.8647 119.565L72.589 118.836ZM81.8834 102.617L81.7012 103.346H82.6124L81.8834 102.617ZM55.276 119.383L55.0937 120.112L56.0049 119.93L55.276 119.383ZM58.9208 113.551L58.3741 113.187V114.098L58.9208 113.551ZM52.7246 121.023H51.9956L52.3601 121.934L52.7246 121.023ZM54.0003 120.476V119.748L53.2713 120.294L54.0003 120.476ZM55.6405 113.916L56.3694 114.462V113.551L55.6405 113.916ZM60.561 114.098L61.29 114.827L61.6545 113.916L60.561 114.098ZM60.0143 111.547L58.3741 112.276L60.0143 113.734V111.547ZM56.7339 115.374L56.3694 116.649L57.6451 116.467L56.7339 115.374Z" fill="#FF593E"/>
<path d="M61.2894 115.556L59.8315 114.827V116.65L61.2894 115.556ZM56.3689 113.551L57.6446 114.28L57.8268 112.822L56.3689 113.551ZM51.2661 119.201L50.5371 120.841H52.5418L51.2661 119.201ZM56.9156 117.561H55.6399L56.3689 118.836L56.9156 117.561ZM52.5418 119.565L53.2708 119.93V119.019L52.5418 119.565ZM56.0044 120.841L55.8222 121.752L56.7334 121.388L56.0044 120.841ZM53.6353 121.935L52.724 122.117L53.0885 122.846L53.6353 121.935ZM72.0418 111.729L71.3128 112.64L72.5885 112.822L72.0418 111.729Z" fill="#FF593E"/>
<path d="M69.491 109.724L68.5798 110.271L69.6733 111L69.491 109.724ZM72.0424 108.448L71.3135 109.177L72.2247 109.36L72.0424 108.448ZM68.5798 112.458L68.0331 113.005L68.7621 113.551L68.5798 112.458ZM71.3135 111.911L71.8602 112.458L72.0424 111.547L71.3135 111.911ZM57.6453 114.645V116.103L59.1032 115.556L57.6453 114.645ZM62.5658 114.098V114.827L63.2948 114.645L62.5658 114.098ZM75.6873 106.444L76.4163 106.626L76.5985 105.715L75.6873 106.444ZM73.8649 108.266L74.4116 108.448L74.7761 107.902L73.8649 108.266Z" fill="#FF593E"/>
<path d="M63.8416 112.822L64.0238 113.369L64.5706 113.004L63.8416 112.822ZM69.6733 111.547L68.9444 112.276L70.0378 112.64L69.6733 111.547ZM68.2154 111.547L68.5799 110.271L67.122 110.453L68.2154 111.547ZM71.4958 110.453H70.7668V111.182L71.4958 110.453ZM69.3089 113.369L68.9444 113.733L69.6733 113.916L69.3089 113.369ZM66.393 111.729L65.2995 110.635L64.5706 112.458L66.393 111.729ZM53.0893 123.028L53.8182 122.663L53.2715 122.117L53.0893 123.028ZM49.4444 126.49L49.9912 125.944L49.4444 125.579V126.49ZM50.7201 123.939L51.2668 123.757L50.5379 123.21L50.7201 123.939ZM49.2622 127.584L49.8089 128.131L49.9912 127.584H49.2622ZM50.7201 125.944L51.4491 125.579L50.9024 125.033L50.7201 125.944ZM49.9912 121.752L50.9024 122.846L51.6313 121.57L49.9912 121.752ZM49.2622 123.028L48.5332 124.668L50.7201 124.486L49.2622 123.028ZM49.4444 126.673L49.0799 127.037L49.8089 127.219L49.4444 126.673ZM62.2014 112.822L62.3836 113.551L63.1126 113.004L62.2014 112.822ZM64.3883 109.724L62.7481 110.635L64.3883 111.911V109.724Z" fill="#FF593E"/>
<path d="M63.8411 111.911L63.2943 112.093L63.8411 112.822V111.911ZM67.4859 116.467L66.3925 115.738L66.028 117.196L67.4859 116.467ZM83.341 105.715L82.7943 106.079L83.5233 106.444L83.341 105.715ZM81.7009 106.444L82.4298 106.079L81.7009 105.35V106.444ZM75.3224 112.458L76.7803 113.551L77.1448 111.364L75.3224 112.458ZM79.3317 108.449L80.4252 108.995V107.537L79.3317 108.449ZM73.4999 109.724L75.5046 109.906L74.5934 107.72L73.4999 109.724ZM66.9392 114.827L68.0327 115.009L67.6682 113.734L66.9392 114.827ZM78.6027 106.991H79.6962L79.1495 105.715L78.6027 106.991ZM86.9859 105.533L88.9906 105.35L87.7149 103.346L86.9859 105.533ZM82.4298 105.715L84.6168 105.35L83.341 103.346L82.4298 105.715ZM75.5046 108.084L77.3271 108.995V106.626L75.5046 108.084ZM82.4298 110.818L81.5186 111L82.2476 111.729L82.4298 110.818ZM80.9719 105.35L79.3317 105.533L80.6074 106.991L80.9719 105.35ZM86.4392 101.706L84.799 102.07L86.0747 103.346L86.4392 101.706ZM78.9672 109.906L78.2383 109.724L78.6027 110.453L78.9672 109.906ZM64.7523 114.827L64.3878 114.28L64.0233 115.192L64.7523 114.827ZM67.4859 108.631L69.4906 110.271L69.1261 107.902L67.4859 108.631ZM71.313 114.645L72.771 115.556L72.9532 113.734L71.313 114.645ZM64.7523 109.724L66.9392 111.364L66.757 108.813L64.7523 109.724ZM74.2289 113.005L74.7756 113.369L74.9579 112.458L74.2289 113.005ZM56.3691 118.836L56.5514 119.748L57.2804 119.201L56.3691 118.836ZM72.9532 106.262L74.4112 107.537L74.2289 105.715L72.9532 106.262ZM73.3177 109.542L72.771 109.36L72.9532 110.089L73.3177 109.542Z" fill="#FF593E"/>
<path d="M76.5982 109.724H75.8693L76.2337 110.453L76.5982 109.724ZM67.6683 119.747L68.2151 120.659L68.7618 119.747H67.6683ZM68.5795 117.378L68.2151 117.925L68.944 118.107L68.5795 117.378ZM65.6637 115.191L65.4814 114.28L64.7524 114.827L65.6637 115.191Z" fill="#FF593E"/>
<path d="M64.0233 119.383L63.4766 120.112H64.3878L64.0233 119.383ZM65.1167 114.462H64.0233L64.57 115.556L65.1167 114.462Z" fill="#FF593E"/>
<path d="M64.57 114.098L64.7523 114.645L65.299 114.28L64.57 114.098ZM63.1121 114.645L61.8364 114.827L62.7476 116.103L63.1121 114.645ZM61.4719 117.014L61.6541 117.925L62.3831 117.378L61.4719 117.014ZM66.2102 117.56L66.7569 118.289L67.3037 117.56H66.2102ZM60.7429 119.018L61.1074 119.93L61.8364 119.383L60.7429 119.018ZM64.2055 115.556L63.4766 115.92L64.2055 116.649V115.556ZM74.0466 122.117L73.4999 121.752L73.3177 122.481L74.0466 122.117ZM76.2336 106.99L75.3223 107.173L75.8691 107.902L76.2336 106.99ZM63.841 119.201L63.4766 118.654L63.1121 119.383L63.841 119.201ZM69.4906 72.3643L69.6728 74.3689L71.4952 73.0932L69.4906 72.3643ZM77.1448 88.5839L76.598 87.8549L76.0513 88.7661L77.1448 88.5839ZM75.8691 87.3082L75.3223 86.7614L74.9579 87.6726L75.8691 87.3082ZM81.5186 91.682L82.2476 90.953L81.3364 90.5885L81.5186 91.682ZM74.4111 75.0979L73.3177 76.1914L74.9579 76.7381L74.4111 75.0979ZM78.6027 85.4857L77.6915 86.2147L78.6027 86.7614V85.4857ZM84.07 86.7614L82.612 88.0371L84.4345 88.9483L84.07 86.7614Z" fill="#FF593E"/>
<path d="M83.7055 85.1215L82.2476 86.2149L84.07 87.1262L83.7055 85.1215ZM66.757 72.1822L65.299 72L65.8458 73.8224L66.757 72.1822ZM65.1168 72H63.2943L64.0233 73.8224L65.1168 72ZM62.5654 75.2804L60.5607 76.3738L62.2009 78.014L62.5654 75.2804ZM60.743 72.5467L59.1028 73.0935L60.1962 74.5514L60.743 72.5467ZM80.9719 79.2897L79.8784 78.3785L79.1495 80.0187L80.9719 79.2897ZM75.3224 78.9252L75.6869 77.1028L74.0467 77.285L75.3224 78.9252ZM77.6915 80.5654L78.2383 79.1075H76.4158L77.6915 80.5654ZM79.1495 81.6589L78.785 83.6635L80.9719 82.7523L79.1495 81.6589ZM81.3364 79.8364L80.0607 82.0233L82.7943 82.3878L81.3364 79.8364ZM77.6915 83.1168L76.7803 83.4813L77.5093 84.2103L77.6915 83.1168ZM66.2102 78.743L65.4813 79.2897L66.3925 79.8364L66.2102 78.743ZM63.6589 76.9206L63.1121 77.6495L64.0233 78.014L63.6589 76.9206ZM64.2056 75.4626L63.4766 76.0093L64.2056 76.3738V75.4626ZM61.1074 77.4673L60.3785 78.1963L61.2897 78.5607L61.1074 77.4673ZM60.1962 76.5561L59.4673 77.1028L60.5607 77.4673L60.1962 76.5561Z" fill="#FF593E"/>
<path d="M58.9208 76.5563L58.374 77.103L59.2852 77.4675L58.9208 76.5563ZM80.7899 91.6824L80.0609 92.2292L80.7899 92.7759V91.6824ZM82.6123 92.4114L81.7011 92.7759L82.4301 93.5049L82.6123 92.4114ZM79.1497 89.86V90.589L80.0609 90.0422L79.1497 89.86ZM79.8787 86.3974L80.0609 87.3086L80.7899 86.5796L79.8787 86.3974ZM82.6123 87.3086L82.0656 86.3974L81.7011 87.3086H82.6123ZM62.7479 80.3834L63.1123 80.7479L63.4768 79.8367L62.7479 80.3834ZM65.117 77.103L64.7525 77.4675L65.4815 77.6497L65.117 77.103ZM67.4862 84.0282L66.9394 83.6637L67.1217 84.575L67.4862 84.0282ZM67.1217 80.7479V81.2946H67.8506L67.1217 80.7479ZM71.6777 88.2198L71.131 88.0376L71.3133 88.7665L71.6777 88.2198ZM74.2291 88.4021V87.6731L73.5002 88.0376L74.2291 88.4021ZM76.0516 85.8507L75.8693 86.7619L76.7805 86.5796L76.0516 85.8507ZM78.603 76.9208L78.0562 78.7432L80.0609 78.3787L78.603 76.9208ZM65.846 74.0049V75.0983L66.9394 74.7338L65.846 74.0049ZM83.3413 83.4815L82.6123 82.388L81.7011 83.6637L83.3413 83.4815Z" fill="#FF593E"/>
<path d="M83.7055 84.9395L83.341 83.846L82.0653 84.7572L83.7055 84.9395ZM84.07 91.318L84.2522 90.0423L82.4298 90.589L84.07 91.318ZM78.056 90.9535L77.8737 90.0423L77.1448 90.7712L78.056 90.9535ZM81.1541 82.5703L81.5186 83.6638L82.6121 82.7526L81.1541 82.5703Z" fill="#FF593E"/>
<path d="M80.2431 84.3925L80.4254 85.486L81.3366 84.757L80.2431 84.3925ZM81.5188 83.4813V84.5748L82.4301 83.8458L81.5188 83.4813ZM75.1403 83.4813L74.5936 84.3925L75.5049 84.5748L75.1403 83.4813ZM83.159 85.486L82.4301 84.757L82.0656 85.8505L83.159 85.486ZM59.832 75.2804L59.2852 76.0094L60.3787 76.3739L59.832 75.2804ZM59.6497 74.0047L59.103 74.7337L60.0142 74.9159L59.6497 74.0047ZM57.6451 75.4626L58.7385 76.1916L58.9208 74.5514L57.6451 75.4626ZM56.9161 75.2804L56.0049 76.0094L57.4628 76.5561L56.9161 75.2804ZM67.1217 73.0935L66.5749 72.729L66.3927 73.458L67.1217 73.0935ZM57.4628 75.2804L57.2806 73.6402L55.6404 74.5514L57.4628 75.2804Z" fill="#FF593E"/>
<path d="M58.9207 74.5515V72.9114L57.2805 73.8226L58.9207 74.5515ZM63.8412 72.5469L64.5702 74.3693L65.8459 72.9114L63.8412 72.5469ZM64.2057 74.5515L64.7525 75.8272L65.8459 74.7338L64.2057 74.5515ZM67.6683 75.4628L68.0328 76.1917L68.7618 75.4628H67.6683Z" fill="#FF593E"/>
<path d="M68.7618 72.9112L66.5749 74.0047L68.5795 75.8271L68.7618 72.9112ZM63.1123 72.1822L61.6543 72.5467L62.5655 74.0047L63.1123 72.1822ZM69.1263 72.3645L66.9393 72L67.6683 73.2757L69.1263 72.3645ZM67.8506 77.285L67.3039 76.7383L67.1216 77.6495L67.8506 77.285ZM62.7478 76.0093L63.2945 76.7383L63.659 75.6449L62.7478 76.0093ZM62.3833 74.1869L63.659 75.0981V73.0935L62.3833 74.1869ZM57.0982 78.3785L56.5515 78.9252L57.2805 79.1075L57.0982 78.3785ZM61.8366 74.5514L60.9254 74.1869L61.1076 75.6449L61.8366 74.5514Z" fill="#FF593E"/>
<path d="M62.2014 73.8225L61.4724 72.729L60.5612 74.5514L62.2014 73.8225ZM58.921 79.1075L59.65 79.6542L60.0145 78.9253L58.921 79.1075ZM61.6547 81.8411L61.2902 82.5701H62.0192L61.6547 81.8411ZM54.9117 76.0094L54.0005 77.6496L55.6407 77.8318L54.9117 76.0094Z" fill="#FF593E"/>
<path d="M55.4577 74.5517L53.9997 75.4629L55.4577 76.5564V74.5517ZM58.9203 81.8414L58.3735 81.6592V82.5704L58.9203 81.8414ZM56.3689 78.0143L57.0979 77.8321L56.7334 77.1031L56.3689 78.0143ZM61.2894 79.29L61.8362 79.1078L61.6539 78.3788L61.2894 79.29ZM52.1773 76.7386L53.6353 77.4676V75.6451L52.1773 76.7386ZM50.7194 77.8321L52.3595 78.561L51.9951 76.7386L50.7194 77.8321ZM49.2614 79.4722L51.2661 79.8367L50.3549 78.1965L49.2614 79.4722ZM47.8035 81.1124L49.6259 81.6592L49.0792 79.6545L47.8035 81.1124ZM60.5605 80.3835L60.7427 81.1124L61.2894 80.5657L60.5605 80.3835ZM62.3829 79.29L63.2941 79.4722L63.1119 78.3788L62.3829 79.29ZM56.7334 79.8367V80.3835L57.4623 80.019L56.7334 79.8367ZM65.1165 80.019L64.5698 80.2012L64.9343 80.9302L65.1165 80.019ZM64.2053 82.9349L63.4764 83.2993L64.0231 83.8461L64.2053 82.9349ZM70.0371 74.5517L69.8548 75.4629L70.7661 75.0984L70.0371 74.5517ZM75.3221 74.5517L73.4997 73.8227V75.8274L75.3221 74.5517ZM73.4997 73.6405L71.6773 73.0938V75.4629L73.4997 73.6405ZM72.4062 79.29L71.6773 77.8321L70.4016 79.1078L72.4062 79.29ZM78.7847 88.5844L78.6025 88.0377L77.8735 88.5844H78.7847ZM71.3128 77.4676L70.9483 76.9208L70.5838 77.4676H71.3128ZM76.7801 75.4629V77.4676L78.4202 76.7386L76.7801 75.4629Z" fill="#FF593E"/>
<path d="M72.9532 81.112L73.1354 82.0232L74.0466 81.4765L72.9532 81.112ZM75.1401 74.5513V76.3737L76.7803 75.4625L75.1401 74.5513ZM76.4158 82.2055V83.1167L77.327 82.57L76.4158 82.2055ZM76.2335 83.8456L76.0513 84.7569L76.9625 84.3924L76.2335 83.8456ZM80.9719 80.2008H80.0606L80.6074 80.9298L80.9719 80.2008ZM79.1494 79.8363L78.7849 79.2896L78.2382 80.0186L79.1494 79.8363ZM78.6027 82.0232L78.4204 81.2943L77.8737 82.0232H78.6027ZM81.1541 89.4952L82.9765 89.8597L82.2476 88.0372L81.1541 89.4952ZM80.4251 90.7709L79.5139 91.3176L80.4251 91.8643V90.7709ZM83.8877 92.5933L82.4298 92.9578L83.5233 93.869L83.8877 92.5933ZM79.5139 93.5045L79.3317 94.7802L80.4251 94.0512L79.5139 93.5045ZM82.9765 89.1307L83.341 90.0419L84.07 89.3129L82.9765 89.1307ZM82.4298 91.6821L82.9765 92.5933L83.8877 91.6821H82.4298ZM81.7008 94.0512L81.5186 93.3223L80.6074 93.869L81.7008 94.0512ZM81.3363 90.0419L80.9719 89.3129L80.4251 90.0419H81.3363ZM72.042 83.1167L72.2242 84.0279L72.9532 83.4812L72.042 83.1167ZM75.8691 80.5653L75.1401 80.9298L75.5046 81.2943L75.8691 80.5653ZM74.7756 87.126L74.4111 86.5793L74.0466 87.126H74.7756ZM53.0887 85.4858L52.542 85.3036L52.9065 86.0326L53.0887 85.4858ZM58.3738 88.4017H57.827L58.1915 88.9484L58.3738 88.4017ZM50.3551 98.4251H49.8083L50.1728 98.9718L50.3551 98.4251ZM52.1775 91.8643H51.6308L51.9953 92.4111L52.1775 91.8643ZM60.7429 87.855L60.5607 87.3083L60.014 87.6727L60.7429 87.855ZM51.6308 94.598L51.4485 94.0512L50.9018 94.4157L51.6308 94.598ZM55.2756 87.6727L55.0934 87.126L54.5467 87.6727H55.2756ZM57.2803 83.2989L57.6448 84.2101L58.1915 83.4812L57.2803 83.2989ZM60.9252 86.5793L60.3784 86.0326L60.1962 86.7615L60.9252 86.5793ZM80.2429 81.6587L80.0606 80.9298L79.5139 81.4765L80.2429 81.6587ZM76.598 78.9251L75.1401 78.3784L75.3223 80.383L76.598 78.9251Z" fill="#FF593E"/>
<path d="M77.1453 78.1959L76.2341 77.8315V78.9249L77.1453 78.1959ZM69.1266 79.4716L69.3089 78.5604L68.3977 78.7427L69.1266 79.4716ZM69.4911 76.009L67.6687 77.2847L69.4911 78.3782V76.009ZM68.7621 75.4623L68.2154 75.8268L68.9444 76.1913L68.7621 75.4623ZM70.4023 79.2894L70.0379 80.0184H70.5846L70.4023 79.2894ZM72.2248 76.1913L71.8603 75.6445L71.4958 76.5558L72.2248 76.1913ZM73.3182 74.9156L72.5892 74.0044L72.0425 75.2801L73.3182 74.9156ZM71.678 74.1866L70.9491 73.2754L70.4023 74.5511L71.678 74.1866ZM77.1453 76.3735L76.2341 75.4623L75.6874 76.738L77.1453 76.3735ZM78.6033 77.6492L77.8743 76.738L77.3276 78.0137L78.6033 77.6492ZM73.6827 78.1959V77.467L72.7715 77.6492L73.6827 78.1959ZM72.2248 80.5651V79.8361L71.4958 80.0184L72.2248 80.5651Z" fill="#FF593E"/>
<path d="M72.9534 78.0138L73.1357 79.1073L74.2291 78.196L72.9534 78.0138ZM77.5095 80.9297L78.0562 81.8409L78.603 80.5652L77.5095 80.9297ZM65.6637 75.8269L66.3927 76.5559L66.7572 75.4624L65.6637 75.8269ZM70.2198 77.1026L70.5843 78.0138L71.131 77.4671L70.2198 77.1026ZM76.9628 79.2895L76.2338 79.654L76.7805 80.0185L76.9628 79.2895ZM74.5936 80.2007L74.0469 79.654L73.6824 80.5652L74.5936 80.2007ZM76.4161 82.5699L76.0515 81.8409L75.6871 82.7521L76.4161 82.5699ZM70.402 81.6587L69.6731 81.8409L70.402 82.3876V81.6587ZM77.5095 81.1119L77.145 80.5652L76.7805 81.4764L77.5095 81.1119ZM78.9674 87.8549L78.2385 88.4016L79.1497 88.9484L78.9674 87.8549ZM78.0562 84.3923L77.6917 85.3035L78.603 85.1213L78.0562 84.3923ZM80.7899 85.4858L80.6076 86.2147L81.5188 85.8502L80.7899 85.4858ZM80.7899 85.3035L79.8787 85.1213L80.2431 85.8502L80.7899 85.3035ZM79.6964 84.2101V83.6633L78.7852 84.2101H79.6964ZM80.4254 86.397L80.0609 85.668L79.6964 86.5792L80.4254 86.397ZM81.5188 84.5745L81.1544 84.0278L80.6076 84.7568L81.5188 84.5745ZM69.3086 80.9297L68.9441 80.2007L68.2151 80.9297H69.3086ZM47.075 99.3362L48.3507 97.8783L46.346 96.967L47.075 99.3362ZM56.9161 78.3783L58.374 79.4717L59.103 77.6493L56.9161 78.3783ZM50.5376 80.2007L51.4488 80.5652V79.2895L50.5376 80.2007ZM55.6404 78.196L55.8226 79.2895L56.7338 78.5605L55.6404 78.196ZM45.0703 86.5792L44.7058 87.8549L46.8927 87.6727L45.0703 86.5792ZM47.075 93.8689L46.346 93.6867L46.5282 94.5979L47.075 93.8689ZM48.7151 89.6773L47.2572 89.4951L47.8039 91.1353L48.7151 89.6773ZM47.9862 85.8502L48.7151 85.3035L47.8039 84.5745L47.9862 85.8502ZM48.7151 88.5839L49.2619 89.4951L49.8086 88.5839H48.7151ZM64.9348 81.2942L64.7525 82.2054L65.6637 81.6587L64.9348 81.2942ZM53.2712 83.2988L53.089 84.0278L53.8179 83.8456L53.2712 83.2988ZM52.5423 84.0278L51.8133 84.3923L52.5423 84.939V84.0278ZM51.4488 82.3876L51.9955 83.1166L52.1778 82.3876H51.4488ZM55.8226 83.1166L55.2759 83.6633L56.1871 83.8456L55.8226 83.1166ZM56.9161 80.5652L57.4628 81.4764L57.8273 80.383L56.9161 80.5652Z" fill="#FF593E"/>
<path d="M52.9067 80.3833L53.8179 80.0188L52.7245 79.4721L52.9067 80.3833ZM49.8086 82.2057L50.3553 81.659L49.4441 81.4768L49.8086 82.2057ZM50.7198 78.3786L50.5376 79.2899H51.4488L50.7198 78.3786ZM52.36 89.3132H53.2712L52.5423 88.2197L52.36 89.3132ZM44.7058 90.0422L46.8927 89.3132L44.7058 87.8553V90.0422ZM47.8039 81.4768L48.5329 82.0235L48.8974 81.2945L47.8039 81.4768ZM54.1824 80.93L53.4535 81.659L54.7292 82.0235L54.1824 80.93ZM54.7292 78.0142L53.8179 78.9254L55.2759 79.4721L54.7292 78.0142Z" fill="#FF593E"/>
<path d="M51.9957 78.9253L50.9022 80.0187L52.7247 80.7477L51.9957 78.9253ZM48.3508 84.3926L46.7107 82.7524L45.6172 84.7571L48.3508 84.3926ZM49.4443 81.4767L49.991 80.5655L48.8976 81.1122L49.4443 81.4767ZM47.8041 81.4767L46.7107 82.5701L48.8976 82.9346L47.8041 81.4767ZM47.6219 96.9673L47.9863 97.8785L49.0798 96.9673H47.6219ZM49.8088 79.2898V80.0187L50.72 79.6543L49.8088 79.2898ZM48.3508 90.7711L48.5331 91.8645L49.6265 91.1355L48.3508 90.7711ZM46.3462 90.7711L46.5284 91.6823L47.6219 90.9533L46.3462 90.7711Z" fill="#FF593E"/>
<path d="M46.1633 88.4019V89.4954L46.8923 88.9486L46.1633 88.4019ZM48.168 92.7757V93.687L49.0792 93.3225L48.168 92.7757ZM47.9858 91.5L48.7147 91.3178L48.168 90.5888L47.9858 91.5ZM46.5278 85.486L47.2568 85.1215L46.7101 84.3926L46.5278 85.486ZM47.2568 86.944L47.8035 86.7617L47.439 86.0328L47.2568 86.944ZM46.7101 97.1496H47.2568L47.0745 96.4206L46.7101 97.1496ZM46.7101 92.229L46.5278 93.3225L47.6213 92.7757L46.7101 92.229Z" fill="#FF593E"/>
<path d="M47.4392 92.7758L46.528 91.8645L45.9813 93.1402L47.4392 92.7758ZM47.257 90.2244L46.528 90.7711L47.0747 91.1356L47.257 90.2244ZM49.0794 94.5982V95.1449L49.8084 94.7804L49.0794 94.5982ZM48.8972 99.3365L47.8037 100.248L49.4439 100.977L48.8972 99.3365ZM54.3645 92.7758H55.0934L54.5467 91.8645L54.3645 92.7758ZM45.4346 94.9627L45.9813 96.7851L47.4392 95.5094L45.4346 94.9627ZM47.4392 94.0515L47.6215 94.7804L48.3504 94.2337L47.4392 94.0515ZM51.2663 94.7804L49.9906 95.1449L50.7196 96.2384L51.2663 94.7804ZM51.0841 82.0234L50.5373 82.5702H51.4486L51.0841 82.0234Z" fill="#FF593E"/>
<path d="M51.0842 82.7523L51.6309 82.2055L50.5374 82.0233L51.0842 82.7523ZM48.8973 90.4065L50.7197 90.771L49.9907 88.584L48.8973 90.4065ZM49.6262 85.6682H50.9019L50.3552 84.3925L49.6262 85.6682ZM47.986 88.4018L49.444 86.9439L47.2571 86.2149L47.986 88.4018ZM47.986 96.4205L48.8973 95.8738L47.8038 95.1448L47.986 96.4205ZM48.3505 84.5747L49.444 84.2102L48.5328 83.299L48.3505 84.5747ZM54.729 81.2943L56.7337 80.7476L55.0935 79.1074L54.729 81.2943ZM50.3552 82.0233L52.3599 81.4766L50.7197 79.8364L50.3552 82.0233Z" fill="#FF593E"/>
<path d="M48.1683 85.6686L50.1729 84.9396L48.3505 83.2994L48.1683 85.6686ZM51.0842 87.3088L50.1729 87.491L50.9019 88.22L51.0842 87.3088ZM49.9907 82.206L48.5328 83.1172L50.3552 83.8461L49.9907 82.206ZM53.6356 77.6499L51.9954 78.1966L53.4533 79.2901L53.6356 77.6499ZM49.9907 87.1265L49.2617 87.3088L49.9907 87.8555V87.1265ZM62.9299 84.2106H62.201L62.5655 84.9396L62.9299 84.2106ZM44.7057 91.8648L46.8926 90.7714L44.5234 90.2246L44.7057 91.8648ZM49.6262 93.3228L51.2664 92.9583L50.1729 91.5003L49.6262 93.3228ZM45.4347 94.5985L47.2571 92.776H44.7057L45.4347 94.5985ZM50.9019 90.9536H51.6309L51.2664 90.0424L50.9019 90.9536ZM45.2524 86.2153H46.8926L45.6169 84.9396L45.2524 86.2153ZM47.8038 88.22L47.0748 88.5845L47.8038 88.949V88.22ZM51.9954 86.3976L51.2664 86.9443L51.9954 87.3088V86.3976ZM59.1029 84.2106V84.9396L59.8318 84.7574L59.1029 84.2106ZM55.6402 90.0424L54.9113 89.4957L54.729 90.4069L55.6402 90.0424ZM55.2757 81.477L54.5468 82.3882L55.8225 82.7527L55.2757 81.477Z" fill="#FF593E"/>
<path d="M53.2712 82.2056L52.5423 82.9345L53.6357 83.299L53.2712 82.2056ZM49.4441 97.1495L49.9909 97.5139V96.785L49.4441 97.1495ZM51.631 97.1495L52.5423 97.3317L52.36 96.4205L51.631 97.1495ZM55.8226 85.3037V86.0327H56.7338L55.8226 85.3037ZM47.8039 84.3925L47.4395 85.3037H48.3507L47.8039 84.3925Z" fill="#FF593E"/>
<path d="M117.42 124.122L116.509 122.299L115.233 123.757L117.42 124.122ZM96.2798 116.103V117.197L97.3733 116.65L96.2798 116.103ZM102.658 117.197L103.569 117.561L103.387 116.468L102.658 117.197ZM97.5555 115.192L97.3733 116.285L98.6489 115.921L97.5555 115.192ZM110.859 121.388L111.406 120.295L110.13 120.112L110.859 121.388ZM122.34 124.304H125.439L124.345 121.935L122.34 124.304Z" fill="#AF2500"/>
<path d="M120.518 124.304H122.522L121.247 122.664L120.518 124.304ZM124.527 120.113L125.438 119.201L124.163 118.837L124.527 120.113Z" fill="#AF2500"/>
<path d="M118.877 124.304H120.7L119.971 122.299L118.877 124.304ZM102.293 121.024L103.569 121.388L103.205 120.112L102.293 121.024ZM109.036 119.019V120.112L109.948 119.748L109.036 119.019ZM105.756 119.019L105.938 120.112L107.032 119.566L105.756 119.019ZM101.018 117.925L100.107 117.197L99.5598 118.29L101.018 117.925ZM101.382 119.383L102.111 118.654L100.835 118.29L101.382 119.383ZM93.5458 115.921L94.0925 115.192L92.999 114.827L93.5458 115.921ZM129.448 121.753L129.994 121.206L128.901 120.659L129.448 121.753ZM120.7 122.117L121.429 121.206L120.153 121.024L120.7 122.117ZM99.1953 118.108L98.4663 117.561L98.1018 118.654L99.1953 118.108ZM131.27 123.028L130.723 122.482L130.541 123.211L131.27 123.028ZM119.424 120.112L119.606 119.383H118.877L119.424 120.112ZM110.494 114.827H111.041L110.677 114.281L110.494 114.827ZM95.9149 117.743L96.0971 117.014L95.1859 117.197L95.9149 117.743ZM104.48 112.094H105.027L104.663 111.365L104.48 112.094ZM105.938 114.281H106.485L106.12 113.552L105.938 114.281Z" fill="#AF2500"/>
<path d="M95.3687 113.734L95.7331 114.281L96.0976 113.734H95.3687ZM102.841 113.734L103.023 114.281L103.57 113.734H102.841ZM100.107 117.014L99.5602 115.739L98.649 116.832L100.107 117.014ZM105.756 121.935L105.392 119.93L103.387 121.388L105.756 121.935ZM117.785 121.753L117.42 120.659L116.327 121.57L117.785 121.753ZM97.1911 118.837L98.1023 117.925L96.8266 117.197L97.1911 118.837ZM98.649 119.93L98.4668 118.29L97.0088 119.201L98.649 119.93ZM103.023 118.472L103.387 117.561H102.294L103.023 118.472ZM125.985 119.93L126.714 119.019L125.621 118.837L125.985 119.93ZM120.336 119.93L121.247 120.295L121.065 119.383L120.336 119.93ZM119.242 122.117L120.154 122.482L119.971 121.57L119.242 122.117ZM123.252 119.748L123.981 120.295V119.383L123.252 119.748Z" fill="#AF2500"/>
<path d="M121.247 119.93V120.841L122.158 120.477L121.247 119.93ZM123.981 118.837L123.616 117.743L122.887 118.837H123.981ZM116.509 121.935L115.962 121.023L115.415 122.117L116.509 121.935ZM118.331 121.023L118.878 120.477L117.967 120.112L118.331 121.023ZM117.42 124.122H118.878L118.331 122.481L117.42 124.122ZM122.887 120.659L123.434 119.93L122.523 119.748L122.887 120.659ZM115.598 116.832L116.327 117.196V116.285L115.598 116.832ZM119.242 120.841L119.971 121.206V120.294L119.242 120.841ZM126.168 120.477L125.439 119.748L124.71 120.841L126.168 120.477ZM123.252 121.57L123.799 121.023L122.705 120.659L123.252 121.57ZM126.532 120.477L127.443 121.023V120.112L126.532 120.477ZM122.523 121.752L121.794 120.841L121.429 121.935L122.523 121.752ZM123.616 123.21L122.341 122.117L121.794 123.757L123.616 123.21ZM121.612 122.846L120.7 121.935L120.336 123.21L121.612 122.846ZM127.443 119.383L127.808 118.654L126.897 118.472L127.443 119.383ZM100.836 117.743L101.747 118.108V117.014L100.836 117.743ZM106.668 118.654L107.943 118.472L107.214 117.379L106.668 118.654ZM106.85 121.752L107.943 121.388L107.397 120.294L106.85 121.752ZM105.756 121.935L106.668 122.299V121.206L105.756 121.935ZM109.037 119.748H110.13L109.401 118.654L109.037 119.748ZM107.397 119.566L107.214 118.654L106.485 119.383L107.397 119.566ZM127.443 124.122L126.532 122.664L125.439 124.304L127.443 124.122ZM115.051 123.939L114.504 121.57L112.317 123.393L115.051 123.939ZM115.78 119.019V118.29L115.051 118.654L115.78 119.019Z" fill="#AF2500"/>
<path d="M99.5599 120.112L99.3776 119.384L98.6487 119.93L99.5599 120.112ZM102.294 121.024L101.929 120.295L101.382 120.659L102.294 121.024ZM114.504 121.024L114.322 120.112L113.41 120.659L114.504 121.024ZM112.681 122.117L111.952 120.841L111.041 122.482L112.681 122.117ZM107.396 120.112L108.308 119.93L107.761 119.019L107.396 120.112ZM107.579 121.753L108.49 121.57L107.761 120.659L107.579 121.753ZM109.401 120.841L108.672 121.57L109.401 121.753V120.841Z" fill="#AF2500"/>
<path d="M108.672 121.388L107.761 122.482L108.854 122.664L108.672 121.388ZM106.121 120.113L106.485 121.024L107.214 120.113H106.121ZM108.672 118.655L109.583 118.29L109.037 117.379L108.672 118.655ZM111.041 120.477L111.588 121.206L112.135 120.477H111.041ZM124.527 121.388L123.252 121.57L123.798 122.846L124.527 121.388ZM128.901 121.388L127.626 121.57L128.537 122.846L128.901 121.388ZM129.995 121.57L129.448 122.299L130.359 122.482L129.995 121.57ZM129.448 123.94L130.541 123.575L129.448 122.482V123.94ZM129.266 120.295H128.172L128.719 121.206L129.266 120.295ZM126.35 122.299L125.985 121.206L125.439 121.753L126.35 122.299ZM126.168 123.575L125.256 122.117L124.527 123.211L126.168 123.575ZM126.714 123.575L128.354 122.846L126.897 121.57L126.714 123.575Z" fill="#AF2500"/>
<path d="M127.808 124.122L129.084 123.94L128.173 122.846L127.808 124.122ZM116.327 120.842L115.962 119.748L115.051 120.477L116.327 120.842ZM119.06 123.211L118.696 121.935L117.603 122.664L119.06 123.211ZM111.953 123.029L111.589 121.935L110.677 122.664L111.953 123.029ZM112.5 121.935L113.593 121.388L112.318 120.659L112.5 121.935ZM114.687 121.935L115.416 121.388L114.687 121.024V121.935ZM112.135 123.393L113.593 122.664L112.318 121.935L112.135 123.393ZM115.233 123.211L115.962 122.664L115.051 122.3L115.233 123.211ZM111.224 116.832L111.771 117.379L111.953 116.468L111.224 116.832ZM97.3736 117.015L98.1026 117.379L98.2848 116.468L97.3736 117.015ZM97.5558 117.561L96.6446 116.832L96.4624 117.926L97.5558 117.561ZM104.299 118.837L103.934 117.561L102.841 118.655L104.299 118.837Z" fill="#AF2500"/>
<path d="M103.205 119.748L102.658 118.655L101.747 119.748H103.205ZM103.751 118.108L104.663 118.655L104.845 117.561L103.751 118.108ZM101.018 116.832L101.747 117.197L101.929 116.468L101.018 116.832ZM116.326 122.117L117.237 123.029L117.602 121.388L116.326 122.117ZM89.3542 134.51L87.5317 135.239L88.6252 136.332L89.3542 134.51ZM89.7186 133.234L90.2654 131.412L88.2607 131.776L89.7186 133.234Z" fill="#AF2500"/>
<path d="M87.7145 132.323L88.0789 131.594H87.1677L87.7145 132.323ZM89.3546 134.51L89.7191 133.234L87.8967 133.416L89.3546 134.51Z" fill="#AF2500"/>
<path d="M88.4434 136.696L86.0742 136.332L87.5322 138.154L88.4434 136.696ZM88.8079 132.687L87.3499 132.869L88.0789 134.145L88.8079 132.687Z" fill="#AF2500"/>
<path d="M88.0786 136.514L87.7141 135.785L87.1673 136.514H88.0786ZM87.1673 135.238L88.2608 134.509L86.6206 133.963L87.1673 135.238ZM107.943 122.481L107.579 121.388L106.667 122.299L107.943 122.481ZM109.948 115.738L109.765 114.827L108.854 115.556L109.948 115.738ZM111.223 123.21L110.494 121.206L108.854 122.664L111.223 123.21ZM105.574 119.565L105.209 118.472L104.48 119.383L105.574 119.565Z" fill="#AF2500"/>
<path d="M106.303 118.837L105.938 117.926L105.027 118.655L106.303 118.837ZM99.7418 120.295L101.2 120.659V119.201L99.7418 120.295ZM103.569 119.748L104.116 120.477L104.48 119.566L103.569 119.748ZM90.4475 127.949L90.6297 126.673L89.354 127.22L90.4475 127.949Z" fill="#AF2500"/>
<path d="M90.8121 124.304L88.9897 125.033L90.6299 126.673L90.8121 124.304ZM90.6299 128.86L90.0832 129.225L90.4476 129.771L90.6299 128.86ZM88.9897 127.767L88.0785 128.131L88.9897 129.225V127.767ZM88.443 124.851L87.5317 125.398L88.443 125.944V124.851ZM90.2654 131.412L90.6299 129.954L89.1719 130.136L90.2654 131.412ZM89.1719 126.673L89.7186 125.944H88.8074L89.1719 126.673ZM90.8121 121.571V120.477L89.9009 121.024L90.8121 121.571Z" fill="#AF2500"/>
<path d="M90.812 121.571L90.2653 122.117L90.812 122.482V121.571ZM89.3541 121.024L88.4429 121.935L89.7186 122.482L89.3541 121.024ZM90.812 119.384L90.0831 119.93L90.812 120.295V119.384ZM90.812 124.304V122.846L89.5363 123.211L90.812 124.304ZM88.9896 120.659L89.5363 119.93H88.4429L88.9896 120.659ZM99.5597 119.019L100.471 119.566L100.653 118.655L99.5597 119.019ZM92.0877 117.015V115.192L90.4476 116.103L92.0877 117.015ZM99.5597 115.01L99.1952 113.916L98.4662 114.645L99.5597 115.01ZM98.1017 113.187L98.6485 113.005L98.1017 112.458V113.187ZM97.0083 114.463L97.3728 114.281L97.0083 113.734V114.463ZM95.3681 115.192L94.8214 114.281L94.2746 115.192H95.3681ZM107.032 117.015L107.578 116.65L106.849 116.103L107.032 117.015ZM112.134 118.837L111.952 119.93L113.046 119.566L112.134 118.837ZM108.672 121.206L109.036 120.295L107.761 120.113L108.672 121.206Z" fill="#AF2500"/>
<path d="M112.135 118.837L113.411 118.472L112.5 117.379L112.135 118.837ZM113.593 119.383L113.411 118.654L112.682 119.383H113.593ZM115.598 119.019L116.327 118.654L115.78 117.925L115.598 119.019ZM118.514 119.566L118.331 118.472L117.42 119.201L118.514 119.566ZM111.771 116.103L111.406 115.192L110.495 116.103H111.771ZM102.294 116.467L101.93 115.738L101.018 116.467H102.294ZM105.21 116.467L104.845 115.556L103.934 116.285L105.21 116.467ZM117.967 120.659L117.602 119.748L116.691 120.477L117.967 120.659ZM113.958 117.561L114.686 117.196L113.775 116.65L113.958 117.561ZM110.495 119.019L111.042 119.566L111.588 118.654L110.495 119.019ZM98.6491 118.654L99.1959 119.019L99.5603 118.108L98.6491 118.654ZM95.0043 117.014L95.7332 116.467L94.4575 115.921L95.0043 117.014ZM92.9996 117.379L93.1818 116.467L92.0884 117.014L92.9996 117.379ZM95.551 118.654L95.3688 117.925L94.6398 118.29L95.551 118.654ZM97.0089 119.201L96.6444 117.925L95.551 118.837L97.0089 119.201ZM93.1818 117.561L94.4575 118.29L94.822 116.832L93.1818 117.561ZM93.1818 116.285L93.9108 117.014L94.2753 116.285H93.1818ZM92.4529 115.738L92.8174 116.285L93.3641 115.556L92.4529 115.738ZM112.5 115.556L113.046 116.285L113.411 115.192L112.5 115.556ZM82.2473 139.066L82.4295 137.79L83.523 138.337L82.2473 139.066ZM80.7893 139.248L80.9716 137.972L82.2473 138.519L80.7893 139.248ZM83.1585 140.523L83.3407 139.248L84.4342 139.977L83.1585 140.523ZM81.1538 141.435L81.8828 140.341L83.1585 141.617L81.1538 141.435ZM78.9669 141.07L80.2426 139.795L80.7893 141.435L78.9669 141.07ZM90.4482 116.103L89.7192 115.738L90.6304 115.01L90.4482 116.103ZM85.8921 130.682L84.9809 130.136L85.7099 129.224L85.8921 130.682ZM86.8034 135.967L85.3454 135.238L86.6211 133.781L86.8034 135.967ZM88.2613 132.505L86.9856 133.598L86.2566 131.776L88.2613 132.505ZM89.7192 115.556L88.9903 115.192L89.7192 114.645V115.556ZM90.6304 119.383L89.9015 119.019L90.6304 118.472V119.383ZM71.1305 138.337L69.8548 138.154L70.766 137.061L71.1305 138.337ZM69.4903 137.972H68.2146L68.9436 136.879L69.4903 137.972Z" fill="#AF2500"/>
<path d="M90.4481 128.131L89.5369 128.678L89.3546 127.584L90.4481 128.131ZM80.2425 133.963L80.9715 134.692L80.0603 135.056L80.2425 133.963ZM86.621 127.22L87.5322 127.949L86.4387 128.313L86.621 127.22ZM87.35 125.033L86.9855 123.939L88.4434 124.122L87.35 125.033ZM84.2518 124.486H83.3406L83.7051 123.575L84.2518 124.486ZM73.135 139.065L71.6771 138.519L73.135 137.061V139.065ZM90.9948 114.827L91.906 114.098L92.2705 115.192L90.9948 114.827ZM96.6443 112.276L97.1911 112.458V111.729L96.6443 112.276ZM100.471 113.734L101.018 114.098V113.369L100.471 113.734ZM90.6303 118.107V118.472L90.0836 118.29L90.6303 118.107ZM70.0369 131.229L69.4902 131.776L69.3079 131.047L70.0369 131.229ZM69.4902 135.785L68.9434 135.238L69.6724 134.874L69.4902 135.785ZM68.3967 137.972L67.3033 137.425L68.2145 136.514L68.3967 137.972ZM66.3921 137.243L65.2986 136.696L66.2098 135.785L66.3921 137.243ZM74.9575 138.519L74.4107 137.972L75.1397 137.607L74.9575 138.519ZM71.3126 125.944L70.7659 126.308V125.579L71.3126 125.944ZM89.9013 114.098L89.3546 114.28V113.734L89.9013 114.098ZM88.4434 112.64L88.8079 113.187H88.0789L88.4434 112.64Z" fill="#AF2500"/>
<path d="M90.4484 113.734L89.9016 114.098V113.369L90.4484 113.734ZM86.9858 112.823L87.3503 113.369H86.6213L86.9858 112.823ZM88.8082 119.383V118.655L89.5372 119.019L88.8082 119.383ZM86.2568 129.407L85.5278 128.678L86.8035 128.313L86.2568 129.407ZM88.9904 127.767L88.0792 127.038L89.3549 126.491L88.9904 127.767ZM87.7147 129.771L86.9858 129.042L88.2615 128.678L87.7147 129.771ZM89.9016 123.575L88.8082 123.757L89.1727 122.482L89.9016 123.575ZM92.9998 113.552L92.2708 114.281L92.0886 113.187L92.9998 113.552Z" fill="#AF2500"/>
<path d="M88.8079 124.851L88.9901 123.393L90.0836 124.122L88.8079 124.851Z" fill="#AF2500"/>
<path d="M88.4435 124.668L88.6258 123.575L89.7192 124.304L88.4435 124.668ZM84.6164 134.145L83.7052 133.598L84.6164 132.687V134.145ZM76.9622 138.701L76.78 137.607L78.4202 138.154L76.9622 138.701ZM76.4155 138.336L75.1398 137.607L76.4155 136.696V138.336ZM74.9576 139.977L73.6819 139.248L74.9576 138.336V139.977Z" fill="#AF2500"/>
<path d="M75.3214 140.524L74.7747 139.977L76.5971 139.066L75.3214 140.524ZM78.2373 139.612L76.7793 139.43L78.2373 137.972V139.612Z" fill="#AF2500"/>
<path d="M77.6911 139.431L77.8733 140.888L75.6864 140.524L77.6911 139.431ZM62.2004 139.248L61.4714 139.066L62.0182 138.337L62.2004 139.248ZM85.163 130.865L84.2518 131.412L84.0695 130.136L85.163 130.865ZM87.1677 131.776L85.7097 132.505V130.865L87.1677 131.776ZM86.0742 133.417L85.163 133.781V132.688L86.0742 133.417ZM74.5929 138.337L73.6817 139.066L73.4995 137.973L74.5929 138.337ZM76.0509 138.702L75.1396 139.431L74.9574 138.337L76.0509 138.702ZM80.4247 139.248L78.7845 140.706L78.9667 138.702L80.4247 139.248ZM83.3406 128.86L82.9761 128.314H83.8873L83.3406 128.86ZM79.3312 126.491L78.9667 125.762H79.878L79.3312 126.491ZM79.5135 135.786L79.149 135.057L79.878 134.874L79.5135 135.786ZM87.1677 123.211L86.8032 122.664L87.3499 122.482L87.1677 123.211ZM88.6256 126.491L88.0789 125.762L88.9901 125.58L88.6256 126.491ZM82.9761 132.688L82.6116 131.959L83.5228 131.776L82.9761 132.688ZM83.3406 141.8L82.2471 140.159L84.7985 141.071L83.3406 141.8ZM82.9761 137.79L84.6163 137.608L83.8873 139.066L82.9761 137.79Z" fill="#AF2500"/>
<path d="M81.7002 139.248L83.1581 139.066L82.4291 140.524L81.7002 139.248ZM84.7983 128.678V129.407H83.8871L84.7983 128.678ZM84.2516 129.953L84.4338 130.682L83.7049 130.318L84.2516 129.953ZM79.6955 138.519L79.331 137.608L80.4245 137.425L79.6955 138.519ZM84.7983 141.07L84.0693 138.883L86.074 139.795L84.7983 141.07ZM84.9805 132.323H84.2516L84.6161 131.411L84.9805 132.323ZM84.9805 136.15H84.2516L84.6161 135.239L84.9805 136.15ZM84.4338 137.243H83.7049L84.0693 136.332L84.4338 137.243ZM85.345 135.239L84.6161 135.056L84.7983 134.145L85.345 135.239ZM76.7796 133.781V134.692L75.8684 134.145L76.7796 133.781ZM90.6301 114.827L89.9011 115.374L89.7188 114.463L90.6301 114.827ZM88.0787 114.645L88.8076 114.098V115.01L88.0787 114.645ZM87.8964 123.028L87.3497 121.935H88.8076L87.8964 123.028ZM87.5319 127.402L86.803 126.309L88.2609 126.126L87.5319 127.402ZM88.4431 113.916L87.8964 114.645L87.1674 113.734L88.4431 113.916ZM85.1628 122.482V123.393L84.4338 123.028L85.1628 122.482Z" fill="#AF2500"/>
<path d="M80.6068 133.416L80.2423 132.505H81.3358L80.6068 133.416ZM82.247 136.15L81.8825 135.239H82.9759L82.247 136.15ZM76.7797 132.141L76.233 131.229H77.3264L76.7797 132.141ZM83.7049 135.968L83.3404 134.874L84.6161 135.056L83.7049 135.968ZM81.7002 137.243L81.1535 136.332L82.4292 136.514L81.7002 137.243ZM80.9713 140.888L80.6068 139.977H81.8825L80.9713 140.888ZM84.7984 139.066L84.4339 137.972L85.7096 138.155L84.7984 139.066ZM87.3498 121.388L86.803 120.659L87.8965 120.477L87.3498 121.388ZM88.8077 123.757L88.0787 123.94L88.261 123.028L88.8077 123.757ZM88.4432 126.491V127.402L87.532 126.856L88.4432 126.491ZM85.5273 125.398L85.7096 126.309L84.7984 125.762L85.5273 125.398ZM74.5928 130.865L74.2283 129.771H75.3217L74.5928 130.865ZM86.074 139.977L85.7096 137.79L87.532 138.155L86.074 139.977Z" fill="#AF2500"/>
<path d="M86.2566 137.972L84.7986 136.514L86.4388 135.603L86.2566 137.972ZM88.9902 131.411L87.5323 130.135L89.1725 129.042L88.9902 131.411ZM80.0603 131.229L79.3314 131.411L79.5136 130.5L80.0603 131.229ZM73.1351 133.78L72.0416 133.234L72.9529 132.505L73.1351 133.78ZM78.6024 137.243H77.5089V136.149L78.6024 137.243ZM75.8688 133.78L75.322 132.869H76.4155L75.8688 133.78ZM70.2192 136.149L69.8547 135.238H70.9482L70.2192 136.149ZM70.2192 137.425L69.8547 136.514H70.9482L70.2192 137.425Z" fill="#AF2500"/>
<path d="M67.6678 136.878L67.3033 135.967H68.3968L67.6678 136.878ZM69.308 137.972L69.4903 136.878L70.4015 137.425L69.308 137.972ZM71.4949 138.154L71.1304 137.243H72.2239L71.4949 138.154ZM65.6631 138.519L64.3875 139.065L64.5697 137.607L65.6631 138.519Z" fill="#AF2500"/>
<path d="M64.023 139.248L62.9295 139.795V138.337L64.023 139.248ZM67.85 137.972L66.0276 138.337L66.5744 136.514L67.85 137.972ZM63.8407 139.066L63.4762 138.154H64.5697L63.8407 139.066ZM65.8454 138.154L64.9342 137.608L65.8454 137.061V138.154ZM62.7473 139.977L61.6538 140.706L61.4716 139.43L62.7473 139.977ZM61.4716 141.07L60.5603 141.981L60.1959 140.523L61.4716 141.07ZM62.0183 137.061V137.972L61.4716 137.608L62.0183 137.061ZM59.6491 139.612H58.9202L59.1024 138.701L59.6491 139.612Z" fill="#AF2500"/>
<path d="M60.5603 141.617L59.4669 142.164L59.2846 140.888L60.5603 141.617ZM58.7379 142.71L57.6445 143.257L57.4622 141.981L58.7379 142.71ZM57.28 147.266L56.7333 147.631L56.551 146.72L57.28 147.266ZM60.5603 139.248L59.6491 138.883L60.3781 138.154L60.5603 139.248ZM61.4716 139.977L60.5603 139.612L61.2893 138.883L61.4716 139.977ZM59.2846 141.617L58.3734 141.252L59.1024 140.523L59.2846 141.617ZM61.1071 141.07L60.5603 140.341L61.6538 139.977L61.1071 141.07ZM62.7473 139.612L61.8361 139.248L62.565 138.519L62.7473 139.612ZM59.1024 144.168L58.7379 145.444L57.8267 144.351L59.1024 144.168ZM57.4622 145.444L57.0977 146.72L56.1865 145.626L57.4622 145.444Z" fill="#AF2500"/>
<path d="M58.5554 145.809L58.1909 147.084L57.2797 145.991L58.5554 145.809ZM60.1956 142.346L59.2844 143.804L58.1909 141.981L60.1956 142.346ZM58.3731 145.809L57.4619 145.626L58.1909 144.715L58.3731 145.809ZM64.0227 138.337L63.1115 138.154L63.6582 137.243L64.0227 138.337ZM58.9199 143.804L58.0087 143.986L58.1909 142.893L58.9199 143.804ZM57.2797 149.453L56.5507 150L56.3685 149.089L57.2797 149.453ZM58.1909 149.453V150.729L56.9152 150L58.1909 149.453ZM58.1909 147.267L58.0087 149.089L56.3685 147.813L58.1909 147.267ZM58.1909 151.094L58.3731 152.369L57.0975 151.823L58.1909 151.094ZM56.004 151.64L55.6395 152.187L55.0928 151.64H56.004Z" fill="#AF2500"/>
<path d="M58.1913 152.187L58.009 153.28L56.9156 152.734L58.1913 152.187ZM58.009 154.192L57.8268 155.467L56.5511 154.738L58.009 154.192ZM60.9249 158.019V158.748L60.0137 158.383L60.9249 158.019ZM56.1866 150.729L55.4576 151.276L55.2754 150.364L56.1866 150.729ZM57.4623 150.364L56.5511 150.911L56.3689 150L57.4623 150.364ZM57.4623 153.098L56.7333 153.645L56.5511 152.551L57.4623 153.098Z" fill="#AF2500"/>
<path d="M58.0088 151.276H57.0975L57.462 150.364L58.0088 151.276ZM57.8265 149.089L57.0975 149.635L56.9153 148.542L57.8265 149.089ZM59.4667 154.738L60.1957 155.832H58.7377L59.4667 154.738ZM60.3779 156.196L61.2891 157.107L59.8312 157.472L60.3779 156.196Z" fill="#AF2500"/>
<path d="M58.5557 152.734L59.2847 154.374L57.28 154.192L58.5557 152.734ZM60.3781 156.379L59.6492 156.925L59.2847 155.832L60.3781 156.379ZM59.1025 154.739L58.7379 155.65L58.009 154.739H59.1025ZM61.4716 157.472L62.3828 158.201L61.1071 158.748L61.4716 157.472Z" fill="#AF2500"/>
<path d="M62.1999 158.201L62.7466 159.295L61.4709 159.477L62.1999 158.201ZM63.2934 160.024L63.8401 161.117L62.5644 161.299L63.2934 160.024ZM67.6672 160.57L68.7606 161.846L66.9382 162.211L67.6672 160.57ZM62.1999 159.477L61.8354 160.388L61.1064 159.659L62.1999 159.477Z" fill="#AF2500"/>
<path d="M64.7515 159.659L66.0272 160.024L64.9337 160.935L64.7515 159.659ZM66.3917 160.206L67.6674 160.388L66.7561 161.482L66.3917 160.206ZM68.0318 160.388H69.4898L68.9431 162.211L68.0318 160.388ZM67.4851 162.211L68.9431 162.393L68.3963 164.215L67.4851 162.211Z" fill="#AF2500"/>
<path d="M66.9384 164.215H68.3964L67.8496 166.037L66.9384 164.215ZM66.9384 167.131L67.8496 166.402L67.3029 168.224L65.4805 167.495L66.9384 167.131ZM62.7468 158.565L64.2048 159.294L62.5646 160.57L62.7468 158.565ZM66.5739 160.388L66.2094 161.299L65.4805 160.57L66.5739 160.388ZM64.387 159.659L64.5693 160.752L63.4758 160.57L64.387 159.659ZM73.6814 137.972L72.7702 137.607L73.6814 136.878V137.972ZM79.3309 133.051L78.602 133.234L78.7842 132.322L79.3309 133.051ZM64.2048 137.425L63.8403 136.332H65.116L64.2048 137.425ZM61.2889 134.145L61.1066 135.056L60.3777 134.509L61.2889 134.145ZM65.845 134.145L65.6627 135.238L64.7515 134.509L65.845 134.145ZM70.401 131.411L70.0366 130.5H70.9478L70.401 131.411ZM63.6581 136.878L62.5646 136.696L63.2936 135.603L63.6581 136.878Z" fill="#AF2500"/>
<path d="M63.6583 134.145L63.8405 133.598L64.5695 134.327L63.6583 134.145ZM67.4854 134.51L67.6676 133.598L68.3966 134.327L67.4854 134.51ZM64.7517 135.239L64.3872 135.785L63.8405 135.056L64.7517 135.239ZM63.476 135.603L63.1115 136.332L62.7471 135.421L63.476 135.603ZM60.0134 137.79L60.5601 136.696L61.4713 137.79H60.0134ZM73.8639 135.056L74.4106 134.327L74.9573 135.239L73.8639 135.056ZM70.4013 132.869L69.6723 133.416L69.49 132.323L70.4013 132.869ZM66.7564 135.968L66.2097 135.421L66.9386 135.056L66.7564 135.968ZM61.6536 133.234L61.1069 132.687L62.0181 132.323L61.6536 133.234ZM55.6396 143.439L54.7284 143.257L55.2751 142.528L55.6396 143.439ZM58.0087 140.159L57.0975 139.977L57.6443 139.248L58.0087 140.159ZM55.2751 147.996L54.1816 147.813L54.9106 146.902L55.2751 147.996ZM55.2751 145.809L56.0041 146.173L55.2751 146.72V145.809ZM54.7284 149.453L55.4574 149.818L54.9106 150.547L54.7284 149.453ZM56.5508 143.804L57.0975 143.439L57.462 144.168L56.5508 143.804ZM75.1396 125.215V125.944L74.2283 125.58L75.1396 125.215ZM85.8919 122.299V123.211L85.1629 122.846L85.8919 122.299ZM73.1349 133.963L72.9526 134.692L72.2237 134.327L73.1349 133.963ZM64.3872 160.935L63.8405 161.481L63.6583 160.753L64.3872 160.935ZM63.8405 165.491L63.2938 164.944L64.0228 164.58L63.8405 165.491ZM65.6629 164.944L64.7517 163.851L66.0274 163.304L65.6629 164.944ZM66.9386 162.939L66.2097 162.21L67.1209 161.664L66.9386 162.939Z" fill="#AF2500"/>
<path d="M67.6679 163.486L66.5745 162.939L67.4857 162.21L67.6679 163.486ZM67.3035 167.313L65.481 166.402L66.939 165.126L67.3035 167.313ZM65.2988 162.028L64.9343 161.117L66.0277 160.935L65.2988 162.028ZM61.8362 164.033L62.2007 163.304L62.9296 163.85L61.8362 164.033Z" fill="#AF2500"/>
<path d="M64.7514 162.575L64.0225 163.122V162.028L64.7514 162.575ZM66.5738 162.211L66.3916 163.486L65.2982 162.393L66.5738 162.211ZM66.0271 166.584L65.2982 167.131V166.038L66.0271 166.584ZM66.2094 165.855L64.7514 164.944L66.5738 164.033L66.2094 165.855Z" fill="#AF2500"/>
<path d="M67.6678 163.669L67.4856 164.398L66.7566 164.033L67.6678 163.669ZM67.6678 165.491L67.4856 166.22L66.7566 165.856L67.6678 165.491ZM65.2987 166.402L65.1164 167.131L64.3875 166.767L65.2987 166.402ZM75.322 136.332L75.1398 137.061L74.4108 136.697L75.322 136.332ZM72.4061 135.239L73.1351 135.603L72.7706 136.15L72.4061 135.239ZM72.2239 136.697L72.9529 136.879L72.4061 137.608L72.2239 136.697Z" fill="#AF2500"/>
<path d="M115.963 208.317C115.963 208.317 138.743 237.841 150.771 247.864C162.617 257.887 173.551 258.799 181.023 254.607C188.86 250.233 202.164 239.481 206.902 235.472C207.813 234.56 209.453 234.743 210.365 235.654L232.598 258.434C233.509 259.163 233.509 260.621 232.963 261.35C228.589 267.911 211.13 294.518 189.443 311.285C165.205 329.873 158.972 323.859 138.743 311.102C111.589 295.247 115.963 208.317 115.963 208.317Z" fill="url(#paint4_linear_834_10101)"/>
<path d="M191.775 248.046L220.023 278.663C220.023 278.663 202.528 303.63 185.397 314.2C173.551 321.49 162.07 329.873 145.85 314.747C116.874 287.957 133.276 229.458 133.276 229.458C133.276 229.458 143.117 243.308 155.327 251.509C160.794 255.154 166.99 257.158 172.458 257.341C179.747 257.341 191.775 248.046 191.775 248.046Z" fill="url(#paint5_linear_834_10101)"/>
<path d="M142.205 266.088C140.747 258.434 137.831 250.598 134.551 242.579C121.065 210.322 101.565 191.004 74.4109 192.098C67.8501 192.28 46.71 194.467 35.0464 242.579C33.4063 248.593 6.79883 390.742 6.79883 390.742H151.317L142.205 266.088Z" fill="#FFFDF3"/>
<path d="M131.635 240.756C143.117 283.037 141.841 354.476 143.481 391.471C143.663 397.121 148.402 401.677 154.234 401.677H163.163C163.163 401.677 152.776 294.883 139.472 242.214C131.089 208.864 103.023 199.023 99.1963 197.565C116.509 209.593 126.168 220.345 131.635 240.756Z" fill="url(#paint6_linear_834_10101)"/>
<path d="M117.603 288.505C119.425 239.117 113.958 191.369 70.7663 191.369C64.2056 191.369 40.514 198.112 28.8505 245.131C27.5748 250.598 8.25706 371.607 4.06548 396.939C3.70099 399.49 5.70568 401.677 8.07484 401.677H80.9719C90.9953 401.677 104.299 395.117 106.668 385.458C113.593 359.761 116.509 317.846 117.603 288.505Z" fill="url(#paint7_linear_834_10101)"/>
<path d="M100.836 297.617C101.018 307.093 113.046 375.252 96.0975 395.116C88.8078 403.864 56.7331 401.677 27.392 401.13C15.5463 396.21 38.6911 307.275 41.0602 287.229C45.4341 251.327 90.8125 229.093 90.8125 229.093C90.8125 229.093 100.289 275.383 100.836 297.617Z" fill="url(#paint8_linear_834_10101)"/>
<path d="M89.7197 199.752C103.023 211.78 102.659 244.766 80.4253 273.014C70.9487 285.224 51.0842 309.28 48.8973 314.929C45.0702 323.859 38.3272 396.574 37.2338 399.49C36.8693 400.401 35.9581 400.401 35.0469 400.583L-5.7755 407.144C-6.86895 407.326 -9.05588 406.78 -9.60261 405.322C-9.60261 405.322 -29.6493 330.784 -22.3596 299.257C-13.6119 260.621 17.5516 215.06 36.3226 201.21C51.2665 190.822 77.1449 188.088 89.7197 199.752Z" fill="url(#paint9_linear_834_10101)"/>
<path d="M53.6349 305.818L51.9947 304.178L51.0835 306.729L53.6349 305.818ZM56.3686 304.178L54.1816 302.902L53.6349 305.454L56.3686 304.178Z" fill="#084C4F"/>
<path d="M60.0134 298.892L57.6442 298.346L58.3732 301.079L60.0134 298.892ZM57.6442 302.537L55.2751 301.991L56.004 304.542L57.6442 302.537ZM67.8498 289.051L65.2984 288.687L66.2096 291.238L67.8498 289.051ZM51.8125 310.556L53.9994 307.276L49.6255 306.547L51.8125 310.556ZM49.4433 306.364L47.2564 307.822L49.8078 309.827L49.4433 306.364ZM42.8826 300.897L43.6116 302.173L44.5228 300.897H42.8826ZM48.5321 304.177L49.2611 305.453L49.9901 303.995L48.5321 304.177ZM59.1022 295.43L60.0134 296.523L60.5601 295.248L59.1022 295.43ZM54.5461 295.248L55.4573 296.341L56.004 294.701L54.5461 295.248ZM65.6629 283.22L66.5741 284.313L67.3031 282.673L65.6629 283.22ZM55.0928 300.35L55.8218 301.262L56.5508 299.804L55.0928 300.35ZM45.434 328.416L43.6116 328.234L44.1583 329.691L45.434 328.416ZM45.2517 324.589L43.7938 326.411L46.3452 326.958L45.2517 324.589ZM45.2517 319.668L43.6116 321.126L46.1629 322.22L45.2517 319.668Z" fill="#084C4F"/>
<path d="M43.6118 325.682L42.8828 327.322L44.8875 327.869L43.6118 325.682ZM38.1445 318.028L40.8782 318.575L40.3314 315.659L38.1445 318.028ZM39.6024 323.131L42.1539 323.86L41.6071 320.944L39.6024 323.131ZM43.2473 309.827L45.0697 311.65L45.9809 308.734L43.2473 309.827ZM39.0557 304.907L39.238 306.364L40.6959 305.453L39.0557 304.907ZM47.9856 300.168L46.8922 300.897L47.9856 301.808V300.168ZM46.7099 312.743L45.6165 311.832L45.252 313.29L46.7099 312.743ZM26.8455 310.738L27.0277 312.196L28.4857 310.921L26.8455 310.738ZM35.4109 305.453L34.1352 306.182L35.4109 307.093V305.453ZM34.6819 318.21L33.9529 317.117L33.4062 318.575L34.6819 318.21ZM29.7614 345.729L30.4903 347.187L31.5838 345.729H29.7614ZM37.9623 339.715L36.8688 340.444L38.1445 341.173L37.9623 339.715ZM38.6912 352.29L37.5978 351.561L37.4155 353.019L38.6912 352.29ZM31.5838 303.266L32.1305 304.907L33.4062 303.813L31.5838 303.266ZM40.6959 298.71L39.6024 299.257L40.5137 300.35L40.6959 298.71ZM39.4202 311.285L38.509 310.374L37.9623 311.65L39.4202 311.285ZM58.3735 281.397L59.4669 282.673L60.0137 281.215L58.3735 281.397ZM55.0931 285.771L55.4576 287.229L56.7333 286.136L55.0931 285.771ZM63.294 280.304L62.2006 281.033L63.4763 281.944L63.294 280.304ZM63.4763 293.061L62.7473 291.967L62.2006 293.425L63.4763 293.061ZM62.0183 276.294L61.6538 277.57L63.294 277.935L62.0183 276.294ZM72.0417 278.299L70.5837 278.117L71.1304 279.393L72.0417 278.299ZM63.294 287.411L63.1118 286.318L62.0183 286.682L63.294 287.411ZM43.794 294.883L44.1585 296.341L45.6165 294.883H43.794ZM51.266 288.505L50.537 289.234L51.6305 289.963L51.266 288.505ZM52.9062 300.897L51.8127 300.35L51.6305 301.626L52.9062 300.897ZM47.6211 286.136L47.9856 287.411L49.2613 286.318L47.6211 286.136ZM55.8221 280.486L54.7286 281.215L56.0043 281.944L55.8221 280.486ZM56.0043 293.061L55.2753 292.332L54.7286 293.607L56.0043 293.061ZM44.8875 321.308H42.8828L43.6118 323.313L44.8875 321.308Z" fill="#084C4F"/>
</g>
<defs>
<linearGradient id="paint0_linear_834_10101" x1="77.5169" y1="186.439" x2="90.0406" y2="170.314" gradientUnits="userSpaceOnUse">
<stop stop-color="#BC5A32" stop-opacity="0"/>
<stop offset="0.99" stop-color="#BC5A32"/>
</linearGradient>
<linearGradient id="paint1_linear_834_10101" x1="98.6163" y1="126.31" x2="88.1975" y2="111.871" gradientUnits="userSpaceOnUse">
<stop stop-color="#BC5A32" stop-opacity="0"/>
<stop offset="0.99" stop-color="#BC5A32"/>
</linearGradient>
<linearGradient id="paint2_linear_834_10101" x1="42.5771" y1="127.342" x2="71.7159" y2="101.757" gradientUnits="userSpaceOnUse">
<stop offset="0.007" stop-color="#FF7A00"/>
<stop offset="0.983" stop-color="#FFB600"/>
</linearGradient>
<linearGradient id="paint3_linear_834_10101" x1="68.9234" y1="155.345" x2="69.5375" y2="145.635" gradientUnits="userSpaceOnUse">
<stop stop-color="#CC7A5E" stop-opacity="0"/>
<stop offset="0.924" stop-color="#AA5F4B"/>
</linearGradient>
<linearGradient id="paint4_linear_834_10101" x1="84.0122" y1="265.961" x2="273.629" y2="273.92" gradientUnits="userSpaceOnUse">
<stop stop-color="#FDAA41"/>
<stop offset="1" stop-color="#FF4B96"/>
</linearGradient>
<linearGradient id="paint5_linear_834_10101" x1="186.95" y1="258.363" x2="104.135" y2="300.113" gradientUnits="userSpaceOnUse">
<stop stop-color="#00394A" stop-opacity="0"/>
<stop offset="0.998" stop-color="#00394A"/>
</linearGradient>
<linearGradient id="paint6_linear_834_10101" x1="81.9631" y1="300.105" x2="185.239" y2="301.43" gradientUnits="userSpaceOnUse">
<stop stop-color="#FDAA41"/>
<stop offset="1" stop-color="#FF4B96"/>
</linearGradient>
<linearGradient id="paint7_linear_834_10101" x1="-26.657" y1="297.022" x2="157.141" y2="301.096" gradientUnits="userSpaceOnUse">
<stop stop-color="#FDAA41"/>
<stop offset="1" stop-color="#FF4B96"/>
</linearGradient>
<linearGradient id="paint8_linear_834_10101" x1="82.3127" y1="318.13" x2="37.3443" y2="312.282" gradientUnits="userSpaceOnUse">
<stop stop-color="#00394A" stop-opacity="0"/>
<stop offset="0.998" stop-color="#00394A"/>
</linearGradient>
<linearGradient id="paint9_linear_834_10101" x1="-56.9857" y1="300.167" x2="140.884" y2="304.786" gradientUnits="userSpaceOnUse">
<stop stop-color="#FDAA41"/>
<stop offset="1" stop-color="#FF4B96"/>
</linearGradient>
<clipPath id="clip0_834_10101">
<rect width="152" height="304" rx="6" fill="white"/>
</clipPath>
</defs>
</svg>
