<svg xmlns="http://www.w3.org/2000/svg" width="38" height="23" fill="none" viewBox="0 0 38 23"><path fill="#AEAEAE" d="M26.9013 0C24.0433 0 21.4349 1.08662 19.4651 2.86701C17.4214 1.01437 14.7989 0 12.0204 0C5.90082 0 0.922138 4.97868 0.922138 11.0983C0.922138 12.797 1.31498 14.4838 2.06005 15.9979C1.90317 16.3646 1.48896 17.0546 1.22478 17.4931C0.255293 19.1051 -0.444467 20.2691 0.334374 21.171C1.13502 22.0991 2.51017 21.6045 4.25123 20.9778C4.77787 20.7885 5.62169 20.485 6.00469 20.4255C7.79675 21.585 9.88643 22.2001 12.0208 22.1965C14.7718 22.195 17.4244 21.1733 19.4656 19.3291C21.4349 21.1103 24.0433 22.1965 26.9017 22.1965C33.0213 22.1965 38 17.2183 38 11.0983C38 4.97825 33.0213 0 26.9013 0ZM7.06224 18.4421C6.23766 17.8838 5.0865 18.2985 3.49291 18.8717C3.31423 18.9363 3.09922 19.0136 2.87822 19.0901C2.97269 18.9303 3.06459 18.7781 3.14324 18.6469C4.05503 17.1298 4.65775 16.1282 4.18925 15.2455C3.51383 13.9677 3.16091 12.5441 3.1612 11.0987C3.1612 6.2132 7.13577 2.23863 12.0213 2.23863C14.2189 2.23244 16.3393 3.04903 17.9652 4.52771C16.5593 6.42989 15.8017 8.73337 15.8039 11.0987C15.8018 13.4638 16.5592 15.7671 17.9647 17.6693C16.3351 19.1415 14.2174 19.9572 12.0213 19.9588C10.2535 19.9623 8.52559 19.4339 7.06224 18.4421ZM26.9013 19.9588C22.0154 19.9588 18.0408 15.9838 18.0408 11.0983C18.0408 6.21277 22.0154 2.23863 26.9013 2.23863C31.7868 2.23863 35.7614 6.2132 35.7614 11.0987C35.7614 15.9842 31.7868 19.9588 26.9013 19.9588Z"/></svg>